<?xml version="1.0" encoding="UTF-8" standalone="no"?><!-- Generator: Gravit.io --><svg xmlns="http://www.w3.org/2000/svg" xmlns:xlink="http://www.w3.org/1999/xlink" style="isolation:isolate" viewBox="0 0 4000 2200" width="4000pt" height="2200pt"><defs><clipPath id="_clipPath_5ANXAZFGei5d4vqUmvfffUWD6CtvAr6z"><rect width="4000" height="2200"/></clipPath></defs><g clip-path="url(#_clipPath_5ANXAZFGei5d4vqUmvfffUWD6CtvAr6z)"><clipPath id="_clipPath_Qv2aNgdtKVOHgRnIOaqBCGQ6GtPlI8e9"><rect x="0" y="0" width="4000" height="2200" transform="matrix(1,0,0,1,0,0)" fill="rgb(255,255,255)"/></clipPath><g clip-path="url(#_clipPath_Qv2aNgdtKVOHgRnIOaqBCGQ6GtPlI8e9)"><g><clipPath id="_clipPath_7sR64bLhT4b3YLhDT59m0fZ8saB7YPSf"><path d=" M 0 2200 L 4000 2200 L 4000 0 L 0 0 L 0 2200 Z " fill="rgb(255,255,255)"/></clipPath><g clip-path="url(#_clipPath_7sR64bLhT4b3YLhDT59m0fZ8saB7YPSf)"><g><path d=" M 1939.276 1064.946 L 1929.276 1064.946 L 1929.276 942.319 C 1929.276 917.506 1909.089 897.319 1884.276 897.319 L 1485.367 897.319 C 1455.04 897.319 1430.367 872.646 1430.367 842.319 L 1430.367 584.915 L 1440.367 584.915 L 1440.367 842.319 C 1440.367 867.132 1460.554 887.319 1485.367 887.319 L 1884.276 887.319 C 1914.603 887.319 1939.276 911.992 1939.276 942.319 L 1939.276 1064.946 Z " fill="rgb(0,83,156)"/><path d=" M 2103.957 1064.946 L 2093.957 1064.946 L 2093.957 1014.574 C 2093.957 984.247 2118.63 959.574 2148.957 959.574 L 2373.258 959.574 C 2398.071 959.574 2418.258 939.387 2418.258 914.574 L 2418.258 723.307 L 2428.258 723.307 L 2428.258 914.574 C 2428.258 944.902 2403.585 969.574 2373.258 969.574 L 2148.957 969.574 C 2124.144 969.574 2103.957 989.761 2103.957 1014.574 L 2103.957 1064.946 Z " fill="rgb(0,83,156)"/><path d=" M 1519.787 1328.426 L 1220.362 1328.426 C 1190.035 1328.426 1165.362 1303.753 1165.362 1273.426 L 1165.362 573.117 C 1165.362 548.304 1145.175 528.117 1120.362 528.117 L 712.83 528.117 L 712.83 518.117 L 1120.362 518.117 C 1150.689 518.117 1175.362 542.79 1175.362 573.117 L 1175.362 1273.426 C 1175.362 1298.239 1195.549 1318.426 1220.362 1318.426 L 1519.787 1318.426 L 1519.787 1328.426 Z " fill="rgb(0,83,156)"/><path d=" M 1170.362 1016.042 L 999.809 1016.042 L 999.809 1006.042 L 1170.362 1006.042 L 1170.362 1016.042 Z " fill="rgb(0,83,156)"/><path d=" M 1049.383 1570.479 L 740.915 1570.479 L 740.915 1560.479 L 1049.383 1560.479 C 1074.196 1560.479 1094.383 1540.292 1094.383 1515.479 L 1094.383 1488.958 C 1094.383 1458.631 1119.056 1433.958 1149.383 1433.958 L 1519.787 1433.958 L 1519.787 1443.958 L 1149.383 1443.958 C 1124.57 1443.958 1104.383 1464.145 1104.383 1488.958 L 1104.383 1515.479 C 1104.383 1545.806 1079.71 1570.479 1049.383 1570.479 Z " fill="rgb(0,83,156)"/><path d=" M 2599.17 1402.008 L 2480.213 1402.008 L 2480.213 1392.008 L 2599.17 1392.008 C 2623.983 1392.008 2644.17 1371.821 2644.17 1347.008 L 2644.17 931.085 C 2644.17 900.758 2668.843 876.085 2699.17 876.085 L 3367.985 876.085 C 3392.799 876.085 3412.985 855.898 3412.985 831.085 L 3412.985 654.362 L 3422.985 654.362 L 3422.985 831.085 C 3422.985 861.412 3398.313 886.085 3367.985 886.085 L 2699.17 886.085 C 2674.357 886.085 2654.17 906.272 2654.17 931.085 L 2654.17 1193.609 L 2654.17 1347.008 C 2654.17 1377.335 2629.497 1402.008 2599.17 1402.008 Z " fill="rgb(0,83,156)"/><path d=" M 2898.872 1157.495 L 2649.17 1157.495 L 2649.17 1147.495 L 2898.872 1147.495 L 2898.872 1157.495 Z " fill="rgb(0,83,156)"/><path d=" M 3352.83 1638.705 L 3203.681 1638.705 C 3173.353 1638.705 3148.681 1614.032 3148.681 1583.705 L 3148.681 1496.979 C 3148.681 1472.166 3128.494 1451.979 3103.681 1451.979 L 2480.213 1451.979 L 2480.213 1441.979 L 3103.681 1441.979 C 3134.008 1441.979 3158.681 1466.652 3158.681 1496.979 L 3158.681 1583.705 C 3158.681 1608.518 3178.867 1628.705 3203.681 1628.705 L 3352.83 1628.705 L 3352.83 1638.705 Z " fill="rgb(0,83,156)"/></g></g><path d=" M 516.172 1326.403 L 510.476 1326.403 C 376.992 1326.403 268.788 1434.61 268.788 1568.094 L 268.788 1573.787 C 268.788 1707.269 376.992 1815.479 510.476 1815.479 L 516.172 1815.479 C 649.655 1815.479 757.86 1707.269 757.86 1573.787 L 757.86 1568.094 C 757.86 1434.61 649.655 1326.403 516.172 1326.403 Z " fill="rgb(14,157,229)"/><path d=" M 667.584 1476.292 C 662.216 1478.753 658.738 1480.184 655.352 1481.605 C 648.474 1484.481 640.507 1487.073 633.157 1488.311 C 636.031 1487.829 639.575 1484.674 642.738 1481.356 C 642.752 1481.344 657.084 1467.472 659.696 1454.376 C 659.827 1453.69 659.106 1453.151 658.476 1453.463 C 647.857 1458.758 642.03 1460.462 640.389 1461.169 C 633.721 1463.799 628.681 1465.309 621.594 1467.079 C 621.594 1467.079 591.786 1427.933 545.415 1445.939 C 526.908 1453.122 515.293 1465.419 508.691 1478.382 C 508.677 1478.395 497.245 1498.369 498.624 1522.606 C 467.294 1517.083 439.363 1507.136 414.662 1490.268 C 413.428 1489.006 404.188 1482.432 401.523 1480.384 C 393.924 1474.101 386.665 1467.056 379.722 1459.15 C 379.578 1458.985 379.447 1458.849 379.316 1458.716 C 376.664 1455.247 375.535 1453.164 375.535 1453.164 C 360.993 1490.039 367.975 1518.448 375.942 1535.334 C 363.185 1533.514 356.556 1530.468 356.556 1530.468 C 368.566 1574.231 396.483 1592.189 412.916 1599.166 C 395.236 1601.219 385.406 1598.097 385.406 1598.097 C 403.637 1642.243 441.253 1644.005 441.253 1644.005 C 414.858 1668.515 357.659 1670.162 356.898 1670.546 C 356.123 1671.025 356.793 1671.7 357.698 1672.434 C 361.282 1674.8 364.93 1676.895 368.645 1678.922 C 379.854 1684.862 391.548 1689.594 403.768 1692.968 C 466.874 1710.398 537.973 1697.591 585.355 1650.507 C 622.565 1613.533 635.612 1562.544 635.612 1511.49 C 635.612 1511.49 665.786 1496.056 668.779 1477.19 C 668.884 1476.524 668.188 1476.011 667.584 1476.292 Z " fill="rgb(255,255,255)"/><path d=" M 3723.459 1638.89 C 3723.459 1535.323 3639.499 1451.366 3535.929 1451.366 C 3432.369 1451.366 3348.409 1535.323 3348.409 1638.89 C 3348.409 1742.456 3432.369 1826.414 3535.929 1826.414 C 3639.499 1826.414 3723.459 1742.456 3723.459 1638.89 Z " fill="rgb(0,118,180)"/><path d=" M 3427.919 1738.966 L 3427.919 1575.458 L 3472.219 1575.458 L 3472.219 1738.966 L 3427.919 1738.966 Z " fill="rgb(255,255,255)"/><path d=" M 3533.729 1592.032 C 3537.769 1587.36 3543.819 1582.948 3551.899 1578.804 C 3559.969 1574.661 3569.749 1572.589 3581.219 1572.589 C 3590.789 1572.589 3599.439 1574.183 3607.199 1577.37 C 3614.949 1580.558 3621.589 1585.02 3627.119 1590.757 C 3632.639 1596.495 3636.889 1603.456 3639.869 1611.634 C 3642.839 1619.816 3644.329 1628.796 3644.329 1638.566 L 3644.329 1738.966 L 3600.349 1738.966 L 3600.349 1646.216 C 3600.349 1636.445 3597.739 1628.526 3592.539 1622.47 C 3587.329 1616.415 3579.949 1613.387 3570.389 1613.387 C 3559.549 1613.387 3550.839 1616.574 3544.249 1622.949 C 3537.659 1629.323 3534.369 1638.248 3534.369 1649.722 L 3534.369 1738.966 L 3490.069 1738.966 L 3490.069 1575.458 L 3533.729 1575.458 L 3533.729 1592.032 Z " fill="rgb(255,255,255)"/><path d=" M 3472.609 1540.028 C 3472.609 1527.581 3462.519 1517.491 3450.069 1517.491 C 3437.619 1517.491 3427.529 1527.581 3427.529 1540.028 C 3427.529 1552.474 3437.619 1562.564 3450.069 1562.564 C 3462.519 1562.564 3472.609 1552.474 3472.609 1540.028 Z " fill="rgb(255,255,255)"/><path d=" M 3079.7 961.606 L 3075.339 961.606 C 2973.01 961.606 2890.059 1044.557 2890.059 1146.883 L 2890.059 1151.247 C 2890.059 1253.573 2973.01 1336.528 3075.339 1336.528 L 3079.7 1336.528 C 3182.029 1336.528 3264.98 1253.573 3264.98 1151.247 L 3264.98 1146.883 C 3264.98 1044.557 3182.029 961.606 3079.7 961.606 Z " fill="rgb(249,236,6)"/><path d=" M 3031.339 1242.252 C 3036.369 1242.252 3041.799 1243.746 3045.51 1246.147 C 3045.789 1246.333 3046.059 1246.544 3046.319 1246.768 C 3047.88 1248.028 3049.589 1249.125 3051.41 1250.287 L 3052.7 1251.117 C 3061.72 1256.974 3067.2 1259.649 3075.63 1259.934 L 3079.93 1259.919 C 3088.01 1259.567 3093.45 1256.884 3102.349 1251.117 L 3103.64 1250.281 C 3105.45 1249.121 3107.16 1248.025 3108.68 1246.801 C 3108.98 1246.544 3109.25 1246.333 3109.529 1246.147 C 3113.24 1243.746 3118.67 1242.252 3123.7 1242.252 C 3125.099 1242.252 3126.41 1242.373 3127.579 1242.609 C 3128.68 1242.829 3129.769 1243.087 3130.91 1243.355 C 3134.779 1244.264 3139.16 1245.298 3146.88 1245.298 L 3146.94 1245.298 C 3153.569 1244.884 3155.72 1241.152 3158.66 1235.115 C 3159.23 1233.949 3159.819 1232.745 3160.46 1231.608 C 3165.91 1221.923 3178.809 1219.547 3186.51 1218.129 C 3187.589 1217.93 3188.539 1217.758 3189.309 1217.584 C 3190.76 1217.259 3192.289 1216.35 3194.109 1214.732 C 3194.799 1214.005 3195.559 1212.656 3195.44 1212.104 C 3195.39 1211.854 3194.799 1211.035 3192.72 1210.131 C 3169.01 1204.482 3150.75 1188.813 3141.289 1165.971 C 3139.97 1162.796 3138.66 1158.682 3140.18 1155.019 C 3141.67 1151.427 3144.99 1150.061 3147.91 1148.854 C 3148.65 1148.55 3149.44 1148.228 3150.25 1147.845 C 3152.2 1146.93 3154.17 1146.212 3156.079 1145.519 C 3157.19 1145.114 3158.299 1144.71 3159.39 1144.266 L 3160.329 1143.89 C 3163.529 1142.602 3166.839 1141.27 3169.14 1139.268 C 3170.43 1138.147 3171.22 1136.797 3171.24 1135.663 C 3171.299 1133.245 3169.359 1129.436 3167.599 1128.514 C 3167.039 1128.222 3165.93 1127.874 3163.779 1127.874 C 3160.329 1127.874 3156.079 1128.756 3152.019 1129.709 L 3151.119 1129.922 C 3149.42 1130.328 3148.089 1130.648 3146.72 1130.648 C 3144.24 1130.648 3142.73 1129.536 3141.89 1128.603 C 3139.799 1126.264 3139.97 1122.99 3140.359 1119.557 C 3141.75 1107.134 3141.779 1097.862 3140.44 1086.486 C 3138.47 1069.757 3129.72 1056.73 3114.44 1047.766 C 3103.579 1041.399 3091.329 1038.171 3078 1038.171 L 3077.539 1038.178 L 3077.039 1038.171 C 3063.71 1038.171 3051.45 1041.399 3040.599 1047.766 C 3025.319 1056.729 3016.569 1069.757 3014.599 1086.486 C 3013.26 1097.855 3013.289 1107.127 3014.68 1119.557 C 3015.059 1122.989 3015.24 1126.264 3013.15 1128.602 C 3012.309 1129.536 3010.799 1130.648 3008.309 1130.648 C 3006.95 1130.648 3005.609 1130.328 3003.92 1129.922 L 3003.019 1129.709 C 2998.95 1128.756 2994.71 1127.874 2991.26 1127.874 C 2989.109 1127.874 2988 1128.222 2987.44 1128.514 C 2985.68 1129.436 2983.74 1133.245 2983.799 1135.663 C 2983.819 1136.797 2984.609 1138.146 2985.9 1139.269 C 2988.2 1141.27 2991.51 1142.602 2994.71 1143.89 L 2995.65 1144.267 C 2996.74 1144.71 2997.849 1145.114 2998.96 1145.519 C 3000.869 1146.212 3002.829 1146.93 3004.789 1147.845 C 3005.599 1148.228 3006.39 1148.55 3007.13 1148.854 C 3010.049 1150.061 3013.369 1151.427 3014.859 1155.019 C 3016.38 1158.682 3015.069 1162.796 3013.75 1165.971 C 3004.289 1188.814 2986.029 1204.484 2962.329 1210.131 C 2960.24 1211.035 2959.65 1211.854 2959.599 1212.104 C 2959.48 1212.652 2960.22 1213.982 2960.94 1214.743 C 2962.76 1216.354 2964.289 1217.259 2965.73 1217.584 C 2966.5 1217.758 2967.45 1217.93 2968.529 1218.129 C 2976.23 1219.549 2989.13 1221.923 2994.579 1231.608 C 2995.22 1232.745 2995.809 1233.949 2996.369 1235.115 C 2999.319 1241.152 3001.47 1244.884 3008.099 1245.298 L 3008.16 1245.298 C 3015.88 1245.298 3020.26 1244.264 3024.13 1243.355 C 3025.269 1243.087 3026.359 1242.829 3027.46 1242.609 C 3028.63 1242.373 3029.94 1242.252 3031.339 1242.252 Z  M 3077.95 1269.309 L 3077.519 1269.307 L 3077.089 1269.309 C 3076.619 1269.309 3076.14 1269.303 3075.66 1269.289 L 3075.65 1269.289 L 3075.63 1269.289 L 3072.849 1269.26 L 3072.849 1269.129 C 3063.589 1268.333 3056.869 1264.97 3047.609 1258.961 L 3046.359 1258.159 C 3044.41 1256.913 3042.4 1255.624 3040.49 1254.076 L 3040.289 1253.909 C 3038.099 1252.547 3034.45 1251.603 3031.339 1251.603 C 3030.569 1251.603 3029.859 1251.662 3029.299 1251.777 C 3028.299 1251.977 3027.309 1252.212 3026.279 1252.455 C 3022.13 1253.433 3016.97 1254.648 3008.16 1254.648 L 3007.7 1254.641 C 2995.15 1253.941 2990.829 1245.077 2987.97 1239.213 C 2987.44 1238.122 2986.93 1237.09 2986.43 1236.192 C 2983.13 1230.326 2972.93 1228.448 2966.839 1227.325 C 2965.609 1227.101 2964.539 1226.901 2963.68 1226.706 C 2959.609 1225.79 2956.539 1223.357 2954.579 1221.605 L 2954.43 1221.462 C 2953.9 1220.942 2949.269 1216.201 2950.42 1210.309 C 2950.95 1207.624 2952.88 1203.887 2959.099 1201.342 L 2959.819 1201.116 C 2980.69 1196.25 2996.779 1182.498 3005.109 1162.391 C 3006.019 1160.202 3006.18 1159.13 3006.19 1158.71 C 3005.67 1158.367 3004.47 1157.872 3003.559 1157.498 C 3002.7 1157.142 3001.779 1156.76 3000.819 1156.313 C 2999.24 1155.573 2997.549 1154.957 2995.76 1154.305 C 2994.549 1153.862 2993.329 1153.418 2992.13 1152.933 L 2991.22 1152.564 C 2987.48 1151.06 2983.25 1149.357 2979.76 1146.322 C 2976.48 1143.462 2974.539 1139.661 2974.45 1135.893 C 2974.319 1130.607 2977.589 1123.117 2983.099 1120.23 C 2985.289 1119.082 2987.96 1118.524 2991.26 1118.524 C 2995.66 1118.524 3000.539 1119.524 3005.16 1120.604 L 3005.39 1120.661 L 3005.39 1120.599 C 3003.91 1107.401 3003.89 1097.53 3005.319 1085.394 C 3007.609 1065.878 3018.18 1050.077 3035.869 1039.7 C 3048.18 1032.481 3062.029 1028.82 3077.039 1028.82 L 3077.63 1028.825 L 3077.98 1028.82 C 3093.01 1028.82 3106.859 1032.481 3119.17 1039.7 C 3136.859 1050.077 3147.43 1065.878 3149.72 1085.394 C 3151.15 1097.537 3151.13 1107.408 3149.65 1120.6 L 3149.64 1120.661 L 3149.88 1120.604 C 3154.5 1119.524 3159.38 1118.524 3163.779 1118.524 C 3167.069 1118.524 3169.74 1119.082 3171.94 1120.23 C 3177.45 1123.117 3180.72 1130.607 3180.589 1135.892 C 3180.5 1139.66 3178.559 1143.46 3175.279 1146.32 C 3171.789 1149.357 3167.559 1151.06 3163.819 1152.564 L 3162.91 1152.933 C 3161.71 1153.418 3160.49 1153.862 3159.279 1154.305 C 3157.49 1154.957 3155.799 1155.573 3154.22 1156.313 C 3153.26 1156.76 3152.339 1157.142 3151.47 1157.498 C 3150.569 1157.872 3149.369 1158.367 3148.849 1158.71 C 3148.859 1159.13 3149.019 1160.202 3149.93 1162.391 C 3158.26 1182.497 3174.339 1196.25 3195.22 1201.117 L 3195.93 1201.342 C 3202.16 1203.887 3204.089 1207.624 3204.619 1210.311 C 3205.769 1216.202 3201.14 1220.942 3200.609 1221.462 L 3200.46 1221.605 C 3198.5 1223.357 3195.43 1225.79 3191.359 1226.706 C 3190.5 1226.901 3189.43 1227.101 3188.21 1227.324 C 3182.109 1228.448 3171.91 1230.326 3168.609 1236.192 C 3168.099 1237.09 3167.599 1238.122 3167.069 1239.213 C 3164.21 1245.077 3159.89 1253.941 3147.339 1254.641 L 3146.88 1254.648 C 3138.069 1254.648 3132.91 1253.433 3128.76 1252.455 C 3127.73 1252.212 3126.74 1251.977 3125.74 1251.777 C 3125.18 1251.662 3124.47 1251.603 3123.7 1251.603 C 3120.589 1251.603 3116.94 1252.548 3114.75 1253.91 L 3114.559 1254.069 C 3112.64 1255.621 3110.63 1256.908 3108.69 1258.152 L 3107.44 1258.961 C 3098.14 1264.993 3091.4 1268.359 3082.19 1269.135 L 3082.19 1269.224 L 3080.279 1269.257 C 3080.119 1269.265 3079.96 1269.271 3079.799 1269.277 L 3079.619 1269.303 L 3079.309 1269.289 C 3078.93 1269.301 3078.44 1269.309 3077.95 1269.309 Z " fill="rgb(0,0,0)"/><path d=" M 3428.117 176.587 L 3422.24 176.587 C 3284.541 176.587 3172.919 288.214 3172.919 425.914 L 3172.919 431.786 C 3172.919 569.484 3284.541 681.108 3422.24 681.108 L 3428.117 681.108 C 3565.816 681.108 3677.438 569.484 3677.438 431.786 L 3677.438 425.914 C 3677.438 288.214 3565.816 176.587 3428.117 176.587 Z " fill="rgb(0,0,0)"/><path d=" M 3524.804 333.59 C 3506.214 333.59 3491.158 318.529 3491.158 299.948 L 3491.158 299.948 L 3491.158 284.595 L 3435.198 284.595 L 3435.198 394.309 L 3435.198 477.382 L 3435.198 477.384 C 3435.198 495.964 3420.128 511.026 3401.552 511.026 C 3382.961 511.026 3367.905 495.964 3367.905 477.384 C 3367.905 458.803 3382.961 443.74 3401.552 443.74 C 3410.488 443.74 3418.612 447.229 3424.637 452.919 L 3424.637 390.783 C 3417.271 388.823 3409.526 387.778 3401.552 387.778 C 3352.064 387.778 3311.945 427.896 3311.945 477.384 C 3311.945 526.872 3352.064 566.99 3401.552 566.99 C 3451.039 566.99 3491.158 526.872 3491.158 477.384 L 3491.158 477.381 L 3491.158 383.017 C 3501.543 387.228 3512.903 389.554 3524.804 389.554 L 3539.088 389.554 L 3539.508 333.59 L 3524.804 333.59 Z " fill="rgb(255,255,255)"/><path d=" M 2417.005 249.032 L 2411.575 249.032 C 2284.333 249.032 2181.187 352.185 2181.187 479.427 L 2181.187 484.855 C 2181.187 612.096 2284.333 715.246 2411.575 715.246 L 2417.005 715.246 C 2544.247 715.246 2647.405 612.096 2647.405 484.855 L 2647.405 479.427 C 2647.405 352.185 2544.247 249.032 2417.005 249.032 Z " fill="rgb(247,10,2)"/><path d=" M 2574.688 478.65 L 2574.688 478.65 C 2574.437 453.115 2573.099 397.251 2551.716 380.98 C 2530.134 364.567 2414.29 364.567 2414.29 364.567 L 2414.29 367.931 L 2414.29 364.567 C 2414.29 364.567 2298.446 364.567 2276.876 380.98 C 2255.493 397.251 2254.155 453.115 2253.905 478.65 L 2253.905 478.65 L 2253.905 478.989 L 2253.905 479.329 L 2253.905 479.329 C 2254.155 504.864 2255.493 560.728 2276.876 576.998 C 2298.446 593.412 2414.29 593.412 2414.29 593.412 L 2414.29 590.73 L 2414.29 593.412 C 2414.29 593.412 2530.134 593.412 2551.716 576.998 C 2573.099 560.728 2574.437 504.864 2574.688 479.329 L 2574.688 479.329 L 2574.688 478.989 L 2574.688 478.65 Z " fill="rgb(255,255,255)"/><path d=" M 2385.075 427.204 L 2474.77 478.99 L 2385.075 530.776 L 2385.075 427.204 Z " fill="rgb(247,10,2)"/><path d=" M 815.608 811.976 L 811.271 811.976 C 709.571 811.976 627.127 894.42 627.127 996.12 L 627.127 1000.457 C 627.127 1102.157 709.571 1184.597 811.271 1184.597 L 815.608 1184.597 C 917.308 1184.597 999.752 1102.157 999.752 1000.457 L 999.752 996.12 C 999.752 894.42 917.308 811.976 815.608 811.976 Z " fill="rgb(101,65,165)"/><path d=" M 891.174 1022.05 L 865.04 1049.768 L 818.315 1049.768 L 791.389 1071.942 L 790.597 1049.768 L 753.376 1049.768 L 753.376 927.808 L 891.174 927.808 L 891.174 1022.05 Z  M 739.12 913.553 L 722.094 943.251 L 722.094 1079.268 L 763.077 1079.268 L 763.077 1101.294 L 776.441 1101.294 L 787.43 1101.294 L 818.315 1079.268 L 858.111 1079.268 L 871.192 1064.023 L 905.429 1027.71 L 905.429 913.553 L 739.12 913.553 Z " fill="rgb(255,255,255)"/><path d=" M 861.476 1007.423 L 847.221 1007.423 L 847.221 961.094 L 861.476 961.094 L 861.476 1007.423 Z " fill="rgb(255,255,255)"/><path d=" M 824.453 1007.423 L 810.198 1007.423 L 810.198 961.094 L 824.453 961.094 L 824.453 1007.423 Z " fill="rgb(255,255,255)"/><clipPath id="_clipPath_YcNVlz6QC6nxJOeo1FngW5AGhSgQQyoC"><path d=" M 0 0 L 4000 0 L 4000 2200 L 0 2200 L 0 0 Z " fill="rgb(255,255,255)"/></clipPath><g clip-path="url(#_clipPath_YcNVlz6QC6nxJOeo1FngW5AGhSgQQyoC)"><g><path d=" M 723.853 523.117 C 723.852 628.994 638.024 714.825 532.145 714.825 C 426.268 714.825 340.437 628.994 340.436 523.117 C 340.437 417.24 426.268 331.409 532.145 331.409 C 638.024 331.409 723.853 417.24 723.853 523.117 Z " fill="rgb(203,239,229)"/><linearGradient id="_lgradient_6" x1="0.5" y1="1" x2="0.5000000000536731" y2="0.000005277751527588137" gradientTransform="matrix(391.261,0,0,391.264,335.739,324.736)" gradientUnits="userSpaceOnUse"><stop offset="0%" stop-opacity="1" style="stop-color:rgb(0,84,212)"/><stop offset="10%" stop-opacity="1" style="stop-color:rgb(0,90,214)"/><stop offset="20%" stop-opacity="1" style="stop-color:rgb(0,95,216)"/><stop offset="30.000000000000004%" stop-opacity="1" style="stop-color:rgb(0,101,218)"/><stop offset="40%" stop-opacity="1" style="stop-color:rgb(0,106,220)"/><stop offset="50%" stop-opacity="1" style="stop-color:rgb(0,112,222)"/><stop offset="60%" stop-opacity="1" style="stop-color:rgb(0,117,225)"/><stop offset="70%" stop-opacity="1" style="stop-color:rgb(0,123,227)"/><stop offset="80%" stop-opacity="1" style="stop-color:rgb(0,128,229)"/><stop offset="89.99999999999999%" stop-opacity="1" style="stop-color:rgb(0,133,231)"/><stop offset="99.99999999999999%" stop-opacity="1" style="stop-color:rgb(0,139,233)"/></linearGradient><path d=" M 533.327 324.736 L 529.413 324.736 C 422.45 324.736 335.739 411.449 335.739 518.412 L 335.739 522.326 C 335.739 629.289 422.45 716 529.413 716 L 533.327 716 C 640.29 716 727 629.289 727 522.326 L 727 518.412 C 727 411.449 640.29 324.736 533.327 324.736 Z " fill="url(#_lgradient_6)"/><path d=" M 640.611 590.873 L 640.611 539 L 579.497 539 L 579.497 496.369 C 579.497 489.415 580.988 483.75 583.968 479.376 C 586.95 475.009 591.319 472.818 597.085 472.818 L 640.611 472.818 L 640.611 414.983 L 595.893 414.983 C 569.658 414.983 550.23 421.793 537.612 435.404 C 524.988 449.02 518.68 469.539 518.68 496.966 L 518.68 539 L 485.887 539 L 485.887 590.873 L 518.68 590.873 L 518.68 715.7 C 522.234 715.894 525.811 716 529.413 716 L 533.327 716 C 549.24 716 564.699 714.067 579.497 710.446 L 579.497 590.873 L 640.611 590.873 Z " fill="rgb(255,255,255)"/></g></g><clipPath id="_clipPath_D096WY3riC7Yzp3DK95LN96fplisf0Ya"><path d=" M 0 0 L 4000 0 L 4000 2200 L 0 2200 L 0 0 Z " fill="rgb(255,255,255)"/></clipPath><g clip-path="url(#_clipPath_D096WY3riC7Yzp3DK95LN96fplisf0Ya)"><g><path d=" M 1672.974 377.589 C 1672.973 508.816 1566.596 615.196 1435.367 615.196 C 1304.141 615.196 1197.761 508.816 1197.76 377.589 C 1197.762 246.362 1304.141 139.982 1435.367 139.982 C 1566.596 139.982 1672.974 246.362 1672.974 377.589 Z " fill="rgb(203,239,229)"/><clipPath id="_clipPath_kHUxQeUlCYIOgpZDi5zZ7II24VHeAG2z"><path d=" M 1438.639 136 L 1431.366 136 C 1300.272 136 1194 241.828 1194 372.378 L 1194 379.618 C 1194 510.169 1300.272 616 1431.366 616 L 1438.639 616 C 1569.733 616 1676 510.169 1676 379.618 L 1676 372.378 C 1676 241.828 1569.733 136 1438.639 136 Z " fill="rgb(255,255,255)"/></clipPath><g clip-path="url(#_clipPath_kHUxQeUlCYIOgpZDi5zZ7II24VHeAG2z)"><g><linearGradient id="_lgradient_7" x1="0.14423809779399877" y1="0.8557626763851839" x2="0.8557726370028448" y2="0.14718436587233974" gradientTransform="matrix(482,0,0,480,1194,136)" gradientUnits="userSpaceOnUse"><stop offset="0%" stop-opacity="1" style="stop-color:rgb(251,219,108)"/><stop offset="10%" stop-opacity="1" style="stop-color:rgb(252,189,80)"/><stop offset="20%" stop-opacity="1" style="stop-color:rgb(250,138,76)"/><stop offset="30.000000000000004%" stop-opacity="1" style="stop-color:rgb(244,80,90)"/><stop offset="40%" stop-opacity="1" style="stop-color:rgb(227,65,118)"/><stop offset="50%" stop-opacity="1" style="stop-color:rgb(208,54,143)"/><stop offset="60%" stop-opacity="1" style="stop-color:rgb(183,55,163)"/><stop offset="70%" stop-opacity="1" style="stop-color:rgb(159,56,184)"/><stop offset="80%" stop-opacity="1" style="stop-color:rgb(134,57,204)"/><stop offset="89.99999999999999%" stop-opacity="1" style="stop-color:rgb(101,74,227)"/><stop offset="99.99999999999999%" stop-opacity="1" style="stop-color:rgb(92,79,233)"/></linearGradient><path d=" M 1438.639 136 L 1431.366 136 C 1300.272 136 1194 241.828 1194 372.378 L 1194 379.618 C 1194 510.169 1300.272 616 1431.366 616 L 1438.639 616 C 1569.733 616 1676 510.169 1676 379.618 L 1676 372.378 C 1676 241.828 1569.733 136 1438.639 136 Z " fill="url(#_lgradient_7)"/></g></g><path d=" M 1497.432 288.034 C 1488.382 288.034 1481.021 295.395 1481.021 304.444 C 1481.021 313.494 1488.382 320.856 1497.432 320.856 C 1506.48 320.856 1513.843 313.494 1513.843 304.444 C 1513.843 295.395 1506.48 288.034 1497.432 288.034 Z " fill="rgb(255,255,255)"/><path d=" M 1425.972 417.176 C 1403.546 417.176 1385.3 398.931 1385.3 376.504 C 1385.3 354.078 1403.546 335.832 1425.972 335.832 C 1448.399 335.832 1466.644 354.078 1466.644 376.504 C 1466.644 398.931 1448.399 417.176 1425.972 417.176 Z  M 1425.972 311.297 C 1390.017 311.297 1360.765 340.548 1360.765 376.504 C 1360.765 412.458 1390.017 441.711 1425.972 441.711 C 1461.927 441.711 1491.179 412.458 1491.179 376.504 C 1491.179 340.548 1461.927 311.297 1425.972 311.297 Z " fill="rgb(255,255,255)"/><g><g><path d=" M 1357.372 492.295 C 1335.875 492.295 1318.387 474.879 1318.387 453.472 L 1318.387 298.855 C 1318.387 277.449 1335.875 260.033 1357.372 260.033 L 1512.628 260.033 C 1534.127 260.033 1551.617 277.45 1551.617 298.859 L 1551.617 453.472 C 1551.617 474.879 1534.128 492.295 1512.632 492.295 L 1357.372 492.295 Z  M 1512.628 232.329 L 1357.372 232.329 C 1320.537 232.329 1290.569 262.174 1290.569 298.855 L 1290.569 453.472 C 1290.569 490.154 1320.537 519.997 1357.372 519.997 L 1512.633 519.997 C 1549.468 519.997 1579.436 490.154 1579.436 453.472 L 1579.436 298.861 C 1579.436 262.175 1549.466 232.329 1512.628 232.329 Z " fill="rgb(255,255,255)"/></g></g></g></g><path d=" M 0 0 L 4000 0 L 4000 2200 L 0 2200 L 0 0 Z " fill="none"/><path d=" M 3193.28 1205.703 L 3193.27 1205.702 C 3170.31 1200.351 3153.36 1185.062 3144.72 1164.213 C 3140.84 1154.86 3145.4 1154.899 3151.34 1152.111 C 3154.23 1150.76 3157.3 1149.83 3160.26 1148.631 C 3164.07 1147.086 3168.17 1145.565 3171.32 1142.827 C 3173.37 1141.038 3174.96 1138.532 3175.03 1135.81 C 3175.12 1131.834 3172.4 1126.249 3168.88 1124.404 C 3164.46 1122.091 3156.61 1123.656 3150.06 1125.188 C 3144.79 1126.423 3143.32 1127.224 3144.12 1120.111 C 3145.49 1107.869 3145.63 1098.242 3144.19 1085.972 C 3141.97 1067.119 3131.75 1053.054 3115.91 1043.765 C 3103.31 1036.372 3089.91 1033.524 3077.09 1033.528 C 3076.94 1033.528 3076.78 1033.533 3076.63 1033.534 C 3076.48 1033.533 3076.32 1033.528 3076.17 1033.528 C 3063.35 1033.524 3049.95 1036.372 3037.35 1043.765 C 3021.51 1053.054 3011.29 1067.119 3009.07 1085.972 C 3007.62 1098.242 3007.77 1107.869 3009.14 1120.111 C 3009.94 1127.224 3008.47 1126.423 3003.2 1125.188 C 2996.65 1123.656 2988.8 1122.091 2984.38 1124.404 C 2980.86 1126.249 2978.13 1131.834 2978.23 1135.81 C 2978.3 1138.532 2979.89 1141.038 2981.94 1142.827 C 2985.09 1145.565 2989.18 1147.086 2993 1148.631 C 2995.96 1149.83 2999.03 1150.76 3001.91 1152.111 C 3007.86 1154.899 3012.42 1154.86 3008.54 1164.213 C 2999.9 1185.062 2982.95 1200.351 2959.99 1205.702 L 2959.98 1205.703 C 2948.77 1210.283 2956.81 1218.154 2956.81 1218.154 C 2958.8 1219.935 2961.1 1221.566 2963.81 1222.178 C 2969.44 1223.447 2984.5 1224.841 2989.61 1233.932 C 2993.05 1240.042 2995.3 1249.347 3007.07 1250.006 C 3017.67 1250.029 3022.46 1248.236 3027.49 1247.224 C 3031.52 1246.415 3038.04 1247.489 3042.07 1250.103 C 3042.24 1250.21 3042.38 1250.346 3042.53 1250.47 C 3044.64 1252.172 3046.98 1253.593 3049.26 1255.071 C 3058.69 1261.192 3065.1 1264.354 3074.76 1264.644 L 3074.76 1264.645 L 3074.79 1264.645 C 3075.4 1264.663 3076.01 1264.67 3076.62 1264.664 L 3076.62 1264.626 L 3076.63 1264.626 L 3076.64 1264.626 L 3076.64 1264.664 C 3077.25 1264.67 3077.86 1264.663 3078.47 1264.645 L 3078.5 1264.645 L 3078.5 1264.644 C 3088.16 1264.354 3094.56 1261.192 3104 1255.071 C 3106.28 1253.593 3108.62 1252.172 3110.73 1250.47 C 3110.88 1250.346 3111.02 1250.21 3111.19 1250.103 C 3115.22 1247.489 3121.74 1246.415 3125.77 1247.224 C 3130.8 1248.236 3135.59 1250.029 3146.19 1250.006 C 3157.96 1249.347 3160.21 1240.042 3163.65 1233.932 C 3168.76 1224.841 3183.82 1223.447 3189.44 1222.178 C 3192.15 1221.566 3194.46 1219.935 3196.45 1218.154 C 3196.45 1218.154 3204.48 1210.283 3193.28 1205.703 Z " fill="rgb(255,255,255)"/></g></g><defs><filter id="5448Hqxk1tlpEr33N3eOtf4DNLNfaGLZ" x="-200%" y="-200%" width="400%" height="400%" filterUnits="objectBoundingBox" color-interpolation-filters="sRGB"><feOffset xmlns="http://www.w3.org/2000/svg" in="SourceGraphic" dx="0" dy="0"/><feGaussianBlur xmlns="http://www.w3.org/2000/svg" stdDeviation="2.146804531419514" result="pf_100_offsetBlur"/><feComposite xmlns="http://www.w3.org/2000/svg" in="SourceGraphic" in2="pf_100_offsetBlur" result="pf_100_inverse" operator="out"/><feFlood xmlns="http://www.w3.org/2000/svg" flood-color="#000000" flood-opacity="0.5" result="pf_100_color"/><feComposite xmlns="http://www.w3.org/2000/svg" in="pf_100_color" in2="pf_100_inverse" operator="in" result="pf_100_shadow"/><feComposite xmlns="http://www.w3.org/2000/svg" in="pf_100_shadow" in2="SourceGraphic" operator="over"/><feGaussianBlur xmlns="http://www.w3.org/2000/svg" stdDeviation="12.365594100976402"/></filter></defs><g opacity="0.07" filter="url(#5448Hqxk1tlpEr33N3eOtf4DNLNfaGLZ)"><ellipse vector-effect="non-scaling-stroke" cx="534.4202898550726" cy="528.985507246377" rx="248.1884057971015" ry="237.3188405797102" fill="rgb(109,192,175)"/></g><defs><filter id="hut7a4ae5PpGC2qK65ZwkIVuUooecC5d" x="-200%" y="-200%" width="400%" height="400%" filterUnits="objectBoundingBox" color-interpolation-filters="sRGB"><feGaussianBlur xmlns="http://www.w3.org/2000/svg" in="SourceGraphic" stdDeviation="2.146804531419514"/><feOffset xmlns="http://www.w3.org/2000/svg" dx="0" dy="0" result="pf_100_offsetBlur"/><feFlood xmlns="http://www.w3.org/2000/svg" flood-color="#000000" flood-opacity="0.65"/><feComposite xmlns="http://www.w3.org/2000/svg" in2="pf_100_offsetBlur" operator="in" result="pf_100_dropShadow"/><feBlend xmlns="http://www.w3.org/2000/svg" in="SourceGraphic" in2="pf_100_dropShadow" mode="normal"/></filter></defs><g filter="url(#hut7a4ae5PpGC2qK65ZwkIVuUooecC5d)"><ellipse vector-effect="non-scaling-stroke" cx="1985.7871036313431" cy="1332.870036882576" rx="536.6626821930859" ry="312.2646840972363" fill="rgb(0,83,156)"/></g><text transform="matrix(1.051,0,0,1.488,1607.955,1367.809)" style="font-family:'Quicksand';font-weight:700;font-size:88px;font-style:normal;font-variant-ligatures:none;fill:#FFFFFF;stroke:none;">Sharemysocials.com</text></g></svg>