<?xml version="1.0" encoding="UTF-8" standalone="no"?><!-- Generator: Gravit.io --><svg xmlns="http://www.w3.org/2000/svg" xmlns:xlink="http://www.w3.org/1999/xlink" style="isolation:isolate" viewBox="0 0 500 303" width="500pt" height="303pt"><defs><clipPath id="_clipPath_KfY44L7Cv9Ci27qTznwBwhdoXJjPPQ20"><rect width="500" height="303"/></clipPath></defs><g clip-path="url(#_clipPath_KfY44L7Cv9Ci27qTznwBwhdoXJjPPQ20)"><clipPath id="_clipPath_fUQ4BDpwb8WU6hmd4WSOUDuat80jxwdI"><path d=" M 494.624 156.509 C 486.047 213.598 429.709 257.741 379.421 276.483 C 326.922 296.667 280.472 291.446 240.615 283.125 C 200.621 272.779 157.348 262.515 112.133 243.586 C 68.464 225.109 22.851 197.968 13.943 164.349 C 2.727 130.451 32.325 106.789 76.509 91.949 C 121.21 76.451 180.497 69.775 240.615 54.617 C 300.596 41.893 363.06 27.014 415.045 42.451 C 465.848 55.834 506.171 99.535 494.624 156.509 Z " fill="rgb(255,255,255)"/></clipPath><g clip-path="url(#_clipPath_fUQ4BDpwb8WU6hmd4WSOUDuat80jxwdI)"><linearGradient id="_lgradient_0" x1="0.8801976689456594" y1="0.01846753966116843" x2="0.18892340031875898" y2="0.9146300156042388" gradientTransform="matrix(485.055,0,0,254.635,11.558,35.865)" gradientUnits="userSpaceOnUse"><stop offset="0%" stop-opacity="1" style="stop-color:rgb(21,106,181)"/><stop offset="10%" stop-opacity="1" style="stop-color:rgb(22,99,177)"/><stop offset="20%" stop-opacity="1" style="stop-color:rgb(22,92,172)"/><stop offset="30.000000000000004%" stop-opacity="1" style="stop-color:rgb(24,85,167)"/><stop offset="40%" stop-opacity="1" style="stop-color:rgb(24,78,162)"/><stop offset="50%" stop-opacity="1" style="stop-color:rgb(25,72,158)"/><stop offset="60%" stop-opacity="1" style="stop-color:rgb(26,66,154)"/><stop offset="70%" stop-opacity="1" style="stop-color:rgb(27,61,149)"/><stop offset="80%" stop-opacity="1" style="stop-color:rgb(29,56,145)"/><stop offset="89.99999999999999%" stop-opacity="1" style="stop-color:rgb(30,51,141)"/><stop offset="99.99999999999999%" stop-opacity="1" style="stop-color:rgb(32,47,137)"/></linearGradient><path d=" M 494.624 156.509 C 486.047 213.598 429.709 257.741 379.421 276.483 C 326.922 296.667 280.472 291.446 240.615 283.125 C 200.621 272.779 157.348 262.515 112.133 243.586 C 68.464 225.109 22.851 197.968 13.943 164.349 C 2.727 130.451 32.325 106.789 76.509 91.949 C 121.21 76.451 180.497 69.775 240.615 54.617 C 300.596 41.893 363.06 27.014 415.045 42.451 C 465.848 55.834 506.171 99.535 494.624 156.509 Z " fill="url(#_lgradient_0)"/></g></g></svg>