<?xml version="1.0" encoding="UTF-8" standalone="no"?><!-- Generator: Gravit.io --><svg xmlns="http://www.w3.org/2000/svg" xmlns:xlink="http://www.w3.org/1999/xlink" style="isolation:isolate" viewBox="0 0 500 303" width="500pt" height="303pt"><defs><clipPath id="_clipPath_KVvtNDvKrloWRhiS2W8U8DO8p3psu1sv"><rect width="500" height="303"/></clipPath></defs><g clip-path="url(#_clipPath_KVvtNDvKrloWRhiS2W8U8DO8p3psu1sv)"><defs><filter id="oULY03KpdQZJBTAWqP7lnMF6OjtizQ2f" x="-200%" y="-200%" width="400%" height="400%" filterUnits="objectBoundingBox" color-interpolation-filters="sRGB"><feGaussianBlur xmlns="http://www.w3.org/2000/svg" in="SourceGraphic" stdDeviation="2.146804531419514"/><feOffset xmlns="http://www.w3.org/2000/svg" dx="0" dy="0" result="pf_100_offsetBlur"/><feFlood xmlns="http://www.w3.org/2000/svg" flood-color="#000000" flood-opacity="0.65"/><feComposite xmlns="http://www.w3.org/2000/svg" in2="pf_100_offsetBlur" operator="in" result="pf_100_dropShadow"/><feBlend xmlns="http://www.w3.org/2000/svg" in="SourceGraphic" in2="pf_100_dropShadow" mode="normal"/></filter></defs><g filter="url(#oULY03KpdQZJBTAWqP7lnMF6OjtizQ2f)"><clipPath id="_clipPath_1hMv10akuPe4rZVrMdq9yms64pqrmCb8"><path d=" M 1.715 162.06 C 11.034 95.172 68.877 43.891 120.298 22.352 C 173.986 -0.859 221.253 5.676 261.772 15.788 C 302.41 28.277 346.389 40.699 392.259 63.302 C 436.559 85.361 482.75 117.599 491.483 157.112 C 502.564 196.972 472.17 224.466 427.007 241.482 C 381.311 259.265 320.845 266.572 259.447 283.821 C 198.212 298.216 134.427 315.116 81.626 296.55 C 30.007 280.403 -10.628 228.787 1.715 162.06 Z " fill="rgb(255,255,255)"/></clipPath><g clip-path="url(#_clipPath_1hMv10akuPe4rZVrMdq9yms64pqrmCb8)"><linearGradient id="_lgradient_1" x1="0.8801976689456594" y1="0.01846753966116843" x2="0.18892340031875898" y2="0.9146300156042388" gradientTransform="matrix(-494.143,-4.287,2.591,-298.679,492.605,307.84)" gradientUnits="userSpaceOnUse"><stop offset="0%" stop-opacity="1" style="stop-color:rgb(31,132,221)"/><stop offset="10%" stop-opacity="1" style="stop-color:rgb(22,99,177)"/><stop offset="12.5%" stop-opacity="1" style="stop-color:rgb(22,97,176)"/><stop offset="20%" stop-opacity="1" style="stop-color:rgb(22,92,172)"/><stop offset="30.000000000000004%" stop-opacity="1" style="stop-color:rgb(24,85,167)"/><stop offset="40%" stop-opacity="1" style="stop-color:rgb(24,78,162)"/><stop offset="50%" stop-opacity="1" style="stop-color:rgb(25,72,158)"/><stop offset="60%" stop-opacity="1" style="stop-color:rgb(26,66,154)"/><stop offset="70%" stop-opacity="1" style="stop-color:rgb(27,61,149)"/><stop offset="80%" stop-opacity="1" style="stop-color:rgb(29,56,145)"/><stop offset="89.99999999999999%" stop-opacity="1" style="stop-color:rgb(30,51,141)"/><stop offset="99.99999999999999%" stop-opacity="1" style="stop-color:rgb(32,47,137)"/></linearGradient><path d=" M 1.715 162.06 C 11.034 95.172 68.877 43.891 120.298 22.352 C 173.986 -0.859 221.253 5.676 261.772 15.788 C 302.41 28.277 346.389 40.699 392.259 63.302 C 436.559 85.361 482.75 117.599 491.483 157.112 C 502.564 196.972 472.17 224.466 427.007 241.482 C 381.311 259.265 320.845 266.572 259.447 283.821 C 198.212 298.216 134.427 315.116 81.626 296.55 C 30.007 280.403 -10.628 228.787 1.715 162.06 Z " fill="url(#_lgradient_1)"/></g></g></g></svg>