<?xml version="1.0" encoding="UTF-8" standalone="no"?><!-- Generator: Gravit.io --><svg xmlns="http://www.w3.org/2000/svg" xmlns:xlink="http://www.w3.org/1999/xlink" style="isolation:isolate" viewBox="0 0 4000 2200" width="4000pt" height="2200pt"><defs><clipPath id="_clipPath_5Q4ZgU8IKkdAG0VwZ9y7DJZl2I88LHgV"><rect width="4000" height="2200"/></clipPath></defs><g clip-path="url(#_clipPath_5Q4ZgU8IKkdAG0VwZ9y7DJZl2I88LHgV)"><defs><filter id="wzc77QsoFi2agc9x7JvC4RmT9a0hNUvt" x="-200%" y="-200%" width="400%" height="400%" filterUnits="objectBoundingBox" color-interpolation-filters="sRGB"><feGaussianBlur xmlns="http://www.w3.org/2000/svg" in="SourceGraphic" stdDeviation="17.174436251356113"/><feOffset xmlns="http://www.w3.org/2000/svg" dx="0" dy="0" result="pf_100_offsetBlur"/><feFlood xmlns="http://www.w3.org/2000/svg" flood-color="#000000" flood-opacity="0.65"/><feComposite xmlns="http://www.w3.org/2000/svg" in2="pf_100_offsetBlur" operator="in" result="pf_100_dropShadow"/><feBlend xmlns="http://www.w3.org/2000/svg" in="SourceGraphic" in2="pf_100_dropShadow" mode="normal" result="_out_urwxasIlNV6MsM4HGDaWSPJ1RR5rNiWL"/><feGaussianBlur xmlns="http://www.w3.org/2000/svg" in="_out_urwxasIlNV6MsM4HGDaWSPJ1RR5rNiWL" stdDeviation="2.146804531419514"/><feOffset xmlns="http://www.w3.org/2000/svg" dx="0" dy="0" result="pf_101_offsetBlur"/><feFlood xmlns="http://www.w3.org/2000/svg" flood-color="#000000" flood-opacity="0.65"/><feComposite xmlns="http://www.w3.org/2000/svg" in2="pf_101_offsetBlur" operator="in" result="pf_101_dropShadow"/><feBlend xmlns="http://www.w3.org/2000/svg" in="_out_urwxasIlNV6MsM4HGDaWSPJ1RR5rNiWL" in2="pf_101_dropShadow" mode="normal" result="_out_3SCHE6nB5X4a8IrIaBOyjPSexh7IN9vQ"/><feMerge><feMergeNode in="_out_3SCHE6nB5X4a8IrIaBOyjPSexh7IN9vQ"/></feMerge></filter></defs><g filter="url(#wzc77QsoFi2agc9x7JvC4RmT9a0hNUvt)"><clipPath id="_clipPath_A1mUfzuMMK2g2oFJFB8RG7o7OFZQ8QOM"><rect x="0" y="0" width="4000" height="2200" transform="matrix(1,0,0,1,0,0)" fill="rgb(255,255,255)"/></clipPath><g clip-path="url(#_clipPath_A1mUfzuMMK2g2oFJFB8RG7o7OFZQ8QOM)"><g><clipPath id="_clipPath_WPmpbZfxan3czWETIeXZ3AMFbeGcPjEX"><rect x="0" y="0" width="4000" height="2200" transform="matrix(1,0,0,1,0,0)" fill="rgb(255,255,255)"/></clipPath><g clip-path="url(#_clipPath_WPmpbZfxan3czWETIeXZ3AMFbeGcPjEX)"><g><g><path d=" M 0 2200 L 4000 2200 L 4000 0 L 0 0 L 0 2200 Z " fill="none"/><clipPath id="_clipPath_Hq1x4ZJ1iHaetZbARHCNSzbDJtNl1icK"><path d=" M 0 2200 L 4000 2200 L 4000 0 L 0 0 L 0 2200 Z " fill="rgb(255,255,255)"/></clipPath><g clip-path="url(#_clipPath_Hq1x4ZJ1iHaetZbARHCNSzbDJtNl1icK)"><g><g><path d=" M 1939.276 1064.946 L 1929.276 1064.946 L 1929.276 942.319 C 1929.276 917.506 1909.089 897.319 1884.276 897.319 L 1547.139 897.319 L 1485.367 897.319 C 1455.04 897.319 1430.367 872.646 1430.367 842.319 L 1430.367 584.915 L 1440.367 584.915 L 1440.367 842.319 C 1440.367 867.132 1460.554 887.319 1485.367 887.319 L 1884.276 887.319 C 1914.603 887.319 1939.276 911.992 1939.276 942.319 L 1939.276 1064.946 Z " fill="rgb(255,255,255)"/><path d=" M 2103.957 1064.946 L 2093.957 1064.946 L 2093.957 1014.574 C 2093.957 984.247 2118.63 959.574 2148.957 959.574 L 2373.258 959.574 C 2398.071 959.574 2418.258 939.387 2418.258 914.574 L 2418.258 723.307 L 2428.258 723.307 L 2428.258 914.574 C 2428.258 944.902 2403.585 969.574 2373.258 969.574 L 2148.957 969.574 C 2124.144 969.574 2103.957 989.761 2103.957 1014.574 L 2103.957 1064.946 Z " fill="rgb(255,255,255)"/><path d=" M 1519.787 1328.426 L 1220.362 1328.426 C 1190.035 1328.426 1165.362 1303.753 1165.362 1273.426 L 1165.362 573.117 C 1165.362 548.304 1145.175 528.117 1120.362 528.117 L 712.83 528.117 L 712.83 518.117 L 1120.362 518.117 C 1150.689 518.117 1175.362 542.79 1175.362 573.117 L 1175.362 1273.426 C 1175.362 1298.239 1195.549 1318.426 1220.362 1318.426 L 1519.787 1318.426 L 1519.787 1328.426 Z " fill="rgb(255,255,255)"/><path d=" M 1170.362 1016.042 L 999.809 1016.042 L 999.809 1006.042 L 1170.362 1006.042 L 1170.362 1016.042 Z " fill="rgb(255,255,255)"/><path d=" M 1049.383 1570.479 L 740.915 1570.479 L 740.915 1560.479 L 1049.383 1560.479 C 1074.196 1560.479 1094.383 1540.292 1094.383 1515.479 L 1094.383 1488.958 C 1094.383 1458.631 1119.056 1433.958 1149.383 1433.958 L 1519.787 1433.958 L 1519.787 1443.958 L 1149.383 1443.958 C 1124.57 1443.958 1104.383 1464.145 1104.383 1488.958 L 1104.383 1515.479 C 1104.383 1545.806 1079.71 1570.479 1049.383 1570.479 Z " fill="rgb(255,255,255)"/><path d=" M 2599.17 1402.008 L 2480.213 1402.008 L 2480.213 1392.008 L 2599.17 1392.008 C 2623.983 1392.008 2644.17 1371.821 2644.17 1347.008 L 2644.17 931.085 C 2644.17 900.758 2668.843 876.085 2699.17 876.085 L 3367.985 876.085 C 3392.799 876.085 3412.985 855.898 3412.985 831.085 L 3412.985 654.362 L 3422.985 654.362 L 3422.985 831.085 C 3422.985 861.412 3398.313 886.085 3367.985 886.085 L 2699.17 886.085 C 2674.357 886.085 2654.17 906.272 2654.17 931.085 L 2654.17 1347.008 C 2654.17 1377.335 2629.497 1402.008 2599.17 1402.008 Z " fill="rgb(255,255,255)"/><path d=" M 2898.872 1157.495 L 2649.17 1157.495 L 2649.17 1147.495 L 2898.872 1147.495 L 2898.872 1157.495 Z " fill="rgb(255,255,255)"/><path d=" M 3352.83 1638.705 L 3203.681 1638.705 C 3173.353 1638.705 3148.681 1614.032 3148.681 1583.705 L 3148.681 1496.979 C 3148.681 1472.166 3128.494 1451.979 3103.681 1451.979 L 2480.213 1451.979 L 2480.213 1441.979 L 3103.681 1441.979 C 3134.008 1441.979 3158.681 1466.652 3158.681 1496.979 L 3158.681 1583.705 C 3158.681 1608.518 3178.867 1628.705 3203.681 1628.705 L 3352.83 1628.705 L 3352.83 1638.705 Z " fill="rgb(255,255,255)"/><path d=" M 2118.032 1846.849 L 1881.968 1846.849 C 1891.61 1785.578 1901.251 1724.308 1910.893 1663.037 L 2089.106 1663.037 C 2098.748 1724.308 2108.389 1785.578 2118.032 1846.849 Z " fill="rgb(71,96,92)"/><path d=" M 1903.585 1709.481 L 2040.952 1846.849 L 2118.033 1846.849 C 2108.39 1785.579 2098.748 1724.308 2089.106 1663.037 L 1910.894 1663.037 C 1908.457 1678.518 1906.02 1694 1903.585 1709.481 Z " fill="rgb(52,68,66)"/><path d=" M 2477.726 1709.378 C 2159.243 1709.379 1840.759 1709.379 1522.275 1709.378 C 1507.159 1709.377 1494.905 1697.124 1494.905 1682.009 C 1494.905 1477.149 1494.905 1272.293 1494.905 1067.435 C 1494.905 1052.317 1507.159 1040.066 1522.275 1040.065 C 1840.758 1040.066 2159.243 1040.066 2477.726 1040.065 C 2492.842 1040.066 2505.097 1052.316 2505.095 1067.435 C 2505.096 1272.294 2505.096 1477.15 2505.095 1682.009 C 2505.097 1697.125 2492.84 1709.375 2477.726 1709.378 Z " fill="rgb(52,68,66)"/><path d=" M 2480.213 1594.909 L 1519.787 1594.909 L 1519.787 1064.946 L 2480.213 1064.946 L 2480.213 1594.909 Z " fill="rgb(251,251,251)"/><g><path d=" M 2417.005 249.032 L 2411.575 249.032 C 2284.333 249.032 2181.187 352.185 2181.187 479.427 L 2181.187 484.855 C 2181.187 612.096 2284.333 715.246 2411.575 715.246 L 2417.005 715.246 C 2544.247 715.246 2647.405 612.096 2647.405 484.855 L 2647.405 479.427 C 2647.405 352.185 2544.247 249.032 2417.005 249.032 Z " fill="rgb(247,10,2)"/><path d=" M 2574.688 478.65 L 2574.688 478.65 C 2574.437 453.115 2573.099 397.251 2551.716 380.98 C 2530.134 364.567 2414.29 364.567 2414.29 364.567 L 2414.29 367.931 L 2414.29 364.567 C 2414.29 364.567 2298.446 364.567 2276.876 380.98 C 2255.493 397.251 2254.155 453.115 2253.905 478.65 L 2253.905 478.65 L 2253.905 478.989 L 2253.905 479.329 L 2253.905 479.329 C 2254.155 504.864 2255.493 560.728 2276.876 576.998 C 2298.446 593.412 2414.29 593.412 2414.29 593.412 L 2414.29 590.73 L 2414.29 593.412 C 2414.29 593.412 2530.134 593.412 2551.716 576.998 C 2573.099 560.728 2574.437 504.864 2574.688 479.329 L 2574.688 479.329 L 2574.688 478.989 L 2574.688 478.65 Z " fill="rgb(255,255,255)"/><path d=" M 2385.075 427.204 L 2474.77 478.99 L 2385.075 530.776 L 2385.075 427.204 Z " fill="rgb(247,10,2)"/></g><path d=" M 3428.117 176.587 L 3422.24 176.587 C 3284.541 176.587 3172.919 288.214 3172.919 425.914 L 3172.919 431.786 C 3172.919 569.484 3284.541 681.108 3422.24 681.108 L 3428.117 681.108 C 3565.816 681.108 3677.438 569.484 3677.438 431.786 L 3677.438 425.914 C 3677.438 288.214 3565.816 176.587 3428.117 176.587 Z " fill="rgb(0,0,0)"/><path d=" M 3524.804 333.59 C 3506.214 333.59 3491.158 318.529 3491.158 299.948 L 3491.158 299.948 L 3491.158 284.595 L 3435.198 284.595 L 3435.198 394.309 L 3435.198 477.382 L 3435.198 477.384 C 3435.198 495.964 3420.128 511.026 3401.552 511.026 C 3382.961 511.026 3367.905 495.964 3367.905 477.384 C 3367.905 458.803 3382.961 443.74 3401.552 443.74 C 3410.488 443.74 3418.612 447.229 3424.637 452.919 L 3424.637 390.783 C 3417.271 388.823 3409.526 387.778 3401.552 387.778 C 3352.064 387.778 3311.945 427.896 3311.945 477.384 C 3311.945 526.872 3352.064 566.99 3401.552 566.99 C 3451.039 566.99 3491.158 526.872 3491.158 477.384 L 3491.158 477.381 L 3491.158 383.017 C 3501.543 387.228 3512.903 389.554 3524.804 389.554 L 3539.088 389.554 L 3539.508 333.59 L 3524.804 333.59 Z " fill="rgb(255,255,255)"/><path d=" M 2417.005 249.032 L 2411.575 249.032 C 2284.333 249.032 2181.187 352.185 2181.187 479.427 L 2181.187 484.855 C 2181.187 612.096 2284.333 715.246 2411.575 715.246 L 2417.005 715.246 C 2544.247 715.246 2647.405 612.096 2647.405 484.855 L 2647.405 479.427 C 2647.405 352.185 2544.247 249.032 2417.005 249.032 Z " fill="rgb(247,10,2)"/><path d=" M 2574.688 478.65 L 2574.688 478.65 C 2574.437 453.115 2573.099 397.251 2551.716 380.98 C 2530.134 364.567 2414.29 364.567 2414.29 364.567 L 2414.29 367.931 L 2414.29 364.567 C 2414.29 364.567 2298.446 364.567 2276.876 380.98 C 2255.493 397.251 2254.155 453.115 2253.905 478.65 L 2253.905 478.65 L 2253.905 478.989 L 2253.905 479.329 L 2253.905 479.329 C 2254.155 504.864 2255.493 560.728 2276.876 576.998 C 2298.446 593.412 2414.29 593.412 2414.29 593.412 L 2414.29 590.73 L 2414.29 593.412 C 2414.29 593.412 2530.134 593.412 2551.716 576.998 C 2573.099 560.728 2574.437 504.864 2574.688 479.329 L 2574.688 479.329 L 2574.688 478.989 L 2574.688 478.65 Z " fill="rgb(255,255,255)"/><path d=" M 2385.075 427.204 L 2474.77 478.99 L 2385.075 530.776 L 2385.075 427.204 Z " fill="rgb(247,10,2)"/><path d=" M 2120.355 1149.334 L 1954.16 1149.334 L 1954.16 1131.187 L 2070.903 1131.187 L 2120.355 1131.187 L 2120.355 1149.334 Z " fill="rgb(195,190,190)"/><path d=" M 2120.355 1195.375 L 1954.16 1195.375 L 1954.16 1177.228 L 2002.317 1177.228 L 2120.355 1177.228 L 2120.355 1195.375 Z " fill="rgb(195,190,190)"/><path d=" M 1494.905 1619.79 C 1494.905 1640.53 1494.905 1661.269 1494.905 1682.009 C 1494.905 1697.124 1507.159 1709.376 1522.275 1709.378 C 1840.758 1709.379 2159.242 1709.379 2477.726 1709.378 C 2492.842 1709.374 2505.096 1697.125 2505.095 1682.009 C 2505.096 1661.269 2505.096 1640.529 2505.095 1619.79 L 1494.905 1619.79 Z " fill="rgb(52,68,66)"/><path d=" M 2179.769 1848.715 L 1820.231 1848.715 C 1820.231 1836.921 1829.793 1827.359 1841.588 1827.359 L 2158.413 1827.359 C 2170.207 1827.358 2179.769 1836.92 2179.769 1848.715 Z " fill="rgb(52,68,66)"/></g></g></g><g><defs><filter id="Z7pifFKpgJFSEfUzeSiRPJIAwds9WadN" x="-200%" y="-200%" width="400%" height="400%" filterUnits="objectBoundingBox" color-interpolation-filters="sRGB"><feGaussianBlur xmlns="http://www.w3.org/2000/svg" in="SourceGraphic" stdDeviation="2.146804531419514"/><feOffset xmlns="http://www.w3.org/2000/svg" dx="0" dy="0" result="pf_100_offsetBlur"/><feFlood xmlns="http://www.w3.org/2000/svg" flood-color="#000000" flood-opacity="0.65"/><feComposite xmlns="http://www.w3.org/2000/svg" in2="pf_100_offsetBlur" operator="in" result="pf_100_dropShadow"/><feBlend xmlns="http://www.w3.org/2000/svg" in="SourceGraphic" in2="pf_100_dropShadow" mode="normal"/></filter></defs><g filter="url(#Z7pifFKpgJFSEfUzeSiRPJIAwds9WadN)"><path d=" M 3079.7 961.606 L 3075.339 961.606 C 2973.01 961.606 2890.059 1044.557 2890.059 1146.883 L 2890.059 1151.247 C 2890.059 1253.573 2973.01 1336.528 3075.339 1336.528 L 3079.7 1336.528 C 3182.029 1336.528 3264.98 1253.573 3264.98 1151.247 L 3264.98 1146.883 C 3264.98 1044.557 3182.029 961.606 3079.7 961.606 Z " fill="rgb(249,236,6)"/></g><path d=" M 3193.28 1205.703 L 3193.27 1205.702 C 3170.31 1200.351 3153.36 1185.062 3144.72 1164.213 C 3140.84 1154.86 3145.4 1154.899 3151.34 1152.111 C 3154.23 1150.76 3157.3 1149.83 3160.26 1148.631 C 3164.07 1147.086 3168.17 1145.565 3171.32 1142.827 C 3173.37 1141.038 3174.96 1138.532 3175.03 1135.81 C 3175.12 1131.834 3172.4 1126.249 3168.88 1124.404 C 3164.46 1122.091 3156.61 1123.656 3150.06 1125.188 C 3144.79 1126.423 3143.32 1127.224 3144.12 1120.111 C 3145.49 1107.869 3145.63 1098.242 3144.19 1085.972 C 3141.97 1067.119 3131.75 1053.054 3115.91 1043.765 C 3103.31 1036.372 3089.91 1033.524 3077.09 1033.528 C 3076.94 1033.528 3076.78 1033.533 3076.63 1033.534 C 3076.48 1033.533 3076.32 1033.528 3076.17 1033.528 C 3063.35 1033.524 3049.95 1036.372 3037.35 1043.765 C 3021.51 1053.054 3011.29 1067.119 3009.07 1085.972 C 3007.62 1098.242 3007.77 1107.869 3009.14 1120.111 C 3009.94 1127.224 3008.47 1126.423 3003.2 1125.188 C 2996.65 1123.656 2988.8 1122.091 2984.38 1124.404 C 2980.86 1126.249 2978.13 1131.834 2978.23 1135.81 C 2978.3 1138.532 2979.89 1141.038 2981.94 1142.827 C 2985.09 1145.565 2989.18 1147.086 2993 1148.631 C 2995.96 1149.83 2999.03 1150.76 3001.91 1152.111 C 3007.86 1154.899 3012.42 1154.86 3008.54 1164.213 C 2999.9 1185.062 2982.95 1200.351 2959.99 1205.702 L 2959.98 1205.703 C 2948.77 1210.283 2956.81 1218.154 2956.81 1218.154 C 2958.8 1219.935 2961.1 1221.566 2963.81 1222.178 C 2969.44 1223.447 2984.5 1224.841 2989.61 1233.932 C 2993.05 1240.042 2995.3 1249.347 3007.07 1250.006 C 3017.67 1250.029 3022.46 1248.236 3027.49 1247.224 C 3031.52 1246.415 3038.04 1247.489 3042.07 1250.103 C 3042.24 1250.21 3042.38 1250.346 3042.53 1250.47 C 3044.64 1252.172 3046.98 1253.593 3049.26 1255.071 C 3058.69 1261.192 3065.1 1264.354 3074.76 1264.644 L 3074.76 1264.645 L 3074.79 1264.645 C 3075.4 1264.663 3076.01 1264.67 3076.62 1264.664 L 3076.62 1264.626 L 3076.63 1264.626 L 3076.64 1264.626 L 3076.64 1264.664 C 3077.25 1264.67 3077.86 1264.663 3078.47 1264.645 L 3078.5 1264.645 L 3078.5 1264.644 C 3088.16 1264.354 3094.56 1261.192 3104 1255.071 C 3106.28 1253.593 3108.62 1252.172 3110.73 1250.47 C 3110.88 1250.346 3111.02 1250.21 3111.19 1250.103 C 3115.22 1247.489 3121.74 1246.415 3125.77 1247.224 C 3130.8 1248.236 3135.59 1250.029 3146.19 1250.006 C 3157.96 1249.347 3160.21 1240.042 3163.65 1233.932 C 3168.76 1224.841 3183.82 1223.447 3189.44 1222.178 C 3192.15 1221.566 3194.46 1219.935 3196.45 1218.154 C 3196.45 1218.154 3204.48 1210.283 3193.28 1205.703 Z " fill="rgb(255,255,255)"/></g><path d=" M 2417.005 249.032 L 2411.575 249.032 C 2284.333 249.032 2181.187 352.185 2181.187 479.427 L 2181.187 484.855 C 2181.187 612.096 2284.333 715.246 2411.575 715.246 L 2417.005 715.246 C 2544.247 715.246 2647.405 612.096 2647.405 484.855 L 2647.405 479.427 C 2647.405 352.185 2544.247 249.032 2417.005 249.032 Z " fill="rgb(247,10,2)"/><path d=" M 2574.688 478.65 L 2574.688 478.65 C 2574.437 453.115 2573.099 397.251 2551.716 380.98 C 2530.134 364.567 2414.29 364.567 2414.29 364.567 L 2414.29 367.931 L 2414.29 364.567 C 2414.29 364.567 2298.446 364.567 2276.876 380.98 C 2255.493 397.251 2254.155 453.115 2253.905 478.65 L 2253.905 478.65 L 2253.905 478.989 L 2253.905 479.329 L 2253.905 479.329 C 2254.155 504.864 2255.493 560.728 2276.876 576.998 C 2298.446 593.412 2414.29 593.412 2414.29 593.412 L 2414.29 590.73 L 2414.29 593.412 C 2414.29 593.412 2530.134 593.412 2551.716 576.998 C 2573.099 560.728 2574.437 504.864 2574.688 479.329 L 2574.688 479.329 L 2574.688 478.989 L 2574.688 478.65 Z " fill="rgb(255,255,255)"/><path d=" M 2385.075 427.204 L 2474.77 478.99 L 2385.075 530.776 L 2385.075 427.204 Z " fill="rgb(247,10,2)"/><path d=" M 516.172 1326.403 L 510.476 1326.403 C 376.992 1326.403 268.788 1434.61 268.788 1568.094 L 268.788 1573.787 C 268.788 1707.269 376.992 1815.479 510.476 1815.479 L 516.172 1815.479 C 649.655 1815.479 757.86 1707.269 757.86 1573.787 L 757.86 1568.094 C 757.86 1434.61 649.655 1326.403 516.172 1326.403 Z " fill="rgb(14,157,229)"/><path d=" M 667.584 1476.292 C 662.216 1478.753 658.738 1480.184 655.352 1481.605 C 648.474 1484.481 640.507 1487.073 633.157 1488.311 C 636.031 1487.829 639.575 1484.674 642.738 1481.356 C 642.752 1481.344 657.084 1467.472 659.696 1454.376 C 659.827 1453.69 659.106 1453.151 658.476 1453.463 C 647.857 1458.758 642.03 1460.462 640.389 1461.169 C 633.721 1463.799 628.681 1465.309 621.594 1467.079 C 621.594 1467.079 591.786 1427.933 545.415 1445.939 C 526.908 1453.122 515.293 1465.419 508.691 1478.382 C 508.677 1478.395 497.245 1498.369 498.624 1522.606 C 467.294 1517.083 439.363 1507.136 414.662 1490.268 C 413.428 1489.006 404.188 1482.432 401.523 1480.384 C 393.924 1474.101 386.665 1467.056 379.722 1459.15 C 379.578 1458.985 379.447 1458.849 379.316 1458.716 C 376.664 1455.247 375.535 1453.164 375.535 1453.164 C 360.993 1490.039 367.975 1518.448 375.942 1535.334 C 363.185 1533.514 356.556 1530.468 356.556 1530.468 C 368.566 1574.231 396.483 1592.189 412.916 1599.166 C 395.236 1601.219 385.406 1598.097 385.406 1598.097 C 403.637 1642.243 441.253 1644.005 441.253 1644.005 C 414.858 1668.515 357.659 1670.162 356.898 1670.546 C 356.123 1671.025 356.793 1671.7 357.698 1672.434 C 361.282 1674.8 364.93 1676.895 368.645 1678.922 C 379.854 1684.862 391.548 1689.594 403.768 1692.968 C 466.874 1710.398 537.973 1697.591 585.355 1650.507 C 622.565 1613.533 635.612 1562.544 635.612 1511.49 C 635.612 1511.49 665.786 1496.056 668.779 1477.19 C 668.884 1476.524 668.188 1476.011 667.584 1476.292 Z " fill="rgb(255,255,255)"/><g><path d=" M 1984.953 1442.909 L 1983.629 1442.909 C 1952.608 1442.909 1927.462 1467.953 1927.462 1498.847 L 1927.462 1500.165 C 1927.462 1531.059 1952.608 1556.104 1983.629 1556.104 L 1984.953 1556.104 C 2015.974 1556.104 2041.121 1531.059 2041.121 1500.165 L 2041.121 1498.847 C 2041.121 1467.953 2015.974 1442.909 1984.953 1442.909 Z " fill="rgb(14,157,229)"/><path d=" M 2020.141 1477.6 C 2018.893 1478.17 2018.085 1478.501 2017.298 1478.83 C 2015.7 1479.495 2013.848 1480.095 2012.14 1480.382 C 2012.808 1480.27 2013.632 1479.54 2014.367 1478.772 C 2014.37 1478.769 2017.701 1475.559 2018.308 1472.528 C 2018.338 1472.369 2018.17 1472.244 2018.024 1472.316 C 2015.556 1473.542 2014.202 1473.936 2013.821 1474.1 C 2012.271 1474.709 2011.1 1475.058 2009.453 1475.468 C 2009.453 1475.468 2002.526 1466.407 1991.749 1470.575 C 1987.448 1472.237 1984.749 1475.083 1983.215 1478.084 C 1983.211 1478.087 1980.554 1482.71 1980.875 1488.319 C 1973.594 1487.041 1967.103 1484.739 1961.362 1480.835 C 1961.076 1480.543 1958.928 1479.021 1958.309 1478.547 C 1956.543 1477.093 1954.856 1475.462 1953.243 1473.633 C 1953.209 1473.594 1953.179 1473.563 1953.148 1473.532 C 1952.532 1472.729 1952.269 1472.247 1952.269 1472.247 C 1948.89 1480.782 1950.513 1487.357 1952.364 1491.265 C 1949.399 1490.844 1947.859 1490.139 1947.859 1490.139 C 1950.65 1500.268 1957.138 1504.424 1960.957 1506.039 C 1956.848 1506.514 1954.563 1505.791 1954.563 1505.791 C 1958.8 1516.009 1967.542 1516.417 1967.542 1516.417 C 1961.408 1522.089 1948.115 1522.471 1947.938 1522.559 C 1947.758 1522.67 1947.914 1522.826 1948.124 1522.996 C 1948.957 1523.544 1949.805 1524.029 1950.668 1524.498 C 1953.273 1525.873 1955.991 1526.968 1958.831 1527.749 C 1973.496 1531.783 1990.02 1528.819 2001.031 1517.921 C 2009.678 1509.364 2012.711 1497.563 2012.711 1485.746 C 2012.711 1485.746 2019.723 1482.174 2020.418 1477.808 C 2020.443 1477.654 2020.281 1477.535 2020.141 1477.6 Z " fill="rgb(255,255,255)"/></g><path d=" M 3723.459 1638.89 C 3723.459 1535.323 3639.499 1451.366 3535.929 1451.366 C 3432.369 1451.366 3348.409 1535.323 3348.409 1638.89 C 3348.409 1742.456 3432.369 1826.414 3535.929 1826.414 C 3639.499 1826.414 3723.459 1742.456 3723.459 1638.89 Z " fill="rgb(0,118,180)"/><path d=" M 3427.919 1738.966 L 3427.919 1575.458 L 3472.219 1575.458 L 3472.219 1738.966 L 3427.919 1738.966 Z " fill="rgb(255,255,255)"/><path d=" M 3533.729 1592.032 C 3537.769 1587.36 3543.819 1582.948 3551.899 1578.804 C 3559.969 1574.661 3569.749 1572.589 3581.219 1572.589 C 3590.789 1572.589 3599.439 1574.183 3607.199 1577.37 C 3614.949 1580.558 3621.589 1585.02 3627.119 1590.757 C 3632.639 1596.495 3636.889 1603.456 3639.869 1611.634 C 3642.839 1619.816 3644.329 1628.796 3644.329 1638.566 L 3644.329 1738.966 L 3600.349 1738.966 L 3600.349 1646.216 C 3600.349 1636.445 3597.739 1628.526 3592.539 1622.47 C 3587.329 1616.415 3579.949 1613.387 3570.389 1613.387 C 3559.549 1613.387 3550.839 1616.574 3544.249 1622.949 C 3537.659 1629.323 3534.369 1638.248 3534.369 1649.722 L 3534.369 1738.966 L 3490.069 1738.966 L 3490.069 1575.458 L 3533.729 1575.458 L 3533.729 1592.032 Z " fill="rgb(255,255,255)"/><path d=" M 3472.609 1540.028 C 3472.609 1527.581 3462.519 1517.491 3450.069 1517.491 C 3437.619 1517.491 3427.529 1527.581 3427.529 1540.028 C 3427.529 1552.474 3437.619 1562.564 3450.069 1562.564 C 3462.519 1562.564 3472.609 1552.474 3472.609 1540.028 Z " fill="rgb(255,255,255)"/><g><path d=" M 2188.053 1352.151 C 2188.053 1320.755 2162.6 1295.303 2131.203 1295.303 C 2099.808 1295.303 2074.355 1320.755 2074.355 1352.151 C 2074.355 1383.548 2099.808 1409 2131.203 1409 C 2162.6 1409 2188.053 1383.548 2188.053 1352.151 Z " fill="rgb(0,118,180)"/><path d=" M 2098.459 1382.49 L 2098.459 1332.922 L 2111.889 1332.922 L 2111.889 1382.49 L 2098.459 1382.49 Z " fill="rgb(255,255,255)"/><path d=" M 2130.536 1337.946 C 2131.76 1336.53 2133.594 1335.192 2136.044 1333.936 C 2138.49 1332.68 2141.455 1332.052 2144.932 1332.052 C 2147.834 1332.052 2150.456 1332.535 2152.808 1333.501 C 2155.158 1334.468 2157.171 1335.82 2158.847 1337.56 C 2160.521 1339.299 2161.809 1341.409 2162.712 1343.889 C 2163.613 1346.369 2164.064 1349.091 2164.064 1352.053 L 2164.064 1382.49 L 2150.732 1382.49 L 2150.732 1354.372 C 2150.732 1351.41 2149.94 1349.009 2148.364 1347.174 C 2146.785 1345.338 2144.547 1344.42 2141.649 1344.42 C 2138.363 1344.42 2135.723 1345.386 2133.725 1347.319 C 2131.727 1349.251 2130.73 1351.957 2130.73 1355.435 L 2130.73 1382.49 L 2117.3 1382.49 L 2117.3 1332.922 L 2130.536 1332.922 L 2130.536 1337.946 Z " fill="rgb(255,255,255)"/><path d=" M 2112.007 1322.181 C 2112.007 1318.408 2108.948 1315.349 2105.174 1315.349 C 2101.399 1315.349 2098.341 1318.408 2098.341 1322.181 C 2098.341 1325.954 2101.399 1329.013 2105.174 1329.013 C 2108.948 1329.013 2112.007 1325.954 2112.007 1322.181 Z " fill="rgb(255,255,255)"/></g><path d=" M 3031.339 1242.252 C 3036.369 1242.252 3041.799 1243.746 3045.51 1246.147 C 3045.789 1246.333 3046.059 1246.544 3046.319 1246.768 C 3047.88 1248.028 3049.589 1249.125 3051.41 1250.287 L 3052.7 1251.117 C 3061.72 1256.974 3067.2 1259.649 3075.63 1259.934 L 3079.93 1259.919 C 3088.01 1259.567 3093.45 1256.884 3102.349 1251.117 L 3103.64 1250.281 C 3105.45 1249.121 3107.16 1248.025 3108.68 1246.801 C 3108.98 1246.544 3109.25 1246.333 3109.529 1246.147 C 3113.24 1243.746 3118.67 1242.252 3123.7 1242.252 C 3125.099 1242.252 3126.41 1242.373 3127.579 1242.609 C 3128.68 1242.829 3129.769 1243.087 3130.91 1243.355 C 3134.779 1244.264 3139.16 1245.298 3146.88 1245.298 L 3146.94 1245.298 C 3153.569 1244.884 3155.72 1241.152 3158.66 1235.115 C 3159.23 1233.949 3159.819 1232.745 3160.46 1231.608 C 3165.91 1221.923 3178.809 1219.547 3186.51 1218.129 C 3187.589 1217.93 3188.539 1217.758 3189.309 1217.584 C 3190.76 1217.259 3192.289 1216.35 3194.109 1214.732 C 3194.799 1214.005 3195.559 1212.656 3195.44 1212.104 C 3195.39 1211.854 3194.799 1211.035 3192.72 1210.131 C 3169.01 1204.482 3150.75 1188.813 3141.289 1165.971 C 3139.97 1162.796 3138.66 1158.682 3140.18 1155.019 C 3141.67 1151.427 3144.99 1150.061 3147.91 1148.854 C 3148.65 1148.55 3149.44 1148.228 3150.25 1147.845 C 3152.2 1146.93 3154.17 1146.212 3156.079 1145.519 C 3157.19 1145.114 3158.299 1144.71 3159.39 1144.266 L 3160.329 1143.89 C 3163.529 1142.602 3166.839 1141.27 3169.14 1139.268 C 3170.43 1138.147 3171.22 1136.797 3171.24 1135.663 C 3171.299 1133.245 3169.359 1129.436 3167.599 1128.514 C 3167.039 1128.222 3165.93 1127.874 3163.779 1127.874 C 3160.329 1127.874 3156.079 1128.756 3152.019 1129.709 L 3151.119 1129.922 C 3149.42 1130.328 3148.089 1130.648 3146.72 1130.648 C 3144.24 1130.648 3142.73 1129.536 3141.89 1128.603 C 3139.799 1126.264 3139.97 1122.99 3140.359 1119.557 C 3141.75 1107.134 3141.779 1097.862 3140.44 1086.486 C 3138.47 1069.757 3129.72 1056.73 3114.44 1047.766 C 3103.579 1041.399 3091.329 1038.171 3078 1038.171 L 3077.539 1038.178 L 3077.039 1038.171 C 3063.71 1038.171 3051.45 1041.399 3040.599 1047.766 C 3025.319 1056.729 3016.569 1069.757 3014.599 1086.486 C 3013.26 1097.855 3013.289 1107.127 3014.68 1119.557 C 3015.059 1122.989 3015.24 1126.264 3013.15 1128.602 C 3012.309 1129.536 3010.799 1130.648 3008.309 1130.648 C 3006.95 1130.648 3005.609 1130.328 3003.92 1129.922 L 3003.019 1129.709 C 2998.95 1128.756 2994.71 1127.874 2991.26 1127.874 C 2989.109 1127.874 2988 1128.222 2987.44 1128.514 C 2985.68 1129.436 2983.74 1133.245 2983.799 1135.663 C 2983.819 1136.797 2984.609 1138.146 2985.9 1139.269 C 2988.2 1141.27 2991.51 1142.602 2994.71 1143.89 L 2995.65 1144.267 C 2996.74 1144.71 2997.849 1145.114 2998.96 1145.519 C 3000.869 1146.212 3002.829 1146.93 3004.789 1147.845 C 3005.599 1148.228 3006.39 1148.55 3007.13 1148.854 C 3010.049 1150.061 3013.369 1151.427 3014.859 1155.019 C 3016.38 1158.682 3015.069 1162.796 3013.75 1165.971 C 3004.289 1188.814 2986.029 1204.484 2962.329 1210.131 C 2960.24 1211.035 2959.65 1211.854 2959.599 1212.104 C 2959.48 1212.652 2960.22 1213.982 2960.94 1214.743 C 2962.76 1216.354 2964.289 1217.259 2965.73 1217.584 C 2966.5 1217.758 2967.45 1217.93 2968.529 1218.129 C 2976.23 1219.549 2989.13 1221.923 2994.579 1231.608 C 2995.22 1232.745 2995.809 1233.949 2996.369 1235.115 C 2999.319 1241.152 3001.47 1244.884 3008.099 1245.298 L 3008.16 1245.298 C 3015.88 1245.298 3020.26 1244.264 3024.13 1243.355 C 3025.269 1243.087 3026.359 1242.829 3027.46 1242.609 C 3028.63 1242.373 3029.94 1242.252 3031.339 1242.252 Z  M 3077.95 1269.309 L 3077.519 1269.307 L 3077.089 1269.309 C 3076.619 1269.309 3076.14 1269.303 3075.66 1269.289 L 3075.65 1269.289 L 3075.63 1269.289 L 3072.849 1269.26 L 3072.849 1269.129 C 3063.589 1268.333 3056.869 1264.97 3047.609 1258.961 L 3046.359 1258.159 C 3044.41 1256.913 3042.4 1255.624 3040.49 1254.076 L 3040.289 1253.909 C 3038.099 1252.547 3034.45 1251.603 3031.339 1251.603 C 3030.569 1251.603 3029.859 1251.662 3029.299 1251.777 C 3028.299 1251.977 3027.309 1252.212 3026.279 1252.455 C 3022.13 1253.433 3016.97 1254.648 3008.16 1254.648 L 3007.7 1254.641 C 2995.15 1253.941 2990.829 1245.077 2987.97 1239.213 C 2987.44 1238.122 2986.93 1237.09 2986.43 1236.192 C 2983.13 1230.326 2972.93 1228.448 2966.839 1227.325 C 2965.609 1227.101 2964.539 1226.901 2963.68 1226.706 C 2959.609 1225.79 2956.539 1223.357 2954.579 1221.605 L 2954.43 1221.462 C 2953.9 1220.942 2949.269 1216.201 2950.42 1210.309 C 2950.95 1207.624 2952.88 1203.887 2959.099 1201.342 L 2959.819 1201.116 C 2980.69 1196.25 2996.779 1182.498 3005.109 1162.391 C 3006.019 1160.202 3006.18 1159.13 3006.19 1158.71 C 3005.67 1158.367 3004.47 1157.872 3003.559 1157.498 C 3002.7 1157.142 3001.779 1156.76 3000.819 1156.313 C 2999.24 1155.573 2997.549 1154.957 2995.76 1154.305 C 2994.549 1153.862 2993.329 1153.418 2992.13 1152.933 L 2991.22 1152.564 C 2987.48 1151.06 2983.25 1149.357 2979.76 1146.322 C 2976.48 1143.462 2974.539 1139.661 2974.45 1135.893 C 2974.319 1130.607 2977.589 1123.117 2983.099 1120.23 C 2985.289 1119.082 2987.96 1118.524 2991.26 1118.524 C 2995.66 1118.524 3000.539 1119.524 3005.16 1120.604 L 3005.39 1120.661 L 3005.39 1120.599 C 3003.91 1107.401 3003.89 1097.53 3005.319 1085.394 C 3007.609 1065.878 3018.18 1050.077 3035.869 1039.7 C 3048.18 1032.481 3062.029 1028.82 3077.039 1028.82 L 3077.63 1028.825 L 3077.98 1028.82 C 3093.01 1028.82 3106.859 1032.481 3119.17 1039.7 C 3136.859 1050.077 3147.43 1065.878 3149.72 1085.394 C 3151.15 1097.537 3151.13 1107.408 3149.65 1120.6 L 3149.64 1120.661 L 3149.88 1120.604 C 3154.5 1119.524 3159.38 1118.524 3163.779 1118.524 C 3167.069 1118.524 3169.74 1119.082 3171.94 1120.23 C 3177.45 1123.117 3180.72 1130.607 3180.589 1135.892 C 3180.5 1139.66 3178.559 1143.46 3175.279 1146.32 C 3171.789 1149.357 3167.559 1151.06 3163.819 1152.564 L 3162.91 1152.933 C 3161.71 1153.418 3160.49 1153.862 3159.279 1154.305 C 3157.49 1154.957 3155.799 1155.573 3154.22 1156.313 C 3153.26 1156.76 3152.339 1157.142 3151.47 1157.498 C 3150.569 1157.872 3149.369 1158.367 3148.849 1158.71 C 3148.859 1159.13 3149.019 1160.202 3149.93 1162.391 C 3158.26 1182.497 3174.339 1196.25 3195.22 1201.117 L 3195.93 1201.342 C 3202.16 1203.887 3204.089 1207.624 3204.619 1210.311 C 3205.769 1216.202 3201.14 1220.942 3200.609 1221.462 L 3200.46 1221.605 C 3198.5 1223.357 3195.43 1225.79 3191.359 1226.706 C 3190.5 1226.901 3189.43 1227.101 3188.21 1227.324 C 3182.109 1228.448 3171.91 1230.326 3168.609 1236.192 C 3168.099 1237.09 3167.599 1238.122 3167.069 1239.213 C 3164.21 1245.077 3159.89 1253.941 3147.339 1254.641 L 3146.88 1254.648 C 3138.069 1254.648 3132.91 1253.433 3128.76 1252.455 C 3127.73 1252.212 3126.74 1251.977 3125.74 1251.777 C 3125.18 1251.662 3124.47 1251.603 3123.7 1251.603 C 3120.589 1251.603 3116.94 1252.548 3114.75 1253.91 L 3114.559 1254.069 C 3112.64 1255.621 3110.63 1256.908 3108.69 1258.152 L 3107.44 1258.961 C 3098.14 1264.993 3091.4 1268.359 3082.19 1269.135 L 3082.19 1269.224 L 3080.279 1269.257 C 3080.119 1269.265 3079.96 1269.271 3079.799 1269.277 L 3079.619 1269.303 L 3079.309 1269.289 C 3078.93 1269.301 3078.44 1269.309 3077.95 1269.309 Z " fill="rgb(0,0,0)"/><path d=" M 3428.117 176.587 L 3422.24 176.587 C 3284.541 176.587 3172.919 288.214 3172.919 425.914 L 3172.919 431.786 C 3172.919 569.484 3284.541 681.108 3422.24 681.108 L 3428.117 681.108 C 3565.816 681.108 3677.438 569.484 3677.438 431.786 L 3677.438 425.914 C 3677.438 288.214 3565.816 176.587 3428.117 176.587 Z " fill="rgb(0,0,0)"/><path d=" M 3524.804 333.59 C 3506.214 333.59 3491.158 318.529 3491.158 299.948 L 3491.158 299.948 L 3491.158 284.595 L 3435.198 284.595 L 3435.198 394.309 L 3435.198 477.382 L 3435.198 477.384 C 3435.198 495.964 3420.128 511.026 3401.552 511.026 C 3382.961 511.026 3367.905 495.964 3367.905 477.384 C 3367.905 458.803 3382.961 443.74 3401.552 443.74 C 3410.488 443.74 3418.612 447.229 3424.637 452.919 L 3424.637 390.783 C 3417.271 388.823 3409.526 387.778 3401.552 387.778 C 3352.064 387.778 3311.945 427.896 3311.945 477.384 C 3311.945 526.872 3352.064 566.99 3401.552 566.99 C 3451.039 566.99 3491.158 526.872 3491.158 477.384 L 3491.158 477.381 L 3491.158 383.017 C 3501.543 387.228 3512.903 389.554 3524.804 389.554 L 3539.088 389.554 L 3539.508 333.59 L 3524.804 333.59 Z " fill="rgb(255,255,255)"/><g><g><path d=" M 2137.037 1441.126 L 2135.749 1441.126 C 2105.578 1441.126 2081.121 1465.585 2081.121 1495.756 L 2081.121 1497.043 C 2081.121 1527.214 2105.578 1551.672 2135.749 1551.672 L 2137.037 1551.672 C 2167.208 1551.672 2191.668 1527.214 2191.668 1497.043 L 2191.668 1495.756 C 2191.668 1465.585 2167.208 1441.126 2137.037 1441.126 Z " fill="rgb(247,10,2)"/><path d=" M 2176.489 1497.635 L 2176.489 1497.635 C 2176.43 1491.58 2176.112 1478.334 2171.042 1474.476 C 2165.925 1470.584 2138.456 1470.584 2138.456 1470.584 L 2138.456 1471.382 L 2138.456 1470.584 C 2138.456 1470.584 2110.988 1470.584 2105.873 1474.476 C 2100.803 1478.334 2100.486 1491.58 2100.427 1497.635 L 2100.427 1497.635 L 2100.427 1497.715 L 2100.427 1497.796 L 2100.427 1497.796 C 2100.486 1503.85 2100.803 1517.097 2105.873 1520.955 C 2110.988 1524.847 2138.456 1524.847 2138.456 1524.847 L 2138.456 1524.211 L 2138.456 1524.847 C 2138.456 1524.847 2165.925 1524.847 2171.042 1520.955 C 2176.112 1517.097 2176.43 1503.85 2176.489 1497.796 L 2176.489 1497.796 L 2176.489 1497.715 L 2176.489 1497.635 Z " fill="rgb(255,255,255)"/></g><path d=" M 2128.434 1484.92 L 2149.702 1497.2 L 2128.434 1509.479 L 2128.434 1484.92 Z " fill="rgb(247,10,2)"/></g><path d=" M 2417.005 249.032 L 2411.575 249.032 C 2284.333 249.032 2181.187 352.185 2181.187 479.427 L 2181.187 484.855 C 2181.187 612.096 2284.333 715.246 2411.575 715.246 L 2417.005 715.246 C 2544.247 715.246 2647.405 612.096 2647.405 484.855 L 2647.405 479.427 C 2647.405 352.185 2544.247 249.032 2417.005 249.032 Z " fill="rgb(247,10,2)"/><path d=" M 2574.688 478.65 L 2574.688 478.65 C 2574.437 453.115 2573.099 397.251 2551.716 380.98 C 2530.134 364.567 2414.29 364.567 2414.29 364.567 L 2414.29 367.931 L 2414.29 364.567 C 2414.29 364.567 2298.446 364.567 2276.876 380.98 C 2255.493 397.251 2254.155 453.115 2253.905 478.65 L 2253.905 478.65 L 2253.905 478.989 L 2253.905 479.329 L 2253.905 479.329 C 2254.155 504.864 2255.493 560.728 2276.876 576.998 C 2298.446 593.412 2414.29 593.412 2414.29 593.412 L 2414.29 590.73 L 2414.29 593.412 C 2414.29 593.412 2530.134 593.412 2551.716 576.998 C 2573.099 560.728 2574.437 504.864 2574.688 479.329 L 2574.688 479.329 L 2574.688 478.989 L 2574.688 478.65 Z " fill="rgb(255,255,255)"/><path d=" M 2385.075 427.204 L 2474.77 478.99 L 2385.075 530.776 L 2385.075 427.204 Z " fill="rgb(247,10,2)"/><g><path d=" M 815.608 811.976 L 811.271 811.976 C 709.571 811.976 627.127 894.42 627.127 996.12 L 627.127 1000.457 C 627.127 1102.157 709.571 1184.597 811.271 1184.597 L 815.608 1184.597 C 917.308 1184.597 999.752 1102.157 999.752 1000.457 L 999.752 996.12 C 999.752 894.42 917.308 811.976 815.608 811.976 Z " fill="rgb(101,65,165)"/></g><path d=" M 891.174 1022.05 L 865.04 1049.768 L 818.315 1049.768 L 791.389 1071.942 L 790.597 1049.768 L 753.376 1049.768 L 753.376 927.808 L 891.174 927.808 L 891.174 1022.05 Z  M 739.12 913.553 L 722.094 943.251 L 722.094 1079.268 L 763.077 1079.268 L 763.077 1101.294 L 776.441 1101.294 L 787.43 1101.294 L 818.315 1079.268 L 858.111 1079.268 L 871.192 1064.023 L 905.429 1027.71 L 905.429 913.553 L 739.12 913.553 Z " fill="rgb(255,255,255)"/><path d=" M 861.476 1007.423 L 847.221 1007.423 L 847.221 961.094 L 861.476 961.094 L 861.476 1007.423 Z " fill="rgb(255,255,255)"/><path d=" M 824.453 1007.423 L 810.198 1007.423 L 810.198 961.094 L 824.453 961.094 L 824.453 1007.423 Z " fill="rgb(255,255,255)"/><g><clipPath id="_clipPath_oPmcHn6IBVlpVerntJBFSbjhHF7pnKmv"><path d=" M 0 0 L 4000 0 L 4000 2200 L 0 2200 L 0 0 Z " fill="rgb(255,255,255)"/></clipPath><g clip-path="url(#_clipPath_oPmcHn6IBVlpVerntJBFSbjhHF7pnKmv)"><g><g><path d=" M 723.853 523.117 C 723.852 628.994 638.024 714.825 532.145 714.825 C 426.268 714.825 340.437 628.994 340.436 523.117 C 340.437 417.24 426.268 331.409 532.145 331.409 C 638.024 331.409 723.853 417.24 723.853 523.117 Z " fill="rgb(203,239,229)"/><linearGradient id="_lgradient_0" x1="0.5" y1="1" x2="0.5000000000536728" y2="0.000005277773361345162" gradientTransform="matrix(391.261,0,0,391.264,335.739,324.736)" gradientUnits="userSpaceOnUse"><stop offset="0%" stop-opacity="1" style="stop-color:rgb(0,84,212)"/><stop offset="10%" stop-opacity="1" style="stop-color:rgb(0,90,214)"/><stop offset="20%" stop-opacity="1" style="stop-color:rgb(0,95,216)"/><stop offset="30.000000000000004%" stop-opacity="1" style="stop-color:rgb(0,101,218)"/><stop offset="40%" stop-opacity="1" style="stop-color:rgb(0,106,220)"/><stop offset="50%" stop-opacity="1" style="stop-color:rgb(0,112,222)"/><stop offset="60%" stop-opacity="1" style="stop-color:rgb(0,117,225)"/><stop offset="70%" stop-opacity="1" style="stop-color:rgb(0,123,227)"/><stop offset="80%" stop-opacity="1" style="stop-color:rgb(0,128,229)"/><stop offset="89.99999999999999%" stop-opacity="1" style="stop-color:rgb(0,133,231)"/><stop offset="99.99999999999999%" stop-opacity="1" style="stop-color:rgb(0,139,233)"/></linearGradient><path d=" M 533.327 324.736 L 529.413 324.736 C 422.45 324.736 335.739 411.449 335.739 518.412 L 335.739 522.326 C 335.739 629.289 422.45 716 529.413 716 L 533.327 716 C 640.29 716 727 629.289 727 522.326 L 727 518.412 C 727 411.449 640.29 324.736 533.327 324.736 Z " fill="url(#_lgradient_0)"/><path d=" M 640.611 590.873 L 640.611 539 L 579.497 539 L 579.497 496.369 C 579.497 489.415 580.988 483.75 583.968 479.376 C 586.95 475.009 591.319 472.818 597.085 472.818 L 640.611 472.818 L 640.611 414.983 L 595.893 414.983 C 569.658 414.983 550.23 421.793 537.612 435.404 C 524.988 449.02 518.68 469.539 518.68 496.966 L 518.68 539 L 485.887 539 L 485.887 590.873 L 518.68 590.873 L 518.68 715.7 C 522.234 715.894 525.811 716 529.413 716 L 533.327 716 C 549.24 716 564.699 714.067 579.497 710.446 L 579.497 590.873 L 640.611 590.873 Z " fill="rgb(255,255,255)"/><g><linearGradient id="_lgradient_1" x1="0.5" y1="1" x2="0.5000000000536708" y2="0.000034236953922017754" gradientTransform="matrix(110.639,0,0,110.64,1760.496,1300.319)" gradientUnits="userSpaceOnUse"><stop offset="0%" stop-opacity="1" style="stop-color:rgb(0,84,212)"/><stop offset="10%" stop-opacity="1" style="stop-color:rgb(0,90,214)"/><stop offset="20%" stop-opacity="1" style="stop-color:rgb(0,95,216)"/><stop offset="30.000000000000004%" stop-opacity="1" style="stop-color:rgb(0,101,218)"/><stop offset="40%" stop-opacity="1" style="stop-color:rgb(0,106,220)"/><stop offset="50%" stop-opacity="1" style="stop-color:rgb(0,112,222)"/><stop offset="60%" stop-opacity="1" style="stop-color:rgb(0,117,225)"/><stop offset="70%" stop-opacity="1" style="stop-color:rgb(0,123,227)"/><stop offset="80%" stop-opacity="1" style="stop-color:rgb(0,128,229)"/><stop offset="89.99999999999999%" stop-opacity="1" style="stop-color:rgb(0,133,231)"/><stop offset="99.99999999999999%" stop-opacity="1" style="stop-color:rgb(0,139,233)"/></linearGradient><path d=" M 1816.369 1300.319 L 1815.262 1300.319 C 1785.015 1300.319 1760.496 1324.839 1760.496 1355.086 L 1760.496 1356.192 C 1760.496 1386.439 1785.015 1410.959 1815.262 1410.959 L 1816.369 1410.959 C 1846.615 1410.959 1871.135 1386.439 1871.135 1356.192 L 1871.135 1355.086 C 1871.135 1324.839 1846.615 1300.319 1816.369 1300.319 Z " fill="url(#_lgradient_1)"/><path d=" M 1846.706 1375.576 L 1846.706 1360.907 L 1829.425 1360.907 L 1829.425 1348.852 C 1829.425 1346.886 1829.846 1345.284 1830.689 1344.047 C 1831.532 1342.812 1832.768 1342.193 1834.398 1342.193 L 1846.706 1342.193 L 1846.706 1325.838 L 1834.061 1325.838 C 1826.642 1325.838 1821.149 1327.764 1817.581 1331.613 C 1814.011 1335.463 1812.227 1341.266 1812.227 1349.021 L 1812.227 1360.907 L 1802.954 1360.907 L 1802.954 1375.576 L 1812.227 1375.576 L 1812.227 1410.874 C 1813.232 1410.929 1814.243 1410.959 1815.262 1410.959 L 1816.369 1410.959 C 1820.869 1410.959 1825.24 1410.412 1829.425 1409.388 L 1829.425 1375.576 L 1846.706 1375.576 Z " fill="rgb(255,255,255)"/></g></g></g></g></g><clipPath id="_clipPath_1jdVOfFWP1L64KhQiBiAxFcuXJj9a3aW"><path d=" M 0 0 L 4000 0 L 4000 2200 L 0 2200 L 0 0 Z " fill="rgb(255,255,255)"/></clipPath><g clip-path="url(#_clipPath_1jdVOfFWP1L64KhQiBiAxFcuXJj9a3aW)"><g><g><path d=" M 1672.974 377.589 C 1672.973 508.816 1566.596 615.196 1435.367 615.196 C 1304.141 615.196 1197.761 508.816 1197.76 377.589 C 1197.762 246.362 1304.141 139.982 1435.367 139.982 C 1566.596 139.982 1672.974 246.362 1672.974 377.589 Z " fill="rgb(203,239,229)"/><clipPath id="_clipPath_WCpuGGiirV0mAqUmdeeA5mz19pyvnvW5"><path d=" M 1438.639 136 L 1431.366 136 C 1300.272 136 1194 241.828 1194 372.378 L 1194 379.618 C 1194 510.169 1300.272 616 1431.366 616 L 1438.639 616 C 1569.733 616 1676 510.169 1676 379.618 L 1676 372.378 C 1676 241.828 1569.733 136 1438.639 136 Z " fill="rgb(255,255,255)"/></clipPath><g clip-path="url(#_clipPath_WCpuGGiirV0mAqUmdeeA5mz19pyvnvW5)"><g><g><linearGradient id="_lgradient_2" x1="0.14423809779399877" y1="0.8557626763851839" x2="0.8557726370028446" y2="0.15012452483712324" gradientTransform="matrix(482,0,0,480,1194,136)" gradientUnits="userSpaceOnUse"><stop offset="0%" stop-opacity="1" style="stop-color:rgb(251,219,108)"/><stop offset="10%" stop-opacity="1" style="stop-color:rgb(252,189,80)"/><stop offset="20%" stop-opacity="1" style="stop-color:rgb(250,138,76)"/><stop offset="30.000000000000004%" stop-opacity="1" style="stop-color:rgb(244,80,90)"/><stop offset="40%" stop-opacity="1" style="stop-color:rgb(227,65,118)"/><stop offset="50%" stop-opacity="1" style="stop-color:rgb(208,54,143)"/><stop offset="60%" stop-opacity="1" style="stop-color:rgb(183,55,163)"/><stop offset="70%" stop-opacity="1" style="stop-color:rgb(159,56,184)"/><stop offset="80%" stop-opacity="1" style="stop-color:rgb(134,57,204)"/><stop offset="89.99999999999999%" stop-opacity="1" style="stop-color:rgb(101,74,227)"/><stop offset="99.99999999999999%" stop-opacity="1" style="stop-color:rgb(92,79,233)"/></linearGradient><path d=" M 1438.639 136 L 1431.366 136 C 1300.272 136 1194 241.828 1194 372.378 L 1194 379.618 C 1194 510.169 1300.272 616 1431.366 616 L 1438.639 616 C 1569.733 616 1676 510.169 1676 379.618 L 1676 372.378 C 1676 241.828 1569.733 136 1438.639 136 Z " fill="url(#_lgradient_2)"/></g></g></g><path d=" M 1497.432 288.034 C 1488.382 288.034 1481.021 295.395 1481.021 304.444 C 1481.021 313.494 1488.382 320.856 1497.432 320.856 C 1506.48 320.856 1513.843 313.494 1513.843 304.444 C 1513.843 295.395 1506.48 288.034 1497.432 288.034 Z " fill="rgb(255,255,255)"/><path d=" M 1425.972 417.176 C 1403.546 417.176 1385.3 398.931 1385.3 376.504 C 1385.3 354.078 1403.546 335.832 1425.972 335.832 C 1448.399 335.832 1466.644 354.078 1466.644 376.504 C 1466.644 398.931 1448.399 417.176 1425.972 417.176 Z  M 1425.972 311.297 C 1390.017 311.297 1360.765 340.548 1360.765 376.504 C 1360.765 412.458 1390.017 441.711 1425.972 441.711 C 1461.927 441.711 1491.179 412.458 1491.179 376.504 C 1491.179 340.548 1461.927 311.297 1425.972 311.297 Z " fill="rgb(255,255,255)"/><g><g><path d=" M 1357.372 492.295 C 1335.875 492.295 1318.387 474.879 1318.387 453.472 L 1318.387 298.855 C 1318.387 277.449 1335.875 260.033 1357.372 260.033 L 1512.628 260.033 C 1534.127 260.033 1551.617 277.45 1551.617 298.859 L 1551.617 453.472 C 1551.617 474.879 1534.128 492.295 1512.632 492.295 L 1357.372 492.295 Z  M 1512.628 232.329 L 1357.372 232.329 C 1320.537 232.329 1290.569 262.174 1290.569 298.855 L 1290.569 453.472 C 1290.569 490.154 1320.537 519.997 1357.372 519.997 L 1512.633 519.997 C 1549.468 519.997 1579.436 490.154 1579.436 453.472 L 1579.436 298.861 C 1579.436 262.175 1549.466 232.329 1512.628 232.329 Z " fill="rgb(255,255,255)"/></g></g></g></g></g><path d=" M 0 0 L 4000 0 L 4000 2200 L 0 2200 L 0 0 Z " fill="none"/><g><path d=" M 1982.666 1301.154 L 1981.365 1301.154 C 1950.838 1301.154 1926.092 1325.899 1926.092 1356.425 L 1926.092 1357.727 C 1926.092 1388.253 1950.838 1413 1981.365 1413 L 1982.666 1413 C 2013.193 1413 2037.938 1388.253 2037.938 1357.727 L 2037.938 1356.425 C 2037.938 1325.899 2013.193 1301.154 1982.666 1301.154 Z " fill="rgb(249,236,6)"/><path d=" M 2016.549 1373.972 L 2016.546 1373.972 C 2009.697 1372.376 2004.64 1367.815 2002.063 1361.595 C 2000.905 1358.805 2002.265 1358.817 2004.037 1357.985 C 2004.9 1357.582 2005.815 1357.304 2006.698 1356.947 C 2007.835 1356.486 2009.058 1356.032 2009.998 1355.215 C 2010.609 1354.682 2011.084 1353.934 2011.105 1353.122 C 2011.131 1351.936 2010.32 1350.27 2009.27 1349.719 C 2007.951 1349.029 2005.61 1349.496 2003.656 1349.953 C 2002.083 1350.322 2001.645 1350.561 2001.884 1348.439 C 2002.292 1344.787 2002.334 1341.915 2001.904 1338.254 C 2001.242 1332.63 1998.193 1328.434 1993.468 1325.663 C 1989.709 1323.458 1985.712 1322.608 1981.887 1322.609 C 1981.842 1322.609 1981.795 1322.611 1981.75 1322.611 C 1981.705 1322.611 1981.658 1322.609 1981.613 1322.609 C 1977.788 1322.608 1973.791 1323.458 1970.032 1325.663 C 1965.307 1328.434 1962.258 1332.63 1961.596 1338.254 C 1961.163 1341.915 1961.208 1344.787 1961.616 1348.439 C 1961.855 1350.561 1961.417 1350.322 1959.844 1349.953 C 1957.89 1349.496 1955.549 1349.029 1954.23 1349.719 C 1953.18 1350.27 1952.366 1351.936 1952.395 1353.122 C 1952.416 1353.934 1952.891 1354.682 1953.502 1355.215 C 1954.442 1356.032 1955.662 1356.486 1956.802 1356.947 C 1957.685 1357.304 1958.6 1357.582 1959.46 1357.985 C 1961.235 1358.817 1962.595 1358.805 1961.437 1361.595 C 1958.86 1367.815 1953.803 1372.376 1946.954 1373.972 L 1946.951 1373.972 C 1943.607 1375.339 1946.005 1377.687 1946.005 1377.687 C 1946.599 1378.218 1947.285 1378.705 1948.094 1378.887 C 1949.773 1379.266 1954.266 1379.682 1955.79 1382.394 C 1956.816 1384.216 1957.488 1386.992 1960.999 1387.189 C 1964.161 1387.196 1965.59 1386.661 1967.091 1386.359 C 1968.293 1386.118 1970.238 1386.438 1971.44 1387.218 C 1971.491 1387.25 1971.533 1387.29 1971.577 1387.327 C 1972.207 1387.835 1972.905 1388.259 1973.585 1388.7 C 1976.398 1390.526 1978.31 1391.469 1981.192 1391.556 L 1981.192 1391.556 L 1981.201 1391.556 C 1981.383 1391.561 1981.565 1391.563 1981.747 1391.562 L 1981.747 1391.55 L 1981.75 1391.55 L 1981.753 1391.55 L 1981.753 1391.562 C 1981.935 1391.563 1982.117 1391.561 1982.299 1391.556 L 1982.308 1391.556 L 1982.308 1391.556 C 1985.19 1391.469 1987.099 1390.526 1989.915 1388.7 C 1990.595 1388.259 1991.293 1387.835 1991.923 1387.327 C 1991.967 1387.29 1992.009 1387.25 1992.06 1387.218 C 1993.262 1386.438 1995.207 1386.118 1996.409 1386.359 C 1997.91 1386.661 1999.339 1387.196 2002.501 1387.189 C 2006.012 1386.992 2006.684 1384.216 2007.71 1382.394 C 2009.234 1379.682 2013.727 1379.266 2015.403 1378.887 C 2016.212 1378.705 2016.901 1378.218 2017.495 1377.687 C 2017.495 1377.687 2019.89 1375.339 2016.549 1373.972 Z " fill="rgb(255,255,255)"/></g></g></g></g><path d=" M 1908.151 1172.35 C 1908.151 1215.235 1866.723 1250 1815.616 1250 C 1764.51 1250 1723.08 1215.235 1723.08 1172.35 C 1723.081 1129.465 1764.51 1094.7 1815.616 1094.7 C 1866.723 1094.7 1908.151 1129.465 1908.151 1172.35 Z " fill="rgb(203,239,229)"/><clipPath id="_clipPath_t7Ims1LEAiLIPj8St3o7PXCuvrvxuM9v"><path d=" M 1729.19 1167.629 C 1729.191 1215.945 1768.359 1255.114 1816.674 1255.114 L 1816.674 1255.114 C 1864.991 1255.114 1904.158 1215.945 1904.159 1167.629 L 1904.159 1167.629 C 1904.158 1119.313 1864.991 1080.146 1816.674 1080.146 L 1816.674 1080.146 C 1768.359 1080.145 1729.191 1119.313 1729.19 1167.629 Z " fill="rgb(255,255,255)"/></clipPath><g clip-path="url(#_clipPath_t7Ims1LEAiLIPj8St3o7PXCuvrvxuM9v)"><g><path d=" M 1885.123 1225.764 C 1884.679 1220.417 1884.212 1214.972 1882.128 1210.014 C 1880.045 1205.055 1876.047 1200.574 1870.754 1199.25 C 1870.197 1199.11 1869.141 1198.829 1867.703 1198.438 C 1865.59 1197.77 1863.431 1197.227 1861.328 1196.688 C 1846.511 1192.592 1820.237 1185.209 1820.237 1185.209 C 1820.228 1185.22 1820.217 1185.232 1820.207 1185.243 C 1820.172 1185.232 1820.136 1185.221 1820.101 1185.209 C 1819.433 1185.988 1818.248 1186.716 1816.674 1187.4 C 1815.1 1186.716 1813.916 1185.988 1813.248 1185.209 C 1813.213 1185.221 1813.177 1185.232 1813.142 1185.243 C 1813.132 1185.232 1813.121 1185.22 1813.112 1185.209 C 1813.112 1185.209 1786.838 1192.592 1772.021 1196.688 C 1769.917 1197.227 1767.758 1197.77 1765.646 1198.438 C 1764.208 1198.829 1763.151 1199.11 1762.595 1199.25 C 1757.302 1200.574 1753.304 1205.055 1751.22 1210.014 C 1749.137 1214.972 1748.669 1220.417 1748.225 1225.764 C 1747.101 1239.3 1745.978 1252.836 1744.853 1266.373 L 1766.205 1266.373 L 1766.341 1266.373 L 1771.838 1266.373 L 1773.62 1266.373 L 1814.075 1266.373 L 1819.274 1266.373 L 1859.729 1266.373 L 1861.51 1266.373 L 1867.007 1266.373 L 1867.144 1266.373 L 1888.495 1266.373 C 1887.371 1252.836 1886.247 1239.3 1885.123 1225.764 Z " fill="rgb(239,109,83)"/><path d=" M 1832.559 1188.666 L 1832.487 1188.725 C 1823.252 1196.21 1810.03 1196.181 1800.828 1188.655 L 1800.828 1188.655 C 1801.288 1181.162 1801.749 1173.67 1802.211 1166.178 C 1807.035 1164.279 1811.861 1162.379 1816.687 1160.478 L 1816.687 1160.462 C 1821.516 1162.365 1826.345 1164.266 1831.174 1166.168 C 1831.636 1173.667 1832.097 1181.168 1832.559 1188.666 Z " fill="rgb(241,148,125)"/><path d=" M 1802.102 1167.949 C 1810.057 1177.323 1820.762 1183.992 1832.497 1187.659 C 1832.057 1180.495 1831.615 1173.331 1831.174 1166.168 C 1826.346 1164.266 1821.516 1162.365 1816.687 1160.463 L 1816.687 1160.478 C 1811.862 1162.378 1807.036 1164.278 1802.211 1166.178 L 1802.102 1167.949 Z " fill="rgb(221,103,83)"/><path d=" M 1843.516 1121.815 C 1843.008 1115.768 1840.4 1109.635 1835.75 1105.554 C 1830.578 1101.016 1823.371 1100.342 1816.756 1100.248 C 1811.377 1100.171 1805.859 1100.943 1800.923 1103.168 C 1793.667 1106.439 1790.434 1114.276 1789.8 1121.815 C 1789.249 1128.364 1790.493 1134.916 1791.732 1141.37 C 1791.732 1141.37 1816.628 1143.009 1816.628 1143.013 C 1816.638 1143.012 1816.648 1143.012 1816.658 1143.011 C 1816.657 1143.011 1816.688 1143.013 1816.687 1143.009 C 1824.986 1142.463 1833.285 1141.916 1841.584 1141.37 C 1842.822 1134.916 1844.067 1128.364 1843.516 1121.815 Z " fill="rgb(61,53,53)"/><path d=" M 1838.005 1126.73 C 1835.504 1118.849 1830.265 1113.047 1824.488 1111.76 C 1823.773 1111.601 1823.052 1111.514 1822.329 1111.503 C 1820.408 1111.472 1812.967 1111.472 1811.045 1111.503 C 1810.323 1111.514 1809.601 1111.601 1808.887 1111.76 C 1803.11 1113.047 1797.871 1118.849 1795.369 1126.73 C 1793.253 1133.396 1793.075 1141.112 1793.787 1148.412 C 1794.391 1154.613 1795.289 1157.153 1797.961 1161.986 C 1800.914 1167.331 1804.875 1171.319 1809.088 1174.129 C 1810.989 1175.397 1822.386 1175.397 1824.286 1174.129 C 1828.498 1171.318 1832.46 1167.331 1835.414 1161.986 C 1838.085 1157.153 1838.983 1154.613 1839.588 1148.412 C 1840.3 1141.112 1840.121 1133.396 1838.005 1126.73 Z " fill="rgb(241,148,125)"/><path d=" M 1794.739 1137.937 C 1794.647 1136.61 1794.074 1135.421 1793.201 1134.776 C 1792.473 1134.237 1791.709 1133.797 1790.893 1133.504 C 1789.546 1133.02 1787.966 1133.257 1786.981 1134.575 C 1785.883 1136.043 1785.808 1138.406 1786.153 1140.428 C 1786.881 1144.7 1789.13 1148.317 1791.74 1150.916 C 1792.209 1151.383 1792.798 1151.612 1793.377 1151.492 C 1794.829 1151.194 1795.033 1149.166 1795.042 1147.507 C 1795.061 1144.313 1794.959 1141.117 1794.739 1137.937 Z " fill="rgb(241,148,125)"/><path d=" M 1838.61 1137.937 C 1838.702 1136.61 1839.275 1135.421 1840.148 1134.776 C 1840.876 1134.237 1841.64 1133.797 1842.456 1133.504 C 1843.802 1133.02 1845.383 1133.257 1846.368 1134.575 C 1847.465 1136.043 1847.541 1138.406 1847.196 1140.428 C 1846.468 1144.7 1844.22 1148.317 1841.609 1150.916 C 1841.14 1151.383 1840.551 1151.612 1839.972 1151.492 C 1838.52 1151.194 1838.316 1149.166 1838.307 1147.507 C 1838.288 1144.313 1838.39 1141.117 1838.61 1137.937 Z " fill="rgb(241,148,125)"/><path d=" M 1771.56 1266.373 C 1772.623 1256.408 1771.964 1246.284 1769.633 1236.965 C 1769.186 1235.168 1768.675 1233.404 1768.104 1231.674 C 1768.008 1234.43 1767.913 1237.185 1767.817 1239.938 C 1767.781 1240.97 1767.747 1242 1767.71 1243.029 L 1767.663 1266.373 L 1771.56 1266.373 Z " fill="rgb(224,86,63)"/><path d=" M 1861.788 1266.373 C 1860.726 1256.408 1861.385 1246.284 1863.715 1236.965 C 1864.163 1235.168 1864.674 1233.404 1865.245 1231.674 C 1865.34 1234.43 1865.436 1237.185 1865.531 1239.938 C 1865.568 1240.97 1865.602 1242 1865.639 1243.029 L 1865.685 1266.373 L 1861.788 1266.373 Z " fill="rgb(224,86,63)"/><path d=" M 1789.664 1121.545 C 1792.148 1113.559 1793.628 1106.861 1801.351 1102.188 C 1809.031 1097.541 1819.264 1098.145 1827.119 1102.021 C 1829.125 1103.01 1839.084 1108.267 1834.821 1111.163 C 1834.667 1111.267 1834.487 1111.362 1834.28 1111.446 C 1833.446 1111.785 1832.569 1112.977 1833.168 1114.112 C 1834.049 1115.78 1832.953 1117.856 1831.502 1119.06 C 1829.396 1120.808 1826.578 1121.535 1823.841 1121.509 C 1821.104 1121.484 1818.42 1120.76 1815.83 1119.876 C 1813.666 1119.137 1811.298 1118.279 1809.166 1119.104 C 1806.769 1120.032 1805.632 1122.689 1803.98 1124.659 C 1800.812 1128.436 1795.019 1129.719 1790.552 1127.633 C 1790.939 1126.878 1790.713 1121.912 1789.664 1121.545 Z " fill="rgb(61,53,53)"/><path d=" M 1843.672 1122.395 C 1843.663 1122.194 1843.651 1121.994 1843.649 1121.793 C 1843.635 1120.174 1843.502 1118.553 1843.261 1116.952 C 1842.562 1112.308 1840.906 1107.711 1837.897 1104.053 C 1833.387 1098.57 1826.544 1096.591 1819.679 1096.167 C 1817.595 1096.038 1815.51 1096.053 1813.487 1096.156 C 1808.238 1096.424 1802.91 1097.634 1798.672 1100.898 C 1794.887 1103.809 1792.385 1108.01 1791.03 1112.543 C 1790.139 1115.525 1789.689 1118.66 1789.666 1121.775 L 1789.665 1121.775 L 1789.664 1125.049 C 1789.928 1125.045 1790.163 1125.216 1790.237 1125.469 C 1791.086 1128.354 1792.689 1133.75 1792.856 1133.9 C 1793.985 1127.573 1797.309 1121.884 1802.788 1118.402 C 1810.301 1113.628 1820.812 1113.335 1828.718 1117.371 C 1829.825 1117.936 1830.885 1118.593 1831.882 1119.335 C 1833.961 1120.884 1835.746 1122.807 1837.129 1125 C 1837.933 1126.276 1838.6 1127.636 1839.135 1129.046 C 1839.43 1129.822 1839.684 1130.613 1839.902 1131.415 C 1839.981 1131.703 1840.609 1133.589 1840.475 1133.876 C 1840.7 1133.48 1842.112 1128.748 1842.959 1125.874 L 1843.641 1126.016 C 1843.642 1125.967 1843.642 1125.918 1843.643 1125.869 C 1843.645 1125.742 1843.647 1125.615 1843.65 1125.487 C 1843.652 1125.311 1843.656 1125.135 1843.658 1124.959 L 1843.668 1124.371 C 1843.671 1124.185 1843.674 1123.998 1843.677 1123.812 C 1843.68 1123.664 1843.682 1123.517 1843.685 1123.369 C 1843.686 1123.279 1843.687 1123.19 1843.688 1123.1 C 1843.688 1122.865 1843.683 1122.63 1843.672 1122.395 Z " fill="rgb(61,53,53)"/><path d=" M 1816.927 1165.235 C 1821.162 1165.235 1824.595 1161.801 1824.595 1157.566 L 1809.258 1157.566 C 1809.258 1161.801 1812.692 1165.235 1816.927 1165.235 Z " fill="rgb(255,255,255)"/></g></g><g><g><path d=" M 1820.92 1444.567 L 1819.605 1444.567 C 1788.802 1444.567 1763.832 1469.538 1763.832 1500.341 L 1763.832 1501.655 C 1763.832 1532.457 1788.802 1557.427 1819.605 1557.427 L 1820.92 1557.427 C 1851.723 1557.427 1876.692 1532.457 1876.692 1501.655 L 1876.692 1500.341 C 1876.692 1469.538 1851.723 1444.567 1820.92 1444.567 Z " fill="rgb(0,0,0)"/><path d=" M 1842.548 1479.688 C 1838.39 1479.688 1835.022 1476.319 1835.022 1472.163 L 1835.022 1472.163 L 1835.022 1468.728 L 1822.504 1468.728 L 1822.504 1493.271 L 1822.504 1511.854 L 1822.504 1511.855 C 1822.504 1516.011 1819.132 1519.38 1814.977 1519.38 C 1810.818 1519.38 1807.45 1516.011 1807.45 1511.855 C 1807.45 1507.698 1810.818 1504.329 1814.977 1504.329 C 1816.976 1504.329 1818.793 1505.109 1820.141 1506.382 L 1820.141 1492.482 C 1818.493 1492.044 1816.761 1491.81 1814.977 1491.81 C 1803.907 1491.81 1794.932 1500.784 1794.932 1511.855 C 1794.932 1522.925 1803.907 1531.899 1814.977 1531.899 C 1826.047 1531.899 1835.022 1522.925 1835.022 1511.855 L 1835.022 1511.854 L 1835.022 1490.745 C 1837.345 1491.687 1839.886 1492.207 1842.548 1492.207 L 1845.744 1492.207 L 1845.838 1479.688 L 1842.548 1479.688 Z " fill="rgb(255,255,255)"/></g></g></g></g></g></g></svg>