<?xml version="1.0" encoding="UTF-8" standalone="no"?><!-- Generator: Gravit.io --><svg xmlns="http://www.w3.org/2000/svg" xmlns:xlink="http://www.w3.org/1999/xlink" style="isolation:isolate" viewBox="0 0 500 500" width="500pt" height="500pt"><defs><clipPath id="_clipPath_KRYwQkZMRqyW6kvfbqPFjSRdFTZncSF4"><rect width="500" height="500"/></clipPath></defs><g clip-path="url(#_clipPath_KRYwQkZMRqyW6kvfbqPFjSRdFTZncSF4)"><defs><filter id="qeMat0i8P7ZhhlqfgLLuVy2mFDIgz1e0" x="-200%" y="-200%" width="400%" height="400%" filterUnits="objectBoundingBox" color-interpolation-filters="sRGB"><feGaussianBlur xmlns="http://www.w3.org/2000/svg" in="SourceGraphic" stdDeviation="2.146804531419514"/><feOffset xmlns="http://www.w3.org/2000/svg" dx="0" dy="0" result="pf_100_offsetBlur"/><feFlood xmlns="http://www.w3.org/2000/svg" flood-color="#000000" flood-opacity="0.65"/><feComposite xmlns="http://www.w3.org/2000/svg" in2="pf_100_offsetBlur" operator="in" result="pf_100_dropShadow"/><feBlend xmlns="http://www.w3.org/2000/svg" in="SourceGraphic" in2="pf_100_dropShadow" mode="normal"/></filter></defs><g filter="url(#qeMat0i8P7ZhhlqfgLLuVy2mFDIgz1e0)"><path d=" M 217.747 190.765 L 140.248 109.542 L 145.664 104.374 L 223.163 185.598 L 217.747 190.765 Z " fill="rgb(247,10,2)"/></g><defs><filter id="UwjxP8gHrj1nU7PFppaoix4DRtXCVZeM" x="-200%" y="-200%" width="400%" height="400%" filterUnits="objectBoundingBox" color-interpolation-filters="sRGB"><feGaussianBlur xmlns="http://www.w3.org/2000/svg" in="SourceGraphic" stdDeviation="2.146804531419514"/><feOffset xmlns="http://www.w3.org/2000/svg" dx="0" dy="0" result="pf_100_offsetBlur"/><feFlood xmlns="http://www.w3.org/2000/svg" flood-color="#000000" flood-opacity="0.65"/><feComposite xmlns="http://www.w3.org/2000/svg" in2="pf_100_offsetBlur" operator="in" result="pf_100_dropShadow"/><feBlend xmlns="http://www.w3.org/2000/svg" in="SourceGraphic" in2="pf_100_dropShadow" mode="normal"/></filter></defs><g filter="url(#UwjxP8gHrj1nU7PFppaoix4DRtXCVZeM)"><path d=" M 279.078 183.952 L 352.143 98.719 L 357.827 103.59 L 284.761 188.824 L 279.078 183.952 Z " fill="rgb(0,0,0)"/></g><defs><filter id="F2SDYYdV2pwcSLNfoJu4vuCTHjWcRCOT" x="-200%" y="-200%" width="400%" height="400%" filterUnits="objectBoundingBox" color-interpolation-filters="sRGB"><feGaussianBlur xmlns="http://www.w3.org/2000/svg" in="SourceGraphic" stdDeviation="2.146804531419514"/><feOffset xmlns="http://www.w3.org/2000/svg" dx="0" dy="0" result="pf_100_offsetBlur"/><feFlood xmlns="http://www.w3.org/2000/svg" flood-color="#000000" flood-opacity="0.65"/><feComposite xmlns="http://www.w3.org/2000/svg" in2="pf_100_offsetBlur" operator="in" result="pf_100_dropShadow"/><feBlend xmlns="http://www.w3.org/2000/svg" in="SourceGraphic" in2="pf_100_dropShadow" mode="normal"/></filter></defs><g filter="url(#F2SDYYdV2pwcSLNfoJu4vuCTHjWcRCOT)"><path d=" M 391.971 389.758 L 312.588 310.376 L 317.881 305.082 L 397.264 384.465 L 391.971 389.758 Z " fill="rgb(14,157,229)"/></g><defs><filter id="mZsTO5kmtsIYzLBZMQUEidTPXShy2jWs" x="-200%" y="-200%" width="400%" height="400%" filterUnits="objectBoundingBox" color-interpolation-filters="sRGB"><feGaussianBlur xmlns="http://www.w3.org/2000/svg" in="SourceGraphic" stdDeviation="2.146804531419514"/><feOffset xmlns="http://www.w3.org/2000/svg" dx="0" dy="0" result="pf_100_offsetBlur"/><feFlood xmlns="http://www.w3.org/2000/svg" flood-color="#000000" flood-opacity="0.65"/><feComposite xmlns="http://www.w3.org/2000/svg" in2="pf_100_offsetBlur" operator="in" result="pf_100_dropShadow"/><feBlend xmlns="http://www.w3.org/2000/svg" in="SourceGraphic" in2="pf_100_dropShadow" mode="normal"/></filter></defs><g filter="url(#mZsTO5kmtsIYzLBZMQUEidTPXShy2jWs)"><path d=" M 406.623 357.147 L 405.452 357.147 C 377.991 357.147 355.732 379.407 355.732 406.868 L 355.732 408.039 C 355.732 435.498 377.991 457.759 405.452 457.759 L 406.623 457.759 C 434.083 457.759 456.343 435.498 456.343 408.039 L 456.343 406.868 C 456.343 379.407 434.083 357.147 406.623 357.147 Z " fill="rgb(14,157,229)"/></g><defs><filter id="HBJqoYVEMs69tCmjBpgwRdN8Nh8XQ1po" x="-200%" y="-200%" width="400%" height="400%" filterUnits="objectBoundingBox" color-interpolation-filters="sRGB"><feGaussianBlur xmlns="http://www.w3.org/2000/svg" in="SourceGraphic" stdDeviation="2.146804531419514"/><feOffset xmlns="http://www.w3.org/2000/svg" dx="0" dy="0" result="pf_100_offsetBlur"/><feFlood xmlns="http://www.w3.org/2000/svg" flood-color="#000000" flood-opacity="0.65"/><feComposite xmlns="http://www.w3.org/2000/svg" in2="pf_100_offsetBlur" operator="in" result="pf_100_dropShadow"/><feBlend xmlns="http://www.w3.org/2000/svg" in="SourceGraphic" in2="pf_100_dropShadow" mode="normal"/></filter></defs><g filter="url(#HBJqoYVEMs69tCmjBpgwRdN8Nh8XQ1po)"><path d=" M 437.772 387.982 C 436.667 388.488 435.952 388.783 435.255 389.075 C 433.84 389.667 432.201 390.2 430.689 390.455 C 431.281 390.356 432.01 389.706 432.66 389.024 C 432.663 389.021 435.612 386.168 436.149 383.474 C 436.176 383.333 436.028 383.222 435.898 383.286 C 433.713 384.375 432.515 384.726 432.177 384.871 C 430.805 385.412 429.769 385.723 428.311 386.087 C 428.311 386.087 422.179 378.034 412.639 381.738 C 408.832 383.216 406.443 385.745 405.084 388.412 C 405.082 388.415 402.73 392.524 403.013 397.51 C 396.568 396.374 390.822 394.327 385.741 390.857 C 385.487 390.598 383.586 389.245 383.038 388.824 C 381.475 387.531 379.981 386.082 378.553 384.456 C 378.523 384.422 378.497 384.394 378.47 384.366 C 377.924 383.653 377.692 383.224 377.692 383.224 C 374.7 390.81 376.137 396.654 377.775 400.128 C 375.151 399.754 373.787 399.127 373.787 399.127 C 376.258 408.13 382.001 411.824 385.382 413.26 C 381.745 413.682 379.722 413.04 379.722 413.04 C 383.473 422.121 391.211 422.484 391.211 422.484 C 385.781 427.526 374.014 427.865 373.858 427.944 C 373.698 428.042 373.836 428.181 374.022 428.332 C 374.76 428.819 375.51 429.25 376.274 429.667 C 378.58 430.889 380.986 431.862 383.5 432.556 C 396.482 436.142 411.108 433.507 420.856 423.821 C 428.51 416.215 431.194 405.726 431.194 395.223 C 431.194 395.223 437.402 392.048 438.017 388.167 C 438.039 388.03 437.896 387.924 437.772 387.982 Z " fill="rgb(255,255,255)"/></g><defs><filter id="DnkZNHfmKeGObTo4ae5Xj7PElyfPBy6e" x="-200%" y="-200%" width="400%" height="400%" filterUnits="objectBoundingBox" color-interpolation-filters="sRGB"><feGaussianBlur xmlns="http://www.w3.org/2000/svg" in="SourceGraphic" stdDeviation="2.146804531419514"/><feOffset xmlns="http://www.w3.org/2000/svg" dx="0" dy="0" result="pf_100_offsetBlur"/><feFlood xmlns="http://www.w3.org/2000/svg" flood-color="#000000" flood-opacity="0.65"/><feComposite xmlns="http://www.w3.org/2000/svg" in2="pf_100_offsetBlur" operator="in" result="pf_100_dropShadow"/><feBlend xmlns="http://www.w3.org/2000/svg" in="SourceGraphic" in2="pf_100_dropShadow" mode="normal"/></filter></defs><g filter="url(#DnkZNHfmKeGObTo4ae5Xj7PElyfPBy6e)"><path d=" M 128.441 24.555 L 127.289 24.555 C 100.283 24.555 78.391 46.448 78.391 73.454 L 78.391 74.606 C 78.391 101.612 100.283 123.504 127.289 123.504 L 128.441 123.504 C 155.447 123.504 177.341 101.612 177.341 74.606 L 177.341 73.454 C 177.341 46.448 155.447 24.555 128.441 24.555 Z " fill="rgb(247,10,2)"/></g><path d=" M 161.907 73.289 L 161.907 73.289 C 161.854 67.87 161.57 56.013 157.032 52.56 C 152.451 49.076 127.865 49.076 127.865 49.076 L 127.865 49.79 L 127.865 49.076 C 127.865 49.076 103.278 49.076 98.7 52.56 C 94.162 56.013 93.878 67.87 93.825 73.289 L 93.825 73.289 L 93.825 73.361 L 93.825 73.433 L 93.825 73.433 C 93.878 78.853 94.162 90.709 98.7 94.162 C 103.278 97.646 127.865 97.646 127.865 97.646 L 127.865 97.077 L 127.865 97.646 C 127.865 97.646 152.451 97.646 157.032 94.162 C 161.57 90.709 161.854 78.853 161.907 73.433 L 161.907 73.433 L 161.907 73.361 L 161.907 73.289 Z " fill="rgb(255,255,255)"/><path d=" M 121.664 62.37 L 140.701 73.361 L 121.664 84.352 L 121.664 62.37 Z " fill="rgb(247,10,2)"/><defs><filter id="LZnRbFmpfkld1Dc26TRZ5C3LmZqTEBTE" x="-200%" y="-200%" width="400%" height="400%" filterUnits="objectBoundingBox" color-interpolation-filters="sRGB"><feGaussianBlur xmlns="http://www.w3.org/2000/svg" in="SourceGraphic" stdDeviation="2.146804531419514"/><feOffset xmlns="http://www.w3.org/2000/svg" dx="0" dy="0" result="pf_100_offsetBlur"/><feFlood xmlns="http://www.w3.org/2000/svg" flood-color="#000000" flood-opacity="0.65"/><feComposite xmlns="http://www.w3.org/2000/svg" in2="pf_100_offsetBlur" operator="in" result="pf_100_dropShadow"/><feBlend xmlns="http://www.w3.org/2000/svg" in="SourceGraphic" in2="pf_100_dropShadow" mode="normal"/></filter></defs><g filter="url(#LZnRbFmpfkld1Dc26TRZ5C3LmZqTEBTE)"><path d=" M 106.731 371.552 L 196.487 304.121 L 200.984 310.106 L 111.227 377.537 L 106.731 371.552 Z " fill="rgb(97,76,230)"/></g><defs><filter id="3rh8PWSJL24A15jvH27NpAKWOs7CpEie" x="-200%" y="-200%" width="400%" height="400%" filterUnits="objectBoundingBox" color-interpolation-filters="sRGB"><feGaussianBlur xmlns="http://www.w3.org/2000/svg" in="SourceGraphic" stdDeviation="2.146804531419514"/><feOffset xmlns="http://www.w3.org/2000/svg" dx="0" dy="0" result="pf_100_offsetBlur"/><feFlood xmlns="http://www.w3.org/2000/svg" flood-color="#000000" flood-opacity="0.65"/><feComposite xmlns="http://www.w3.org/2000/svg" in2="pf_100_offsetBlur" operator="in" result="pf_100_dropShadow"/><feBlend xmlns="http://www.w3.org/2000/svg" in="SourceGraphic" in2="pf_100_dropShadow" mode="normal"/></filter></defs><g filter="url(#3rh8PWSJL24A15jvH27NpAKWOs7CpEie)"><path d=" M 379.108 23.677 L 377.979 23.677 C 351.528 23.677 330.087 45.761 330.087 73.004 L 330.087 74.165 C 330.087 101.408 351.528 123.491 377.979 123.491 L 379.108 123.491 C 405.558 123.491 427 101.408 427 74.165 L 427 73.004 C 427 45.761 405.558 23.677 379.108 23.677 Z " fill="rgb(0,0,0)"/></g><path d=" M 397.68 54.738 C 394.11 54.738 391.217 51.759 391.217 48.083 L 391.217 48.083 L 391.217 45.045 L 380.468 45.045 L 380.468 66.751 L 380.468 83.186 L 380.468 83.187 C 380.468 86.862 377.573 89.842 374.005 89.842 C 370.434 89.842 367.542 86.862 367.542 83.187 C 367.542 79.511 370.434 76.53 374.005 76.53 C 375.721 76.53 377.282 77.221 378.439 78.346 L 378.439 66.053 C 377.024 65.666 375.537 65.459 374.005 65.459 C 364.499 65.459 356.792 73.396 356.792 83.187 C 356.792 92.977 364.499 100.914 374.005 100.914 C 383.511 100.914 391.217 92.977 391.217 83.187 L 391.217 83.186 L 391.217 64.517 C 393.212 65.35 395.394 65.81 397.68 65.81 L 400.424 65.81 L 400.505 54.738 L 397.68 54.738 Z " fill="rgb(255,255,255)"/><defs><filter id="wgTZJxgy2ZZxKcm0jdRc4wjQZwh252cz" x="-200%" y="-200%" width="400%" height="400%" filterUnits="objectBoundingBox" color-interpolation-filters="sRGB"><feGaussianBlur xmlns="http://www.w3.org/2000/svg" in="SourceGraphic" stdDeviation="2.146804531419514"/><feOffset xmlns="http://www.w3.org/2000/svg" dx="0" dy="0" result="pf_100_offsetBlur"/><feFlood xmlns="http://www.w3.org/2000/svg" flood-color="#000000" flood-opacity="0.65"/><feComposite xmlns="http://www.w3.org/2000/svg" in2="pf_100_offsetBlur" operator="in" result="pf_100_dropShadow"/><feBlend xmlns="http://www.w3.org/2000/svg" in="SourceGraphic" in2="pf_100_dropShadow" mode="normal"/></filter></defs><g filter="url(#wgTZJxgy2ZZxKcm0jdRc4wjQZwh252cz)"><linearGradient id="_lgradient_0" x1="0.14423809779399877" y1="0.8557626763851839" x2="0.8557726370028446" y2="0.15012452483712324" gradientTransform="matrix(101.76,0,0,101.338,22.266,339.278)" gradientUnits="userSpaceOnUse"><stop offset="0%" stop-opacity="1" style="stop-color:rgb(251,219,108)"/><stop offset="10%" stop-opacity="1" style="stop-color:rgb(252,189,80)"/><stop offset="20%" stop-opacity="1" style="stop-color:rgb(250,138,76)"/><stop offset="30.000000000000004%" stop-opacity="1" style="stop-color:rgb(244,80,90)"/><stop offset="40%" stop-opacity="1" style="stop-color:rgb(227,65,118)"/><stop offset="50%" stop-opacity="1" style="stop-color:rgb(208,54,143)"/><stop offset="60%" stop-opacity="1" style="stop-color:rgb(183,55,163)"/><stop offset="70%" stop-opacity="1" style="stop-color:rgb(159,56,184)"/><stop offset="80%" stop-opacity="1" style="stop-color:rgb(134,57,204)"/><stop offset="89.99999999999999%" stop-opacity="1" style="stop-color:rgb(101,74,227)"/><stop offset="99.99999999999999%" stop-opacity="1" style="stop-color:rgb(92,79,233)"/></linearGradient><path d=" M 73.914 339.278 L 72.378 339.278 C 44.702 339.278 22.266 361.62 22.266 389.182 L 22.266 390.71 C 22.266 418.272 44.702 440.615 72.378 440.615 L 73.914 440.615 C 101.59 440.615 124.026 418.272 124.026 390.71 L 124.026 389.182 C 124.026 361.62 101.59 339.278 73.914 339.278 Z " fill="url(#_lgradient_0)"/></g><path d=" M 56.757 414.499 C 52.218 414.499 48.526 410.822 48.526 406.303 L 48.526 373.66 C 48.526 369.141 52.218 365.464 56.757 365.464 L 89.534 365.464 C 94.073 365.464 97.766 369.141 97.766 373.661 L 97.766 406.303 C 97.766 410.822 94.074 414.499 89.535 414.499 L 56.757 414.499 Z  M 89.534 359.615 L 56.757 359.615 C 48.98 359.615 42.653 365.916 42.653 373.66 L 42.653 406.303 C 42.653 414.047 48.98 420.347 56.757 420.347 L 89.535 420.347 C 97.312 420.347 103.639 414.047 103.639 406.303 L 103.639 373.661 C 103.639 365.916 97.312 359.615 89.534 359.615 Z " fill="rgb(255,255,255)"/><path d=" M 87.588 372.921 C 85.982 372.921 84.675 374.227 84.675 375.833 C 84.675 377.439 85.982 378.746 87.588 378.746 C 89.193 378.746 90.5 377.439 90.5 375.833 C 90.5 374.227 89.193 372.921 87.588 372.921 Z " fill="rgb(255,255,255)"/><path d=" M 74.906 395.839 C 70.926 395.839 67.688 392.601 67.688 388.621 C 67.688 384.641 70.926 381.403 74.906 381.403 C 78.886 381.403 82.124 384.641 82.124 388.621 C 82.124 392.601 78.886 395.839 74.906 395.839 Z  M 74.906 377.049 C 68.526 377.049 63.334 382.24 63.334 388.621 C 63.334 395.002 68.526 400.193 74.906 400.193 C 81.287 400.193 86.478 395.002 86.478 388.621 C 86.478 382.24 81.287 377.049 74.906 377.049 Z " fill="rgb(255,255,255)"/><defs><filter id="L620kwgocKb3vpKSxvQQFteVFYAwRmDc" x="-200%" y="-200%" width="400%" height="400%" filterUnits="objectBoundingBox" color-interpolation-filters="sRGB"><feGaussianBlur xmlns="http://www.w3.org/2000/svg" in="SourceGraphic" stdDeviation="2.146804531419514"/><feOffset xmlns="http://www.w3.org/2000/svg" dx="0" dy="0" result="pf_100_offsetBlur"/><feFlood xmlns="http://www.w3.org/2000/svg" flood-color="#000000" flood-opacity="0.65"/><feComposite xmlns="http://www.w3.org/2000/svg" in2="pf_100_offsetBlur" operator="in" result="pf_100_dropShadow"/><feBlend xmlns="http://www.w3.org/2000/svg" in="SourceGraphic" in2="pf_100_dropShadow" mode="normal"/></filter></defs><g filter="url(#L620kwgocKb3vpKSxvQQFteVFYAwRmDc)"><path d=" M 189.075 246.901 L 76.813 247.425 L 76.777 239.939 L 189.04 239.415 L 189.075 246.901 Z " fill="rgb(248,235,6)"/></g><defs><filter id="k5ONAxslHioSRDNSEnTZZ53swtLKXcwX" x="-200%" y="-200%" width="400%" height="400%" filterUnits="objectBoundingBox" color-interpolation-filters="sRGB"><feGaussianBlur xmlns="http://www.w3.org/2000/svg" in="SourceGraphic" stdDeviation="2.146804531419514"/><feOffset xmlns="http://www.w3.org/2000/svg" dx="0" dy="0" result="pf_100_offsetBlur"/><feFlood xmlns="http://www.w3.org/2000/svg" flood-color="#000000" flood-opacity="0.65"/><feComposite xmlns="http://www.w3.org/2000/svg" in2="pf_100_offsetBlur" operator="in" result="pf_100_dropShadow"/><feBlend xmlns="http://www.w3.org/2000/svg" in="SourceGraphic" in2="pf_100_dropShadow" mode="normal"/></filter></defs><g filter="url(#k5ONAxslHioSRDNSEnTZZ53swtLKXcwX)"><path d=" M 439.075 246.901 L 326.813 247.425 L 326.777 239.939 L 439.04 239.415 L 439.075 246.901 Z " fill="rgb(0,112,222)"/></g><g><defs><filter id="tZRFLPB2LvLkHj1ICNnBq02F1HRSTZpK" x="-200%" y="-200%" width="400%" height="400%" filterUnits="objectBoundingBox" color-interpolation-filters="sRGB"><feGaussianBlur xmlns="http://www.w3.org/2000/svg" in="SourceGraphic" stdDeviation="2.146804531419514"/><feOffset xmlns="http://www.w3.org/2000/svg" dx="0" dy="0" result="pf_100_offsetBlur"/><feFlood xmlns="http://www.w3.org/2000/svg" flood-color="#000000" flood-opacity="0.65"/><feComposite xmlns="http://www.w3.org/2000/svg" in2="pf_100_offsetBlur" operator="in" result="pf_100_dropShadow"/><feBlend xmlns="http://www.w3.org/2000/svg" in="SourceGraphic" in2="pf_100_dropShadow" mode="normal" result="_out_vOSsp5W5RGyyRVQWgZp2ixxGScGkGlms"/><feGaussianBlur xmlns="http://www.w3.org/2000/svg" in="_out_vOSsp5W5RGyyRVQWgZp2ixxGScGkGlms" stdDeviation="2.146804531419514"/><feOffset xmlns="http://www.w3.org/2000/svg" dx="0" dy="0" result="pf_101_offsetBlur"/><feFlood xmlns="http://www.w3.org/2000/svg" flood-color="#000000" flood-opacity="0.65"/><feComposite xmlns="http://www.w3.org/2000/svg" in2="pf_101_offsetBlur" operator="in" result="pf_101_dropShadow"/><feBlend xmlns="http://www.w3.org/2000/svg" in="_out_vOSsp5W5RGyyRVQWgZp2ixxGScGkGlms" in2="pf_101_dropShadow" mode="normal" result="_out_0moS2HGbormr6uwCa1fY4VqqRZhKa5oy"/><feMerge><feMergeNode in="_out_0moS2HGbormr6uwCa1fY4VqqRZhKa5oy"/></feMerge></filter></defs><g filter="url(#tZRFLPB2LvLkHj1ICNnBq02F1HRSTZpK)"><path d=" M 60.335 193.419 L 59.225 193.419 C 33.176 193.419 12.06 214.534 12.06 240.582 L 12.06 241.693 C 12.06 267.741 33.176 288.858 59.225 288.858 L 60.335 288.858 C 86.384 288.858 107.5 267.741 107.5 241.693 L 107.5 240.582 C 107.5 214.534 86.384 193.419 60.335 193.419 Z " fill="rgb(249,236,6)"/></g><path d=" M 89.248 255.556 L 89.246 255.555 C 83.401 254.193 79.086 250.301 76.887 244.994 C 75.899 242.613 77.06 242.623 78.572 241.913 C 79.308 241.569 80.089 241.333 80.843 241.027 C 81.812 240.634 82.856 240.247 83.658 239.55 C 84.18 239.095 84.585 238.457 84.602 237.764 C 84.625 236.752 83.933 235.33 83.037 234.86 C 81.912 234.271 79.913 234.67 78.246 235.06 C 76.905 235.374 76.53 235.578 76.734 233.767 C 77.083 230.651 77.118 228.2 76.752 225.077 C 76.187 220.278 73.585 216.697 69.553 214.333 C 66.345 212.451 62.934 211.726 59.671 211.727 C 59.633 211.727 59.592 211.728 59.554 211.728 C 59.516 211.728 59.475 211.727 59.437 211.727 C 56.173 211.726 52.762 212.451 49.555 214.333 C 45.522 216.697 42.921 220.278 42.356 225.077 C 41.987 228.2 42.025 230.651 42.374 233.767 C 42.577 235.578 42.203 235.374 40.861 235.06 C 39.194 234.67 37.196 234.271 36.071 234.86 C 35.175 235.33 34.48 236.752 34.505 237.764 C 34.523 238.457 34.928 239.095 35.45 239.55 C 36.251 240.247 37.293 240.634 38.265 241.027 C 39.018 241.333 39.8 241.569 40.533 241.913 C 42.048 242.623 43.208 242.613 42.221 244.994 C 40.021 250.301 35.707 254.193 29.862 255.555 L 29.859 255.556 C 27.006 256.722 29.052 258.725 29.052 258.725 C 29.559 259.179 30.145 259.594 30.834 259.75 C 32.268 260.073 36.101 260.427 37.402 262.742 C 38.278 264.297 38.85 266.666 41.847 266.833 C 44.545 266.839 45.764 266.383 47.045 266.125 C 48.071 265.919 49.73 266.193 50.756 266.858 C 50.799 266.885 50.835 266.92 50.873 266.952 C 51.41 267.385 52.006 267.747 52.586 268.123 C 54.987 269.681 56.619 270.486 59.078 270.56 L 59.078 270.56 L 59.085 270.56 C 59.241 270.564 59.396 270.566 59.551 270.565 L 59.551 270.555 L 59.554 270.555 L 59.556 270.555 L 59.556 270.565 C 59.712 270.566 59.867 270.564 60.022 270.56 L 60.03 270.56 L 60.03 270.56 C 62.489 270.486 64.118 269.681 66.521 268.123 C 67.101 267.747 67.697 267.385 68.234 266.952 C 68.272 266.92 68.308 266.885 68.351 266.858 C 69.377 266.193 71.037 265.919 72.063 266.125 C 73.343 266.383 74.563 266.839 77.261 266.833 C 80.257 266.666 80.83 264.297 81.705 262.742 C 83.006 260.427 86.84 260.073 88.271 259.75 C 88.96 259.594 89.548 259.179 90.055 258.725 C 90.055 258.725 92.099 256.722 89.248 255.556 Z " fill="rgb(255,255,255)"/></g><path d=" M 48.025 264.86 C 49.305 264.86 50.687 265.24 51.632 265.851 C 51.703 265.898 51.772 265.952 51.838 266.009 C 52.235 266.33 52.67 266.609 53.134 266.905 L 53.462 267.116 C 55.758 268.607 57.153 269.288 59.299 269.361 L 60.394 269.357 C 62.451 269.267 63.835 268.584 66.101 267.116 L 66.429 266.903 C 66.89 266.608 67.325 266.329 67.712 266.018 C 67.789 265.952 67.857 265.898 67.929 265.851 C 68.873 265.24 70.255 264.86 71.536 264.86 C 71.892 264.86 72.226 264.89 72.523 264.95 C 72.804 265.006 73.081 265.072 73.371 265.14 C 74.356 265.372 75.471 265.635 77.437 265.635 L 77.452 265.635 C 79.139 265.53 79.687 264.58 80.435 263.043 C 80.58 262.746 80.73 262.439 80.893 262.15 C 82.281 259.685 85.564 259.08 87.525 258.719 C 87.799 258.668 88.041 258.624 88.237 258.58 C 88.607 258.497 88.996 258.266 89.459 257.854 C 89.635 257.669 89.828 257.326 89.798 257.185 C 89.785 257.121 89.635 256.913 89.106 256.683 C 83.07 255.245 78.422 251.256 76.013 245.441 C 75.678 244.633 75.344 243.586 75.731 242.654 C 76.11 241.739 76.955 241.391 77.699 241.084 C 77.887 241.007 78.088 240.925 78.294 240.827 C 78.791 240.594 79.292 240.412 79.778 240.235 C 80.061 240.132 80.343 240.029 80.621 239.916 L 80.86 239.821 C 81.675 239.493 82.517 239.154 83.103 238.644 C 83.431 238.359 83.633 238.015 83.638 237.726 C 83.653 237.111 83.159 236.141 82.711 235.906 C 82.568 235.832 82.286 235.744 81.738 235.744 C 80.86 235.744 79.778 235.968 78.745 236.211 L 78.516 236.265 C 78.083 236.368 77.744 236.45 77.396 236.45 C 76.765 236.45 76.38 236.167 76.166 235.929 C 75.634 235.334 75.678 234.5 75.777 233.626 C 76.131 230.464 76.138 228.104 75.797 225.208 C 75.296 220.949 73.068 217.633 69.179 215.351 C 66.414 213.731 63.296 212.909 59.903 212.909 L 59.785 212.911 L 59.658 212.909 C 56.265 212.909 53.144 213.731 50.382 215.351 C 46.492 217.633 44.265 220.949 43.763 225.208 C 43.422 228.102 43.43 230.462 43.784 233.626 C 43.88 234.5 43.926 235.334 43.394 235.929 C 43.18 236.167 42.796 236.45 42.162 236.45 C 41.816 236.45 41.475 236.368 41.045 236.265 L 40.815 236.211 C 39.78 235.968 38.7 235.744 37.822 235.744 C 37.274 235.744 36.992 235.832 36.85 235.906 C 36.402 236.141 35.908 237.111 35.923 237.726 C 35.928 238.015 36.129 238.358 36.458 238.644 C 37.043 239.154 37.886 239.493 38.7 239.821 L 38.94 239.917 C 39.217 240.029 39.499 240.132 39.782 240.235 C 40.268 240.412 40.767 240.594 41.266 240.827 C 41.472 240.925 41.673 241.007 41.862 241.084 C 42.605 241.391 43.45 241.739 43.829 242.654 C 44.217 243.586 43.883 244.633 43.547 245.441 C 41.139 251.256 36.49 255.245 30.457 256.683 C 29.926 256.913 29.775 257.121 29.762 257.185 C 29.732 257.325 29.921 257.663 30.104 257.857 C 30.567 258.267 30.956 258.497 31.323 258.58 C 31.519 258.624 31.761 258.668 32.036 258.719 C 33.996 259.08 37.28 259.685 38.667 262.15 C 38.83 262.439 38.98 262.746 39.123 263.043 C 39.874 264.58 40.421 265.53 42.109 265.635 L 42.124 265.635 C 44.089 265.635 45.204 265.372 46.189 265.14 C 46.479 265.072 46.757 265.006 47.037 264.95 C 47.335 264.89 47.668 264.86 48.025 264.86 Z  M 59.89 271.747 L 59.78 271.747 L 59.671 271.747 C 59.551 271.747 59.429 271.746 59.307 271.742 L 59.304 271.742 L 59.299 271.742 L 58.591 271.735 L 58.591 271.701 C 56.234 271.499 54.523 270.643 52.166 269.113 L 51.848 268.909 C 51.352 268.592 50.84 268.264 50.354 267.869 L 50.303 267.827 C 49.745 267.48 48.816 267.24 48.025 267.24 C 47.829 267.24 47.648 267.255 47.505 267.284 C 47.251 267.335 46.999 267.395 46.736 267.457 C 45.68 267.706 44.367 268.015 42.124 268.015 L 42.007 268.013 C 38.812 267.835 37.712 265.579 36.985 264.086 C 36.85 263.808 36.72 263.546 36.592 263.317 C 35.752 261.824 33.156 261.346 31.605 261.06 C 31.292 261.003 31.02 260.952 30.801 260.902 C 29.765 260.669 28.983 260.05 28.485 259.604 L 28.447 259.567 C 28.312 259.435 27.133 258.228 27.426 256.728 C 27.561 256.045 28.052 255.093 29.635 254.446 L 29.818 254.388 C 35.131 253.149 39.227 249.649 41.347 244.53 C 41.579 243.973 41.62 243.7 41.623 243.593 C 41.49 243.506 41.185 243.38 40.953 243.285 C 40.734 243.194 40.5 243.097 40.255 242.983 C 39.853 242.795 39.423 242.638 38.968 242.472 C 38.659 242.359 38.349 242.246 38.043 242.123 L 37.812 242.029 C 36.86 241.646 35.783 241.212 34.895 240.44 C 34.06 239.712 33.566 238.744 33.543 237.785 C 33.51 236.439 34.342 234.533 35.745 233.798 C 36.302 233.505 36.982 233.363 37.822 233.363 C 38.942 233.363 40.184 233.618 41.36 233.893 L 41.419 233.907 L 41.419 233.892 C 41.042 230.532 41.037 228.019 41.401 224.93 C 41.984 219.962 44.675 215.94 49.178 213.298 C 52.312 211.46 55.837 210.528 59.658 210.528 L 59.808 210.53 L 59.897 210.528 C 63.723 210.528 67.249 211.46 70.383 213.298 C 74.886 215.94 77.577 219.962 78.159 224.93 C 78.523 228.021 78.518 230.534 78.142 233.892 L 78.139 233.907 L 78.2 233.893 C 79.376 233.618 80.619 233.363 81.738 233.363 C 82.576 233.363 83.256 233.505 83.816 233.798 C 85.218 234.533 86.051 236.439 86.018 237.785 C 85.995 238.744 85.501 239.711 84.666 240.439 C 83.777 241.212 82.701 241.646 81.749 242.029 L 81.517 242.123 C 81.212 242.246 80.901 242.359 80.593 242.472 C 80.137 242.638 79.707 242.795 79.305 242.983 C 79.061 243.097 78.826 243.194 78.605 243.285 C 78.376 243.38 78.07 243.506 77.938 243.593 C 77.94 243.7 77.981 243.973 78.213 244.53 C 80.333 249.648 84.427 253.149 89.742 254.388 L 89.923 254.446 C 91.509 255.093 92 256.045 92.135 256.729 C 92.427 258.228 91.249 259.435 91.114 259.567 L 91.076 259.604 C 90.577 260.05 89.795 260.669 88.759 260.902 C 88.54 260.952 88.268 261.003 87.957 261.059 C 86.404 261.346 83.808 261.824 82.968 263.317 C 82.838 263.546 82.711 263.808 82.576 264.086 C 81.848 265.579 80.748 267.835 77.553 268.013 L 77.437 268.015 C 75.194 268.015 73.88 267.706 72.824 267.457 C 72.562 267.395 72.31 267.335 72.055 267.284 C 71.913 267.255 71.732 267.24 71.536 267.24 C 70.744 267.24 69.815 267.48 69.258 267.827 L 69.209 267.868 C 68.72 268.263 68.209 268.59 67.715 268.907 L 67.397 269.113 C 65.029 270.648 63.314 271.505 60.969 271.703 L 60.969 271.726 L 60.483 271.734 C 60.442 271.736 60.401 271.737 60.36 271.739 L 60.315 271.746 L 60.236 271.742 C 60.139 271.745 60.014 271.747 59.89 271.747 Z " fill="rgb(0,0,0)"/><defs><filter id="sAj7CuE7v80R9F1fUeeptAhyh8DFu9eB" x="-200%" y="-200%" width="400%" height="400%" filterUnits="objectBoundingBox" color-interpolation-filters="sRGB"><feGaussianBlur xmlns="http://www.w3.org/2000/svg" in="SourceGraphic" stdDeviation="2.146804531419514"/><feOffset xmlns="http://www.w3.org/2000/svg" dx="0" dy="0" result="pf_100_offsetBlur"/><feFlood xmlns="http://www.w3.org/2000/svg" flood-color="#000000" flood-opacity="0.65"/><feComposite xmlns="http://www.w3.org/2000/svg" in2="pf_100_offsetBlur" operator="in" result="pf_100_dropShadow"/><feBlend xmlns="http://www.w3.org/2000/svg" in="SourceGraphic" in2="pf_100_dropShadow" mode="normal"/></filter></defs><g filter="url(#sAj7CuE7v80R9F1fUeeptAhyh8DFu9eB)"><linearGradient id="_lgradient_1" x1="0.5" y1="1" x2="0.5000000000536728" y2="0.000005277773361345162" gradientTransform="matrix(95.712,0,0,95.713,401.955,188.66)" gradientUnits="userSpaceOnUse"><stop offset="0%" stop-opacity="1" style="stop-color:rgb(0,84,212)"/><stop offset="10%" stop-opacity="1" style="stop-color:rgb(0,90,214)"/><stop offset="20%" stop-opacity="1" style="stop-color:rgb(0,95,216)"/><stop offset="30.000000000000004%" stop-opacity="1" style="stop-color:rgb(0,101,218)"/><stop offset="40%" stop-opacity="1" style="stop-color:rgb(0,106,220)"/><stop offset="50%" stop-opacity="1" style="stop-color:rgb(0,112,222)"/><stop offset="60%" stop-opacity="1" style="stop-color:rgb(0,117,225)"/><stop offset="70%" stop-opacity="1" style="stop-color:rgb(0,123,227)"/><stop offset="80%" stop-opacity="1" style="stop-color:rgb(0,128,229)"/><stop offset="89.99999999999999%" stop-opacity="1" style="stop-color:rgb(0,133,231)"/><stop offset="99.99999999999999%" stop-opacity="1" style="stop-color:rgb(0,139,233)"/></linearGradient><path d=" M 450.29 188.66 L 449.332 188.66 C 423.166 188.66 401.955 209.872 401.955 236.038 L 401.955 236.996 C 401.955 263.161 423.166 284.373 449.332 284.373 L 450.29 284.373 C 476.455 284.373 497.667 263.161 497.667 236.996 L 497.667 236.038 C 497.667 209.872 476.455 188.66 450.29 188.66 Z " fill="url(#_lgradient_1)"/></g><defs><filter id="630VgziEqqtVOODjRG3BHFD3JkF3Pkuw" x="-200%" y="-200%" width="400%" height="400%" filterUnits="objectBoundingBox" color-interpolation-filters="sRGB"><feGaussianBlur xmlns="http://www.w3.org/2000/svg" in="SourceGraphic" stdDeviation="2.146804531419514"/><feOffset xmlns="http://www.w3.org/2000/svg" dx="0" dy="0" result="pf_100_offsetBlur"/><feFlood xmlns="http://www.w3.org/2000/svg" flood-color="#000000" flood-opacity="0.65"/><feComposite xmlns="http://www.w3.org/2000/svg" in2="pf_100_offsetBlur" operator="in" result="pf_100_dropShadow"/><feBlend xmlns="http://www.w3.org/2000/svg" in="SourceGraphic" in2="pf_100_dropShadow" mode="normal"/></filter></defs><g filter="url(#630VgziEqqtVOODjRG3BHFD3JkF3Pkuw)"><path d=" M 476.534 253.764 L 476.534 248.658 L 476.534 241.074 L 461.584 241.074 L 461.584 230.646 C 461.584 228.945 461.949 227.559 462.678 226.489 C 463.407 225.421 464.476 224.885 465.886 224.885 L 476.534 224.885 L 476.534 210.737 L 465.595 210.737 C 459.177 210.737 454.424 212.403 451.338 215.732 C 448.25 219.063 446.707 224.083 446.707 230.792 L 446.707 241.074 L 438.685 241.074 L 438.685 253.764 L 446.707 253.764 L 446.707 284.299 C 447.576 284.347 448.451 284.373 449.332 284.373 L 450.29 284.373 C 454.182 284.373 457.964 283.9 461.584 283.014 L 461.584 253.764 L 476.534 253.764 Z " fill="rgb(255,255,255)"/></g><radialGradient id="_rgradient_0" fx="0.5" fy="0.5" cx="0.5" cy="0.5" r="0.5" gradientTransform="matrix(227,-1.086,0,159.86,143.5,173.156)" gradientUnits="userSpaceOnUse"><stop offset="0%" stop-opacity="1" style="stop-color:rgb(0,150,136)"/><stop offset="100%" stop-opacity="1" style="stop-color:rgb(0,0,0)"/></radialGradient><path d=" M 305.012 290.715 C 301.059 273.563 288.162 259.833 271.488 254.711 C 278.783 249.966 283.611 241.747 283.611 232.395 C 283.611 217.698 271.697 205.784 257 205.784 C 242.303 205.784 230.389 217.698 230.389 232.395 C 230.389 241.747 235.217 249.966 242.512 254.711 C 225.838 259.833 212.941 273.564 208.988 290.717 C 200.646 280.238 195.648 266.979 195.648 252.543 C 195.648 218.66 223.116 191.191 257 191.191 C 290.883 191.191 318.352 218.66 318.352 252.543 C 318.352 266.978 313.354 280.236 305.012 290.715 Z  M 257 172.613 C 212.855 172.613 177.07 208.399 177.07 252.543 C 177.07 296.688 212.855 332.473 257 332.473 C 301.145 332.473 336.93 296.688 336.93 252.543 C 336.93 208.399 301.145 172.613 257 172.613 Z " fill="url(#_rgradient_0)"/></g></svg>