<svg xmlns="http://www.w3.org/2000/svg" viewBox="0 0 400 400" width="400" height="400">
	<style>
		tspan { white-space:pre }
		.shp0 { fill: #16212a } 
		.shp1 { fill: #ffffff } 
	</style>
	<path id="Path 153" class="shp0" d="M200.5 394C307.92 394 395 306.92 395 199.51C395 92.08 307.92 5 200.5 5C93.08 5 6 92.08 6 199.51C6 306.92 93.08 394 200.5 394Z" />
	<path id="Path 154" class="shp1" d="M120.59 194.49C120.24 194.49 124.45 203.56 124.56 203.56C133.76 220.23 151.48 230.61 181.38 233.47C177.11 236.7 171.99 242.86 171.28 249.97C165.91 253.43 155.12 254.57 146.74 251.93C134.98 248.21 130.48 224.96 112.88 228.28C109.07 228.99 109.83 231.51 113.13 233.64C118.49 237.11 123.54 241.45 127.43 250.69C130.42 257.78 136.71 270.46 156.6 270.46C164.48 270.46 170.01 269.5 170.01 269.5C170.01 269.5 170.16 287.61 170.16 294.65C170.16 302.78 159.21 305.07 159.21 308.97C159.21 310.52 162.83 310.67 165.74 310.67C171.5 310.67 183.49 305.86 183.49 297.41C183.49 290.71 183.6 268.16 183.6 264.22C183.6 255.61 188.23 252.87 188.23 252.87C188.23 252.87 188.8 298.9 187.12 305.07C185.16 312.32 181.59 311.29 181.59 314.52C181.59 319.34 196.04 315.7 200.82 305.14C204.52 296.91 202.9 251.76 202.9 251.76L206.86 251.68C206.86 251.68 207.07 272.34 206.93 281.8C206.81 291.59 206.14 303.95 211.95 309.79C215.76 313.63 228.14 320.36 228.14 314.21C228.14 310.64 221.36 307.7 221.36 298.02L221.36 253.5C226.78 253.5 225.97 268.15 225.97 268.15L226.35 295.35C226.35 295.35 225.17 305.25 237.09 309.4C241.3 310.87 250.28 311.27 250.72 308.8C251.14 306.33 239.88 302.65 239.78 294.98C239.7 290.3 239.99 287.57 239.99 267.23C239.99 246.87 237.26 239.36 227.72 233.36C257.11 230.35 275.31 223.07 284.18 203.63C284.87 203.64 287.8 194.52 287.4 194.52C289.39 187.18 290.48 178.49 290.68 168.19C290.63 140.27 277.26 130.41 274.69 125.77C278.49 104.63 274.06 95.03 272 91.72C264.43 89.03 245.67 98.66 235.41 105.43C218.69 100.55 183.34 101.01 170.09 106.69C145.63 89.17 132.69 91.87 132.69 91.87C132.69 91.87 124.33 106.84 130.48 128.77C122.44 139.02 116.43 146.27 116.43 165.49C116.44 176.34 117.73 186.04 120.59 194.49Z" />
</svg>