<svg xmlns="http://www.w3.org/2000/svg" viewBox="0 0 500 500" width="500" height="500">
	<defs>
		<linearGradient id="grd1" gradientUnits="userSpaceOnUse"  x1="45.712" y1="-14.515" x2="569.304" y2="629.167">
			<stop offset="0" stop-color="#fe6adf"  />
			<stop offset="1" stop-color="#2c6aff"  />
		</linearGradient>
		<linearGradient id="grd2" gradientUnits="userSpaceOnUse"  x1="156.559" y1="373.863" x2="492.148" y2="373.863">
			<stop offset="0" stop-color="#d883f6"  />
			<stop offset="1" stop-color="#f34d4d"  />
		</linearGradient>
		<linearGradient id="grd3" gradientUnits="userSpaceOnUse"  x1="1719.914" y1="-1834" x2="1563.866" y2="-1982.719">
			<stop offset="0" stop-color="#f15168"  />
			<stop offset="1" stop-color="#a40cb7"  />
		</linearGradient>
		<linearGradient id="grd4" gradientUnits="userSpaceOnUse"  x1="1653.452" y1="-1960.142" x2="1897.111" y2="-1815.598">
			<stop offset="0" stop-color="#8e05fe"  />
			<stop offset="1" stop-color="#21fad6"  />
		</linearGradient>
		<linearGradient id="grd5" gradientUnits="userSpaceOnUse"  x1="-170.018" y1="550.842" x2="181.706" y2="333.689">
			<stop offset="0" stop-color="#fe0368"  />
			<stop offset="1" stop-color="#6703ff"  />
		</linearGradient>
		<linearGradient id="grd6" gradientUnits="userSpaceOnUse"  x1="-29.291" y1="482.323" x2="287.106" y2="248.759">
			<stop offset="0" stop-color="#fe6adf"  />
			<stop offset="1" stop-color="#2c6aff"  />
		</linearGradient>
		<linearGradient id="grd7" gradientUnits="userSpaceOnUse"  x1="651.226" y1="227.03" x2="402.696" y2="209.278">
			<stop offset="0" stop-color="#fe0368"  />
			<stop offset="1" stop-color="#6703ff"  />
		</linearGradient>
	</defs>
	<style>
		tspan { white-space:pre }
		.shp0 { fill: url(#grd1) } 
		.shp1 { fill: url(#grd2) } 
		.shp2 { fill: url(#grd3) } 
		.shp3 { fill: url(#grd4) } 
		.shp4 { fill: url(#grd5) } 
		.shp5 { fill: url(#grd6) } 
		.shp6 { fill: url(#grd7) } 
	</style>
	<path id="Path 2" class="shp0" d="M509.99 301.56C510.5 282.77 494.05 269.33 478.97 259.01C413.63 214.29 485.46 169.86 475.45 111.27C472.04 91.3 460.42 73.27 443.85 62.25C433.84 55.58 421.83 51.4 409.53 52.1C386.16 53.44 366.22 88.88 342.54 77.02C319.8 65.62 326.48 30.16 303.95 15.51C288.56 5.51 266.57 3.96 250.81 15.68C234.65 27.7 231.86 52.68 212.06 60.66C199.18 65.85 182.74 57.85 168.26 51.1C127 31.89 80.76 23.01 46.7 44.93C15.39 65.1 -9.03 104.26 3.22 147.16C11.85 177.4 36.05 206.22 36.28 236.1C36.59 277.69 2.1 304.35 5.55 348.58C9.31 396.75 57.44 445.21 107.78 426.72C127.98 419.31 154.34 404.03 176.78 409.89C204.99 417.27 226.61 455.54 250.64 471.57C294.4 500.76 338.94 505.86 375.86 460.19C377.62 458.01 509.01 336.93 509.99 301.56Z" />
	<path id="Path 3" class="shp1" d="M475.44 259.17C472.21 275.19 468.48 291.12 464.27 306.91C455.52 339.59 444.27 372.49 422.94 398.73C405.75 419.86 381.38 433.42 355.19 439.07C310.48 448.72 261.11 431.29 231.69 397.54C227.74 405.55 223.14 413.29 217.78 420.83C226.41 422.91 234.25 427.31 239.02 434.68C251.12 453.36 245.42 476.93 232.5 497.53C321.71 511.3 479.92 456.03 493.17 399.76C507.67 338.08 496.92 292.4 475.44 259.17Z" />
	<path id="Path 5" class="shp2" d="M1579.66 -1855.49C1561.51 -1876.34 1550.96 -1903.39 1553.83 -1934.15C1558.61 -1985.2 1620.5 -1989.62 1656.44 -2009.83C1678.02 -2021.96 1687.9 -2048.2 1702.19 -2068.27C1702.71 -2069 1703.19 -2069.77 1703.69 -2070.53C1610.19 -2079.39 1508.6 -1934.12 1503.17 -1859C1502.56 -1850.57 1502.82 -1842.06 1503.97 -1833.74C1504.51 -1829.89 1505.26 -1826.08 1506.19 -1822.33C1520.4 -1826.81 1534.56 -1832.51 1549.21 -1833.51C1554.66 -1833.88 1560.35 -1833.48 1565.72 -1832.19L1565.78 -1832.17C1571.14 -1839.71 1575.74 -1847.45 1579.69 -1855.46L1579.66 -1855.49Z" />
	<path id="Path 8" class="shp3" d="M1729.23 -2060.98C1724.35 -2062.78 1719.67 -2064.32 1715.21 -2065.61C1710.06 -2067.1 1704.9 -2068.04 1699.69 -2068.53C1699.19 -2067.77 1698.71 -2067 1698.19 -2066.27C1683.9 -2046.2 1674.02 -2019.96 1652.44 -2007.83C1616.5 -1987.62 1554.61 -1983.2 1549.83 -1932.15C1546.96 -1901.39 1557.51 -1874.34 1575.66 -1853.49C1605.07 -1819.73 1654.46 -1802.28 1699.19 -1811.93C1725.38 -1817.58 1749.75 -1831.14 1766.94 -1852.27C1788.27 -1878.51 1799.52 -1911.41 1808.27 -1944.09C1812.48 -1959.88 1816.21 -1975.81 1819.44 -1991.83C1795.87 -2028.3 1759.42 -2049.78 1729.23 -2060.98Z" />
	<path id="Path 1" class="shp4" d="M329.72 470.88C337.56 477.13 345.06 482.14 352.41 486.22C355.73 482.18 358.64 477.82 361.04 473.15C364.29 466.83 366.52 460.06 367.86 453.1C336.46 430.43 307.8 381.31 270.74 371.62C240.38 363.69 204.74 384.36 177.41 394.39C109.32 419.39 44.21 353.85 39.14 288.69C34.47 228.86 81.12 192.81 80.7 136.55C80.69 135.66 80.65 134.77 80.61 133.89C42.33 152.06 30.48 206.61 19.98 247.33C13.83 271.18 14.01 299.22 -1.78 318.26C-34.81 358.1 -52.87 384.3 -39.49 427.93C-31.09 455.35 -10.95 478.17 13.07 493.85C33.92 507.46 59.11 516.32 83.67 512.29C114.55 507.22 140.29 482.78 171.52 480.76C194.22 479.29 214.9 489.8 235.89 499.69C236.89 490.3 239.61 481.23 244.54 473.1C266.89 436.28 302.91 449.47 329.72 470.88Z" />
	<path id="Path 6" class="shp5" d="M40.14 287.69C45.21 352.85 110.32 418.39 178.41 393.39C205.74 383.36 241.38 362.69 271.74 370.62C308.8 380.31 337.46 429.43 368.86 452.1C373.51 427.99 366.94 401.61 350.38 383.34C319.96 349.75 267.61 348.15 229.77 323.23C178.95 289.76 186.42 238.87 172.28 187.31C164.73 159.77 146.41 129.42 117.95 127C103.67 125.79 91.73 128.08 81.61 132.89C81.65 133.77 81.69 134.66 81.7 135.55C82.12 191.81 35.47 227.86 40.14 287.69Z" />
	<path id="Path 7" class="shp6" d="M443.04 124.26C442.25 124.35 441.52 124.49 440.75 124.61C451.08 147.15 452.4 171.84 435.23 189.9C424.21 201.51 408.62 207.72 392.54 209.31C391.25 209.44 389.94 209.53 388.65 209.6C387.29 209.67 385.94 209.71 384.6 209.71C382.52 214.26 380.25 218.56 377.69 222.47C382.9 222.96 388.06 223.9 393.21 225.39C397.67 226.68 402.35 228.22 407.23 230.02C437.42 241.22 473.87 262.7 497.44 299.17C502.54 273.91 506.42 248.41 509.02 222.77C513.77 176.09 503.04 117.86 443.04 124.26Z" />
</svg>