<svg xmlns="http://www.w3.org/2000/svg" viewBox="0 0 300 300" width="300" height="300">
	<style>
		tspan { white-space:pre }
		.shp0 { fill: #fa005c } 
		.shp1 { fill: #02f1e6 } 
		.shp2 { fill: #d538ff } 
	</style>
	<path id="Layer" fill-rule="evenodd" class="shp0" d="M162.6 6C156.26 6 149.67 6.04 146.27 6C127.74 5.76 131.91 18.24 134.38 28.24C137.85 42.29 143.27 67.16 146.27 78.29C147.69 83.52 149.57 92.19 158.15 92.19C160.29 92.19 165.66 92.19 167.06 92.19C175.36 92.19 177.39 84.03 178.94 78.29C181.91 67.24 187.42 42.21 190.82 28.24C193.36 17.8 196.89 6 178.94 6C175.94 6 166.47 6 162.6 6Z" />
	<path id="Layer" fill-rule="evenodd" class="shp1" d="M53.29 48.3C48.8 52.5 44.18 56.89 41.74 59.11C28.45 71.2 40.84 77.27 50.14 82.7C63.2 90.34 85.82 104.35 96.35 110.22C101.31 112.99 109.18 117.87 115.26 112.19C116.77 110.77 120.56 107.22 121.55 106.3C127.42 100.8 122.7 93.69 119.45 88.6C113.21 78.82 98.2 57.48 90.05 45.35C83.95 36.28 77.53 25.61 64.84 37.49C62.72 39.47 56.02 45.74 53.29 48.3Z" />
	<path id="Layer" fill-rule="evenodd" class="shp2" d="M271.68 48.39C267.19 44.19 262.5 39.86 260.13 37.58C247.2 25.14 240.73 36.73 234.92 45.44C226.76 57.66 211.79 78.84 205.52 88.69C202.56 93.33 197.34 100.7 203.42 106.38C204.93 107.8 208.72 111.35 209.71 112.28C215.58 117.77 223.18 113.35 228.62 110.31C239.06 104.47 261.87 90.42 274.82 82.79C284.51 77.09 295.92 71.08 283.23 59.2C281.1 57.21 274.41 50.95 271.68 48.39Z" />
	<path id="Layer" fill-rule="evenodd" class="shp0" d="M271.64 252.7C276.13 248.5 280.75 244.11 283.19 241.89C296.48 229.8 284.09 223.73 274.79 218.3C261.73 210.66 239.11 196.66 228.58 190.78C223.62 188.01 215.75 183.13 209.68 188.81C208.16 190.23 204.37 193.78 203.38 194.71C197.51 200.2 202.23 207.32 205.48 212.4C211.72 222.18 226.74 243.52 234.89 255.65C240.98 264.72 247.4 275.39 260.09 263.51C262.21 261.53 268.91 255.26 271.64 252.7Z" />
	<path id="Layer" fill-rule="evenodd" class="shp2" d="M53.3 252.7C57.79 256.9 62.48 261.23 64.85 263.51C77.77 275.95 84.25 264.35 90.06 255.65C98.21 243.42 113.18 222.25 119.46 212.39C122.41 207.75 127.63 200.38 121.56 194.7C120.05 193.29 116.25 189.73 115.26 188.81C109.39 183.31 101.79 187.74 96.36 190.77C85.91 196.62 63.11 210.67 50.15 218.3C40.46 224 29.05 230.01 41.75 241.89C43.87 243.87 50.57 250.14 53.3 252.7Z" />
	<path id="Layer" fill-rule="evenodd" class="shp1" d="M163.07 295.14C169.41 295.14 176 295.09 179.4 295.14C197.93 295.38 193.76 282.89 191.29 272.9C187.82 258.85 182.4 233.97 179.4 222.85C177.98 217.61 176.1 208.95 167.52 208.95C165.38 208.95 160.01 208.95 158.61 208.95C150.31 208.95 148.28 217.11 146.73 222.85C143.76 233.9 138.25 258.92 134.85 272.9C132.31 283.34 128.78 295.14 146.73 295.14C149.73 295.14 159.2 295.14 163.07 295.14Z" />
	<path id="Layer" fill-rule="evenodd" class="shp0" d="M8 150.58C8 156.52 8.05 162.68 8 165.86C7.74 183.21 21.08 179.3 31.76 176.99C46.77 173.74 73.35 168.68 85.23 165.86C90.83 164.54 100.08 162.78 100.08 154.74C100.08 152.74 100.08 147.72 100.08 146.41C100.08 138.64 91.37 136.73 85.23 135.29C73.43 132.5 46.69 127.35 31.76 124.17C20.6 121.79 8 118.49 8 135.29C8 138.1 8 146.96 8 150.58Z" />
</svg>