<?xml version="1.0" encoding="UTF-8" standalone="no"?><!-- Generator: Gravit.io --><svg xmlns="http://www.w3.org/2000/svg" xmlns:xlink="http://www.w3.org/1999/xlink" style="isolation:isolate" viewBox="0 0 250 250" width="250pt" height="250pt"><defs><clipPath id="_clipPath_KbWw6WYfdAOLdyUcv938a970uUrsPC3b"><rect width="250" height="250"/></clipPath></defs><g clip-path="url(#_clipPath_KbWw6WYfdAOLdyUcv938a970uUrsPC3b)"><path d=" M 246.323 126.15 C 246.323 192.69 192.383 246.631 125.842 246.631 C 59.301 246.631 5.357 192.69 5.357 126.15 C 5.357 59.609 59.301 5.669 125.842 5.669 C 192.383 5.669 246.323 59.609 246.323 126.15 Z " fill="rgb(76,105,162)"/><path d=" M 158.813 132.424 L 162.093 106.996 L 136.909 106.996 L 136.909 90.76 C 136.909 83.397 138.964 78.379 149.517 78.379 L 162.974 78.374 L 162.974 55.63 C 160.652 55.321 152.665 54.627 143.356 54.627 C 123.939 54.627 110.654 66.479 110.654 88.244 L 110.654 106.996 L 88.695 106.996 L 88.695 132.424 L 110.654 132.424 L 110.654 197.673 L 136.909 197.673 L 136.909 132.424 L 158.813 132.424 Z " fill="rgb(254,254,254)"/></g></svg>