<svg xmlns="http://www.w3.org/2000/svg" viewBox="0 0 300 300" width="300" height="300">
	<style>
		tspan { white-space:pre }
		.shp0 { fill: #ffffff } 
	</style>
	<path id="Path 2" fill-rule="evenodd" class="shp0" d="M-800.93 -6L-735.85 55.34L-735.85 22.78L-694.34 22.78L-694.34 94.48L-632.27 152.99L-672.84 152.99L-672.84 293.57L-756.12 293.57L-756.12 241.68C-756.12 217.55 -775.87 197.8 -800 197.8C-824.13 197.8 -843.87 217.55 -843.87 241.68L-843.87 293.57L-930.43 293.57L-930.43 152.99L-971 152.99L-800.93 -6ZM149.59 3.16C188.81 3.16 226.1 18.6 253.83 46.33C281.56 74.06 297 111.35 297 150.56C297 189.78 281.56 227.07 253.83 254.8C226.1 282.53 188.81 297.97 149.59 297.97C110.38 297.97 73.1 282.53 45.36 254.8C17.63 227.07 2.18 189.78 2.18 150.56C2.18 111.35 17.63 74.06 45.36 46.33C73.1 18.6 110.38 3.16 149.59 3.16ZM202.59 77.13L202.25 76.18C199.87 69.58 197.09 63.12 193.79 56.93C186.64 43.51 175.32 28.4 160.51 23.11L159.48 22.74L159.48 79.55L160.27 79.54C174.06 79.31 187.85 78.55 201.59 77.22L202.59 77.13ZM207.8 94.66L207.13 94.73C191.54 96.34 175.9 97.27 160.24 97.51L159.48 97.53L159.48 141.56L214.15 141.56L214.11 140.75C213.53 125.47 211.58 110.19 207.96 95.32L207.8 94.66ZM207.83 206.37L207.99 205.7C211.58 190.86 213.53 175.63 214.11 160.38L214.15 159.57L159.48 159.57L159.48 203.09L160.23 203.11C175.91 203.4 191.58 204.45 207.14 206.29L207.83 206.37ZM159.48 221.07L159.48 278.39L160.51 278.02C175.32 272.73 186.64 257.62 193.79 244.2C197.11 237.96 199.91 231.45 202.3 224.8L202.64 223.87L201.65 223.77C187.91 222.25 174.1 221.35 160.27 221.09L159.48 221.07ZM141.45 278.9L141.45 221.1L140.66 221.12C126.29 221.45 111.93 222.45 97.65 224.07L96.67 224.18L97 225.11C99.36 231.65 102.13 238.06 105.4 244.2C112.79 258.07 124.75 273.93 140.45 278.6L141.45 278.9ZM141.45 203.13L141.45 159.57L85.05 159.57L85.07 160.38C85.66 175.73 87.63 191.08 91.28 206.01L91.44 206.68L92.13 206.6C108.25 204.67 124.46 203.5 140.7 203.15L141.45 203.13ZM91.47 94.33L91.31 94.99C87.64 109.96 85.66 125.35 85.07 140.75L85.05 141.56L141.45 141.56L141.45 97.49L140.7 97.47C124.48 97.15 108.28 96.11 92.14 94.4L91.47 94.33ZM141.45 79.51L141.45 22.23L140.45 22.53C124.75 27.2 112.79 43.06 105.4 56.93C102.16 63.02 99.4 69.37 97.06 75.86L96.71 76.8L97.71 76.9C111.99 78.32 126.32 79.2 140.66 79.49L141.45 79.51ZM37.92 215.96L38.47 215.84C49.82 213.3 61.23 211.11 72.71 209.3L73.54 209.17L73.35 208.35C69.65 192.61 67.63 176.47 67.05 160.32L67.03 159.57L20.51 159.57L20.57 160.41C22.03 179.83 27.86 198.63 37.63 215.47L37.92 215.96ZM225.72 208.85L226.55 208.98C238.03 210.82 249.44 213.08 260.75 215.75L261.31 215.89L261.6 215.39C271.35 198.57 277.15 179.8 278.62 160.41L278.68 159.57L232.17 159.57L232.14 160.32C231.57 176.37 229.57 192.4 225.91 208.04L225.72 208.85ZM198.18 270.56L200.83 269.42C215.85 262.93 229.52 253.62 241.09 242.06C244.03 239.11 246.84 236.03 249.49 232.81L250.3 231.83L249.06 231.55C239.91 229.55 230.7 227.83 221.44 226.4L220.79 226.29L220.58 226.92C217.63 235.77 214.03 244.42 209.65 252.66C206.76 258.07 203.54 263.3 199.89 268.24L198.18 270.56ZM101 270.56L99.29 268.24C95.65 263.3 92.42 258.07 89.54 252.65C85.21 244.52 81.65 235.97 78.71 227.24L78.5 226.61L77.86 226.71C68.62 228.13 59.42 229.81 50.27 231.71L49.01 231.98L49.84 232.97C52.44 236.13 55.21 239.16 58.1 242.06C69.66 253.62 83.35 262.93 98.36 269.42L101 270.56ZM101 30.57L98.36 31.71C83.35 38.2 69.66 47.51 58.1 59.07C54.99 62.18 52.04 65.45 49.26 68.85L48.43 69.88L49.73 70.11C59.05 71.82 68.42 73.31 77.81 74.57L78.46 74.66L78.66 74.05C81.6 65.26 85.18 56.66 89.54 48.47C92.42 43.06 95.66 37.83 99.29 32.89L101 30.57ZM198.18 30.57L199.89 32.89C203.54 37.83 206.76 43.06 209.65 48.47C214.07 56.77 217.68 65.48 220.65 74.38L220.85 75L221.49 74.91C230.9 73.63 240.28 72.09 249.61 70.28L250.89 70.03L250.07 69.03C247.25 65.56 244.25 62.23 241.09 59.07C229.52 47.51 215.85 38.2 200.83 31.71L198.18 30.57ZM225.76 92.47L225.96 93.29C229.59 108.87 231.57 124.83 232.14 140.81L232.17 141.56L278.68 141.56L278.62 140.72C277.19 121.68 271.56 103.23 262.12 86.64L261.83 86.15L261.29 86.26C249.8 88.68 238.23 90.71 226.61 92.35L225.76 92.47ZM37.4 86.07L37.12 86.56C27.63 103.17 22.01 121.65 20.57 140.72L20.51 141.56L67.03 141.56L67.05 140.81C67.63 124.72 69.63 108.65 73.31 92.97L73.5 92.14L72.65 92.02C61.03 90.4 49.46 88.45 37.94 86.18L37.4 86.07Z" />
</svg>