<svg xmlns="http://www.w3.org/2000/svg" viewBox="0 0 300 300" width="300" height="300">
	<style>
		tspan { white-space:pre }
		.shp0 { fill: #f7f7f7 } 
		.shp1 { fill: #3966b0 } 
		.shp2 { fill: #eb2284 } 
	</style>
	<path id="Path 116" class="shp0" d="M150.5 296C230.86 296 296 230.86 296 150.5C296 70.15 230.86 5 150.5 5C70.15 5 5 70.15 5 150.5C5 230.86 70.15 296 150.5 296Z" />
	<path id="Path 117" class="shp1" d="M144.52 150.5C144.52 168.79 129.68 183.65 111.39 183.65C93.08 183.65 78.24 168.79 78.24 150.5C78.24 132.2 93.08 117.37 111.39 117.37C129.68 117.37 144.52 132.2 144.52 150.5Z" />
	<path id="Path 118" class="shp2" d="M222.76 150.5C222.76 168.79 207.93 183.65 189.63 183.65C171.33 183.65 156.49 168.79 156.49 150.5C156.49 132.2 171.33 117.37 189.63 117.37C207.93 117.37 222.76 132.2 222.76 150.5Z" />
</svg>