<?xml version="1.0" encoding="UTF-8" standalone="no"?><!-- Generator: Gravit.io --><svg xmlns="http://www.w3.org/2000/svg" xmlns:xlink="http://www.w3.org/1999/xlink" style="isolation:isolate" viewBox="0 0 250 250" width="250pt" height="250pt"><defs><clipPath id="_clipPath_fj0ECsXzTJdY6uLokCQKy6GiLU0yRf6e"><rect width="250" height="250"/></clipPath></defs><g clip-path="url(#_clipPath_fj0ECsXzTJdY6uLokCQKy6GiLU0yRf6e)"><defs><filter id="h2rxbfWiTx82K7GAYfOMmzaG53zmjmSX" x="-200%" y="-200%" width="400%" height="400%" filterUnits="objectBoundingBox" color-interpolation-filters="sRGB"><feGaussianBlur xmlns="http://www.w3.org/2000/svg" in="SourceGraphic" stdDeviation="2.146804531419514"/><feOffset xmlns="http://www.w3.org/2000/svg" dx="0" dy="0" result="pf_100_offsetBlur"/><feFlood xmlns="http://www.w3.org/2000/svg" flood-color="#000000" flood-opacity="0.65"/><feComposite xmlns="http://www.w3.org/2000/svg" in2="pf_100_offsetBlur" operator="in" result="pf_100_dropShadow"/><feBlend xmlns="http://www.w3.org/2000/svg" in="SourceGraphic" in2="pf_100_dropShadow" mode="normal"/></filter></defs><g filter="url(#h2rxbfWiTx82K7GAYfOMmzaG53zmjmSX)"><path d=" M 124.945 247.208 C 192.172 247.208 246.669 192.709 246.669 125.484 C 246.669 58.251 192.172 3.752 124.945 3.752 C 57.711 3.752 3.215 58.251 3.215 125.484 C 3.215 192.709 57.711 247.208 124.945 247.208 Z " fill="rgb(48,55,62)"/></g><path d=" M 74.933 122.343 C 74.712 122.343 77.345 128.02 77.414 128.02 C 83.171 138.455 94.26 144.952 112.975 146.74 C 110.3 148.763 107.102 152.616 106.652 157.062 C 103.293 159.229 96.54 159.946 91.296 158.293 C 83.938 155.966 81.117 141.411 70.106 143.489 C 67.721 143.933 68.199 145.512 70.26 146.845 C 73.613 149.014 76.776 151.735 79.211 157.515 C 81.084 161.955 85.02 169.887 97.467 169.887 C 102.402 169.887 105.86 169.288 105.86 169.288 C 105.86 169.288 105.951 180.623 105.951 185.031 C 105.951 190.117 99.098 191.549 99.098 193.989 C 99.098 194.961 101.367 195.054 103.188 195.054 C 106.792 195.054 114.297 192.043 114.297 186.758 C 114.297 182.56 114.366 168.449 114.366 165.982 C 114.366 160.592 117.261 158.881 117.261 158.881 C 117.261 158.881 117.617 187.688 116.568 191.549 C 115.34 196.084 113.11 195.441 113.11 197.464 C 113.11 200.483 122.149 198.203 125.143 191.594 C 127.456 186.444 126.446 158.185 126.446 158.185 L 128.921 158.133 C 128.921 158.133 129.051 171.066 128.968 176.988 C 128.888 183.112 128.472 190.851 132.106 194.505 C 134.494 196.909 142.24 201.121 142.24 197.271 C 142.24 195.035 137.998 193.194 137.998 187.139 L 137.998 159.273 C 141.388 159.273 140.88 168.441 140.88 168.441 L 141.12 185.464 C 141.12 185.464 140.38 191.663 147.843 194.26 C 150.476 195.181 156.098 195.427 156.374 193.884 C 156.636 192.336 149.587 190.037 149.526 185.232 C 149.477 182.304 149.653 180.595 149.653 167.864 C 149.653 155.125 147.945 150.422 141.978 146.671 C 160.37 144.789 171.763 140.232 177.313 128.061 C 177.743 128.07 179.576 122.365 179.328 122.365 C 180.572 117.77 181.254 112.327 181.381 105.886 C 181.351 88.413 172.983 82.236 171.376 79.336 C 173.75 66.108 170.982 60.094 169.693 58.027 C 164.951 56.343 153.208 62.368 146.789 66.604 C 136.326 63.549 114.203 63.839 105.909 67.397 C 90.6 56.432 82.503 58.118 82.503 58.118 C 82.503 58.118 77.27 67.488 81.117 81.21 C 76.086 87.626 72.327 92.164 72.327 104.194 C 72.336 110.983 73.139 117.052 74.933 122.343 Z " fill="rgb(254,254,254)"/></g></svg>