<?xml version="1.0" encoding="UTF-8" standalone="no"?><!-- Generator: Gravit.io --><svg xmlns="http://www.w3.org/2000/svg" xmlns:xlink="http://www.w3.org/1999/xlink" style="isolation:isolate" viewBox="0 0 250 250" width="250pt" height="250pt"><defs><clipPath id="_clipPath_dbKNdsGKPjG1aMsIz8hw3JdsSeJua7Mo"><rect width="250" height="250"/></clipPath></defs><g clip-path="url(#_clipPath_dbKNdsGKPjG1aMsIz8hw3JdsSeJua7Mo)"><defs><filter id="MyqCjv1WQJElaE79v7e5sBer49q1lrkN" x="-200%" y="-200%" width="400%" height="400%" filterUnits="objectBoundingBox" color-interpolation-filters="sRGB"><feGaussianBlur xmlns="http://www.w3.org/2000/svg" in="SourceGraphic" stdDeviation="2.146804531419514"/><feOffset xmlns="http://www.w3.org/2000/svg" dx="0" dy="0" result="pf_100_offsetBlur"/><feFlood xmlns="http://www.w3.org/2000/svg" flood-color="#000000" flood-opacity="0.65"/><feComposite xmlns="http://www.w3.org/2000/svg" in2="pf_100_offsetBlur" operator="in" result="pf_100_dropShadow"/><feBlend xmlns="http://www.w3.org/2000/svg" in="SourceGraphic" in2="pf_100_dropShadow" mode="normal"/></filter></defs><g filter="url(#MyqCjv1WQJElaE79v7e5sBer49q1lrkN)"><path d=" M 247 125 C 247 57.621 192.377 3.001 124.997 3.001 C 57.623 3.001 3 57.621 3 125 C 3 192.378 57.623 246.999 124.997 246.999 C 192.377 246.999 247 192.378 247 125 Z " fill="rgb(0,118,180)"/></g><path d=" M 54.728 190.107 L 54.728 83.732 L 83.548 83.732 L 83.548 190.107 L 54.728 190.107 Z " fill="rgb(255,255,255)"/><path d=" M 123.566 94.515 C 126.194 91.476 130.13 88.605 135.386 85.909 C 140.637 83.214 146.999 81.866 154.461 81.866 C 160.688 81.866 166.315 82.903 171.364 84.976 C 176.406 87.05 180.725 89.953 184.323 93.686 C 187.914 97.419 190.679 101.947 192.618 107.268 C 194.55 112.591 195.52 118.433 195.52 124.789 L 195.52 190.107 L 166.907 190.107 L 166.907 129.766 C 166.907 123.409 165.209 118.257 161.826 114.317 C 158.437 110.378 153.635 108.408 147.416 108.408 C 140.363 108.408 134.697 110.482 130.41 114.629 C 126.122 118.776 123.982 124.582 123.982 132.047 L 123.982 190.107 L 95.161 190.107 L 95.161 83.732 L 123.566 83.732 L 123.566 94.515 Z " fill="rgb(255,255,255)"/><path d=" M 83.802 60.682 C 83.802 52.585 77.238 46.02 69.138 46.02 C 61.038 46.02 54.474 52.585 54.474 60.682 C 54.474 68.779 61.038 75.344 69.138 75.344 C 77.238 75.344 83.802 68.779 83.802 60.682 Z " fill="rgb(255,255,255)"/></g></svg>