<?xml version="1.0" encoding="UTF-8" standalone="no"?><!-- Generator: Gravit.io --><svg xmlns="http://www.w3.org/2000/svg" xmlns:xlink="http://www.w3.org/1999/xlink" style="isolation:isolate" viewBox="0 0 250 250" width="250pt" height="250pt"><defs><clipPath id="_clipPath_mBoXK6KbZWa11d7CowAA2sE51ZubRVtn"><rect width="250" height="250"/></clipPath></defs><g clip-path="url(#_clipPath_mBoXK6KbZWa11d7CowAA2sE51ZubRVtn)"><path d=" M 3206.81 641.638 L 3202.45 641.638 C 3100.12 641.638 3017.17 724.589 3017.17 826.915 L 3017.17 831.279 C 3017.17 933.605 3100.12 1016.56 3202.45 1016.56 L 3206.81 1016.56 C 3309.14 1016.56 3392.09 933.605 3392.09 831.279 L 3392.09 826.915 C 3392.09 724.589 3309.14 641.638 3206.81 641.638 Z " fill="rgb(249,236,6)"/><path d=" M 3321.28 885.703 L 3321.27 885.702 C 3298.31 880.351 3281.36 865.062 3272.72 844.213 C 3268.84 834.86 3273.4 834.899 3279.34 832.111 C 3282.23 830.76 3285.3 829.83 3288.26 828.631 C 3292.07 827.086 3296.17 825.565 3299.32 822.827 C 3301.37 821.038 3302.96 818.532 3303.03 815.81 C 3303.12 811.834 3300.4 806.249 3296.88 804.404 C 3292.46 802.091 3284.61 803.656 3278.06 805.188 C 3272.79 806.423 3271.32 807.224 3272.12 800.111 C 3273.49 787.869 3273.63 778.242 3272.19 765.972 C 3269.97 747.119 3259.75 733.054 3243.91 723.765 C 3231.31 716.372 3217.91 713.524 3205.09 713.528 C 3204.94 713.528 3204.78 713.533 3204.63 713.534 C 3204.48 713.533 3204.32 713.528 3204.17 713.528 C 3191.35 713.524 3177.95 716.372 3165.35 723.765 C 3149.51 733.054 3139.29 747.119 3137.07 765.972 C 3135.62 778.242 3135.77 787.869 3137.14 800.111 C 3137.94 807.224 3136.47 806.423 3131.2 805.188 C 3124.65 803.656 3116.8 802.091 3112.38 804.404 C 3108.86 806.249 3106.13 811.834 3106.23 815.81 C 3106.3 818.532 3107.89 821.038 3109.94 822.827 C 3113.09 825.565 3117.18 827.086 3121 828.631 C 3123.96 829.83 3127.03 830.76 3129.91 832.111 C 3135.86 834.899 3140.42 834.86 3136.54 844.213 C 3127.9 865.062 3110.95 880.351 3087.99 885.702 L 3087.98 885.703 C 3076.77 890.283 3084.81 898.154 3084.81 898.154 C 3086.8 899.935 3089.1 901.566 3091.81 902.178 C 3097.44 903.447 3112.5 904.841 3117.61 913.932 C 3121.05 920.042 3123.3 929.347 3135.07 930.006 C 3145.67 930.029 3150.46 928.236 3155.49 927.224 C 3159.52 926.415 3166.04 927.489 3170.07 930.103 C 3170.24 930.21 3170.38 930.346 3170.53 930.47 C 3172.64 932.172 3174.98 933.593 3177.26 935.071 C 3186.69 941.192 3193.1 944.354 3202.76 944.644 L 3202.76 944.645 L 3202.79 944.645 C 3203.4 944.663 3204.01 944.67 3204.62 944.664 L 3204.62 944.626 L 3204.63 944.626 L 3204.64 944.626 L 3204.64 944.664 C 3205.25 944.67 3205.86 944.663 3206.47 944.645 L 3206.5 944.645 L 3206.5 944.644 C 3216.16 944.354 3222.56 941.192 3232 935.071 C 3234.28 933.593 3236.62 932.172 3238.73 930.47 C 3238.88 930.346 3239.02 930.21 3239.19 930.103 C 3243.22 927.489 3249.74 926.415 3253.77 927.224 C 3258.8 928.236 3263.59 930.029 3274.19 930.006 C 3285.96 929.347 3288.21 920.042 3291.65 913.932 C 3296.76 904.841 3311.82 903.447 3317.44 902.178 C 3320.15 901.566 3322.46 899.935 3324.45 898.154 C 3324.45 898.154 3332.48 890.283 3321.28 885.703 Z " fill="rgb(255,255,255)"/><defs><filter id="QTZH7rEbqcTVsFbTli5X2Bt7wdBGZKYk" x="-200%" y="-200%" width="400%" height="400%" filterUnits="objectBoundingBox" color-interpolation-filters="sRGB"><feGaussianBlur xmlns="http://www.w3.org/2000/svg" in="SourceGraphic" stdDeviation="2.146804531419514"/><feOffset xmlns="http://www.w3.org/2000/svg" dx="0" dy="0" result="pf_100_offsetBlur"/><feFlood xmlns="http://www.w3.org/2000/svg" flood-color="#000000" flood-opacity="0.65"/><feComposite xmlns="http://www.w3.org/2000/svg" in2="pf_100_offsetBlur" operator="in" result="pf_100_dropShadow"/><feBlend xmlns="http://www.w3.org/2000/svg" in="SourceGraphic" in2="pf_100_dropShadow" mode="normal"/></filter></defs><g filter="url(#QTZH7rEbqcTVsFbTli5X2Bt7wdBGZKYk)"><path d=" M 126.901 5 L 124.094 5 C 58.319 5 5 58.324 5 124.098 L 5 126.904 C 5 192.679 58.319 246 124.094 246 L 126.901 246 C 192.676 246 245.995 192.679 245.995 126.904 L 245.995 124.098 C 245.995 58.324 192.676 5 126.901 5 Z " fill="rgb(255,0,0)"/></g><path d=" M 161.205 59.139 C 132.398 42.769 91.989 51.679 74.378 76.961 C 56.76 102.242 63.771 121.929 65.136 124.83 C 66.5 127.731 74.863 147.642 87.85 142.237 C 87.85 142.237 95.721 139.75 87.85 123.586 C 79.972 107.423 85.942 92.65 96.549 82.763 C 107.155 72.876 120.175 66.392 136.13 69.294 C 152.086 72.194 160.778 87.152 161.205 89.602 C 162.085 94.658 171.268 126.05 146.983 145.308 C 143.814 147.821 139.907 149.294 135.859 149.318 C 125.84 149.378 123.738 140.994 123.738 140.994 C 123.738 140.994 126.804 125.451 128.046 120.686 C 129.106 116.635 133.841 99.57 129.772 92.752 C 129.772 92.752 125.459 84.006 113.384 88.151 L 113.261 88.196 C 101.464 92.231 96.277 113.1 102.531 125.469 L 101.315 128.707 C 101.315 128.707 87.015 175.393 88.264 194.457 C 88.509 196.271 88.775 197.738 89.04 198.934 L 89.04 198.935 L 89.053 198.984 C 89.615 201.473 90.21 202.752 90.838 203.401 C 92.5 206.191 95.333 208.234 99.427 202.274 C 100.681 200.853 102.117 198.5 103.76 194.641 L 103.76 194.641 C 107.44 187.779 110.001 179.795 112.058 171.308 C 114.25 164.501 115.822 159.229 115.822 159.229 C 115.822 159.229 128.802 170.416 142.759 167.725 C 159.963 164.41 175.964 158.917 184.255 131.77 C 192.54 104.623 190.012 75.51 161.205 59.139 Z " fill="rgb(255,255,255)"/></g></svg>