<svg xmlns="http://www.w3.org/2000/svg" viewBox="0 0 300 300" width="300" height="300">
	<style>
		tspan { white-space:pre }
		.shp0 { fill: #e0322a } 
		.shp1 { fill: #f3f7f6 } 
	</style>
	<path id="Path 299" class="shp0" d="M297 150.01C297 230.64 231.63 296.01 150.99 296C70.36 296 5 230.63 5 150C5 69.36 70.37 4 151 4C231.64 4 297 69.37 297 150.01Z" />
	<path id="Path 300" class="shp1" d="M162.1 188.51C151.7 187.71 147.33 182.55 139.17 177.59C134.68 201.12 129.2 223.69 112.96 235.46C107.95 199.9 120.32 173.19 126.07 144.83C116.27 128.34 127.25 95.16 147.9 103.33C173.33 113.39 125.89 164.64 157.73 171.04C190.98 177.72 204.55 113.35 183.94 92.42C154.15 62.19 97.23 91.73 104.23 135C105.93 145.58 116.86 148.79 108.59 163.39C89.53 159.17 83.84 144.13 84.56 124.08C85.75 91.27 114.06 68.29 142.45 65.11C178.36 61.09 212.06 78.3 216.71 112.07C221.94 150.19 200.49 191.48 162.1 188.51Z" />
</svg>