<?xml version="1.0" encoding="UTF-8" standalone="no"?><!-- Generator: Gravit.io --><svg xmlns="http://www.w3.org/2000/svg" xmlns:xlink="http://www.w3.org/1999/xlink" style="isolation:isolate" viewBox="0 0 250 250" width="250pt" height="250pt"><defs><clipPath id="_clipPath_eDxX31o0EOqoaVmaWHdhGugKha8lqXPg"><rect width="250" height="250"/></clipPath></defs><g clip-path="url(#_clipPath_eDxX31o0EOqoaVmaWHdhGugKha8lqXPg)"><defs><filter id="diLvCC59gY18WmfahfQpS20loqC6M2nQ" x="-200%" y="-200%" width="400%" height="400%" filterUnits="objectBoundingBox" color-interpolation-filters="sRGB"><feGaussianBlur xmlns="http://www.w3.org/2000/svg" in="SourceGraphic" stdDeviation="2.146804531419514"/><feOffset xmlns="http://www.w3.org/2000/svg" dx="0" dy="0" result="pf_100_offsetBlur"/><feFlood xmlns="http://www.w3.org/2000/svg" flood-color="#000000" flood-opacity="0.65"/><feComposite xmlns="http://www.w3.org/2000/svg" in2="pf_100_offsetBlur" operator="in" result="pf_100_dropShadow"/><feBlend xmlns="http://www.w3.org/2000/svg" in="SourceGraphic" in2="pf_100_dropShadow" mode="normal"/></filter></defs><g filter="url(#diLvCC59gY18WmfahfQpS20loqC6M2nQ)"><path d=" M 125.904 3.877 C 59.045 3.877 4.842 58.08 4.842 124.938 C 4.842 191.8 59.045 245.997 125.904 245.997 C 192.766 245.997 246.966 191.8 246.966 124.938 C 246.966 58.08 192.766 3.877 125.904 3.877 Z " fill="rgb(239,91,57)"/></g><path d=" M 196.502 120.388 C 196.502 111.114 188.893 103.574 179.531 103.574 C 175.483 103.574 171.761 104.993 168.835 107.348 C 158.49 100.903 145.359 97.022 131.287 96.199 L 138.626 73.193 L 158.806 77.905 C 159.335 85.184 165.478 90.943 172.957 90.943 C 180.78 90.943 187.145 84.635 187.145 76.879 C 187.145 69.128 180.78 62.817 172.957 62.817 C 167.49 62.817 162.728 65.905 160.362 70.412 L 136.911 64.942 C 134.946 64.483 132.961 65.603 132.349 67.508 L 123.234 96.062 C 108.067 96.429 93.813 100.321 82.705 107.148 C 79.823 104.911 76.198 103.574 72.27 103.574 C 62.91 103.574 55.294 111.114 55.294 120.388 C 55.294 126.122 58.212 131.194 62.644 134.224 C 62.46 135.561 62.361 136.898 62.361 138.259 C 62.361 149.85 69.16 160.637 81.509 168.618 C 93.344 176.273 109.008 180.489 125.616 180.489 C 142.219 180.489 157.883 176.273 169.716 168.618 C 182.064 160.637 188.86 149.85 188.86 138.259 C 188.86 137.021 188.784 135.797 188.627 134.573 C 193.356 131.587 196.502 126.347 196.502 120.388 Z  M 172.957 70.462 C 176.534 70.462 179.44 73.341 179.44 76.879 C 179.44 80.422 176.534 83.301 172.957 83.301 C 169.381 83.301 166.477 80.422 166.477 76.879 C 166.477 73.341 169.381 70.462 172.957 70.462 Z  M 95.339 130.793 C 95.339 125.57 99.758 121.184 105.034 121.184 C 110.315 121.184 114.594 125.57 114.594 130.793 C 114.594 136.019 110.315 140.265 105.034 140.265 C 99.758 140.265 95.339 136.019 95.339 130.793 Z  M 149.144 158.644 C 144.228 163.51 136.647 165.876 125.973 165.876 C 125.946 165.876 125.927 165.874 125.894 165.874 C 125.872 165.874 125.847 165.876 125.822 165.876 C 115.143 165.876 107.564 163.51 102.651 158.644 C 101.144 157.151 101.144 154.736 102.651 153.24 C 104.161 151.749 106.601 151.749 108.113 153.24 C 111.498 156.599 117.292 158.235 125.822 158.235 C 125.847 158.235 125.872 158.238 125.894 158.238 C 125.927 158.238 125.946 158.235 125.973 158.235 C 134.504 158.235 140.301 156.599 143.691 153.24 C 145.2 151.747 147.64 151.749 149.144 153.24 C 150.651 154.736 150.651 157.156 149.144 158.644 Z  M 146.904 140.265 C 141.629 140.265 137.196 136.019 137.196 130.793 C 137.196 125.565 141.629 121.184 146.904 121.184 C 152.185 121.184 156.464 125.565 156.464 130.793 C 156.464 136.019 152.185 140.265 146.904 140.265 Z " fill="rgb(254,254,254)"/></g></svg>