<svg xmlns="http://www.w3.org/2000/svg" viewBox="0 0 300 300" width="300" height="300">
	<style>
		tspan { white-space:pre }
		.shp0 { fill: #39b1e3 } 
		.shp1 { fill: #ffffff } 
	</style>
	<path id="Path 57" class="shp0" d="M297 151C297 232.18 231.19 298 150 298C68.82 298 3 232.18 3 151C3 69.81 68.82 4 150 4C231.19 4 297 69.81 297 151Z" />
	<path id="Path 58" fill-rule="evenodd" class="shp1" d="M223.03 169.12C225.87 174.78 227.48 181.15 227.48 187.88C227.48 211.23 208.3 230.14 184.62 230.14C177.29 230.14 170.39 228.33 164.35 225.13C159.97 225.93 155.44 226.35 150.82 226.35C110 226.35 76.91 193.73 76.91 153.48C76.91 148.47 77.43 143.56 78.41 138.83C74.67 132.55 72.52 125.26 72.52 117.46C72.52 94.11 91.7 75.19 115.38 75.19C123.76 75.19 131.58 77.57 138.18 81.68C142.3 80.98 146.51 80.61 150.82 80.61C191.64 80.61 224.72 113.24 224.72 153.48C224.72 158.85 224.14 164.07 223.03 169.12ZM193.9 172.05C193.9 167.03 192.9 162.71 190.9 159.22C188.9 155.72 186.11 152.81 182.56 150.54C179.09 148.31 174.84 146.4 169.91 144.85C165.06 143.31 159.56 141.89 153.58 140.63C148.86 139.55 145.41 138.72 143.35 138.16C141.36 137.61 139.35 136.84 137.4 135.89C135.53 134.95 134.04 133.85 133.01 132.58C132 131.38 131.52 130 131.52 128.34C131.52 125.63 133.03 123.35 136.1 121.35C139.29 119.29 143.61 118.24 148.9 118.24C154.62 118.24 158.76 119.17 161.25 121.04C163.8 122.96 166.04 125.69 167.89 129.13C169.47 131.84 170.91 133.72 172.3 134.94C173.78 136.22 175.92 136.88 178.66 136.88C181.67 136.88 184.22 135.83 186.25 133.76C188.26 131.69 189.28 129.33 189.28 126.72C189.28 124.01 188.5 121.22 186.97 118.41C185.47 115.63 183.04 112.95 179.78 110.45C176.55 107.97 172.45 105.94 167.58 104.45C162.73 102.97 156.93 102.21 150.34 102.21C142.08 102.21 134.79 103.35 128.65 105.58C122.43 107.84 117.6 111.15 114.3 115.4C110.97 119.67 109.28 124.64 109.28 130.14C109.28 135.93 110.89 140.82 114.07 144.75C117.19 148.6 121.46 151.69 126.76 153.92C131.94 156.08 138.46 158.01 146.13 159.62C151.77 160.78 156.34 161.9 159.69 162.93C162.9 163.94 165.56 165.37 167.58 167.23C169.5 169 170.43 171.27 170.43 174.14C170.43 177.78 168.64 180.76 164.96 183.22C161.19 185.77 156.17 187.06 150.07 187.06C145.63 187.06 142.02 186.41 139.34 185.16C136.68 183.92 134.59 182.33 133.14 180.44C131.64 178.48 130.21 175.99 128.89 173.02C127.73 170.3 126.27 168.2 124.56 166.78C122.78 165.29 120.59 164.55 118.05 164.55C114.95 164.55 112.35 165.5 110.35 167.38C108.3 169.27 107.25 171.59 107.25 174.25C107.25 178.53 108.85 182.96 111.98 187.42C115.09 191.85 119.19 195.42 124.15 198.07C131.1 201.7 140 203.54 150.63 203.54C159.46 203.54 167.23 202.2 173.71 199.54C180.26 196.86 185.31 193.07 188.73 188.31C192.15 183.52 193.9 178.05 193.9 172.05Z" />
</svg>