<?xml version="1.0" encoding="UTF-8" standalone="no"?><!-- Generator: Gravit.io --><svg xmlns="http://www.w3.org/2000/svg" xmlns:xlink="http://www.w3.org/1999/xlink" style="isolation:isolate" viewBox="0 0 250 250" width="250pt" height="250pt"><defs><clipPath id="_clipPath_5WNxeM8lxkb8BYG76EY1SUl9Nn6ZdRHT"><rect width="250" height="250"/></clipPath></defs><g clip-path="url(#_clipPath_5WNxeM8lxkb8BYG76EY1SUl9Nn6ZdRHT)"><path d=" M 3206.81 641.638 L 3202.45 641.638 C 3100.12 641.638 3017.17 724.589 3017.17 826.915 L 3017.17 831.279 C 3017.17 933.605 3100.12 1016.56 3202.45 1016.56 L 3206.81 1016.56 C 3309.14 1016.56 3392.09 933.605 3392.09 831.279 L 3392.09 826.915 C 3392.09 724.589 3309.14 641.638 3206.81 641.638 Z " fill="rgb(249,236,6)"/><path d=" M 3321.28 885.703 L 3321.27 885.702 C 3298.31 880.351 3281.36 865.062 3272.72 844.213 C 3268.84 834.86 3273.4 834.899 3279.34 832.111 C 3282.23 830.76 3285.3 829.83 3288.26 828.631 C 3292.07 827.086 3296.17 825.565 3299.32 822.827 C 3301.37 821.038 3302.96 818.532 3303.03 815.81 C 3303.12 811.834 3300.4 806.249 3296.88 804.404 C 3292.46 802.091 3284.61 803.656 3278.06 805.188 C 3272.79 806.423 3271.32 807.224 3272.12 800.111 C 3273.49 787.869 3273.63 778.242 3272.19 765.972 C 3269.97 747.119 3259.75 733.054 3243.91 723.765 C 3231.31 716.372 3217.91 713.524 3205.09 713.528 C 3204.94 713.528 3204.78 713.533 3204.63 713.534 C 3204.48 713.533 3204.32 713.528 3204.17 713.528 C 3191.35 713.524 3177.95 716.372 3165.35 723.765 C 3149.51 733.054 3139.29 747.119 3137.07 765.972 C 3135.62 778.242 3135.77 787.869 3137.14 800.111 C 3137.94 807.224 3136.47 806.423 3131.2 805.188 C 3124.65 803.656 3116.8 802.091 3112.38 804.404 C 3108.86 806.249 3106.13 811.834 3106.23 815.81 C 3106.3 818.532 3107.89 821.038 3109.94 822.827 C 3113.09 825.565 3117.18 827.086 3121 828.631 C 3123.96 829.83 3127.03 830.76 3129.91 832.111 C 3135.86 834.899 3140.42 834.86 3136.54 844.213 C 3127.9 865.062 3110.95 880.351 3087.99 885.702 L 3087.98 885.703 C 3076.77 890.283 3084.81 898.154 3084.81 898.154 C 3086.8 899.935 3089.1 901.566 3091.81 902.178 C 3097.44 903.447 3112.5 904.841 3117.61 913.932 C 3121.05 920.042 3123.3 929.347 3135.07 930.006 C 3145.67 930.029 3150.46 928.236 3155.49 927.224 C 3159.52 926.415 3166.04 927.489 3170.07 930.103 C 3170.24 930.21 3170.38 930.346 3170.53 930.47 C 3172.64 932.172 3174.98 933.593 3177.26 935.071 C 3186.69 941.192 3193.1 944.354 3202.76 944.644 L 3202.76 944.645 L 3202.79 944.645 C 3203.4 944.663 3204.01 944.67 3204.62 944.664 L 3204.62 944.626 L 3204.63 944.626 L 3204.64 944.626 L 3204.64 944.664 C 3205.25 944.67 3205.86 944.663 3206.47 944.645 L 3206.5 944.645 L 3206.5 944.644 C 3216.16 944.354 3222.56 941.192 3232 935.071 C 3234.28 933.593 3236.62 932.172 3238.73 930.47 C 3238.88 930.346 3239.02 930.21 3239.19 930.103 C 3243.22 927.489 3249.74 926.415 3253.77 927.224 C 3258.8 928.236 3263.59 930.029 3274.19 930.006 C 3285.96 929.347 3288.21 920.042 3291.65 913.932 C 3296.76 904.841 3311.82 903.447 3317.44 902.178 C 3320.15 901.566 3322.46 899.935 3324.45 898.154 C 3324.45 898.154 3332.48 890.283 3321.28 885.703 Z " fill="rgb(255,255,255)"/><defs><filter id="sgcIP76688E9E6Opf894RIDu9Ekny9Bs" x="-200%" y="-200%" width="400%" height="400%" filterUnits="objectBoundingBox" color-interpolation-filters="sRGB"><feGaussianBlur xmlns="http://www.w3.org/2000/svg" in="SourceGraphic" stdDeviation="2.146804531419514"/><feOffset xmlns="http://www.w3.org/2000/svg" dx="0" dy="0" result="pf_100_offsetBlur"/><feFlood xmlns="http://www.w3.org/2000/svg" flood-color="#000000" flood-opacity="0.65"/><feComposite xmlns="http://www.w3.org/2000/svg" in2="pf_100_offsetBlur" operator="in" result="pf_100_dropShadow"/><feBlend xmlns="http://www.w3.org/2000/svg" in="SourceGraphic" in2="pf_100_dropShadow" mode="normal"/></filter></defs><g filter="url(#sgcIP76688E9E6Opf894RIDu9Ekny9Bs)"><path d=" M 126.382 8.504 L 123.615 8.504 C 58.66 8.504 6.007 60.942 6.007 125.628 L 6.007 128.387 C 6.007 193.073 58.66 245.514 123.615 245.514 L 126.382 245.514 C 191.337 245.514 243.99 193.073 243.99 128.387 L 243.99 125.628 C 243.99 60.942 191.337 8.504 126.382 8.504 Z " fill="rgb(249,236,6)"/></g><mask id="_mask_97RlgczMCazZfk50t2FjCLJvZVRz2x0d"><path d=" M 202.783 162.745 L 202.777 162.744 C 187.467 159.176 176.164 148.981 170.403 135.079 C 167.816 128.842 170.856 128.868 174.817 127.009 C 176.744 126.108 178.791 125.488 180.765 124.689 C 183.306 123.658 186.04 122.644 188.14 120.818 C 189.507 119.625 190.567 117.954 190.614 116.139 C 190.674 113.488 188.86 109.764 186.513 108.534 C 183.566 106.991 178.331 108.035 173.964 109.057 C 170.45 109.88 169.47 110.414 170.003 105.671 C 170.916 97.508 171.01 91.089 170.05 82.907 C 168.569 70.336 161.754 60.957 151.192 54.763 C 142.79 49.833 133.855 47.934 125.307 47.937 C 125.207 47.937 125.1 47.94 125 47.941 C 124.9 47.94 124.793 47.937 124.693 47.937 C 116.145 47.934 107.21 49.833 98.808 54.763 C 88.246 60.957 81.431 70.336 79.95 82.907 C 78.984 91.089 79.084 97.508 79.997 105.671 C 80.53 110.414 79.55 109.88 76.036 109.057 C 71.669 108.035 66.434 106.991 63.487 108.534 C 61.14 109.764 59.319 113.488 59.386 116.139 C 59.433 117.954 60.493 119.625 61.86 120.818 C 63.96 122.644 66.688 123.658 69.235 124.689 C 71.209 125.488 73.256 126.108 75.176 127.009 C 79.144 128.868 82.184 128.842 79.597 135.079 C 73.836 148.981 62.533 159.176 47.223 162.744 L 47.217 162.745 C 39.742 165.799 45.103 171.047 45.103 171.047 C 46.43 172.235 47.964 173.322 49.771 173.73 C 53.525 174.577 63.567 175.506 66.974 181.568 C 69.268 185.642 70.768 191.847 78.617 192.286 C 85.685 192.302 88.879 191.106 92.233 190.431 C 94.92 189.892 99.268 190.608 101.955 192.351 C 102.068 192.422 102.162 192.513 102.262 192.596 C 103.669 193.731 105.229 194.678 106.749 195.664 C 113.037 199.745 117.312 201.854 123.753 202.047 L 123.753 202.048 L 123.773 202.048 C 124.18 202.06 124.587 202.064 124.993 202.06 L 124.993 202.035 L 125 202.035 L 125.007 202.035 L 125.007 202.06 C 125.413 202.064 125.82 202.06 126.227 202.048 L 126.247 202.048 L 126.247 202.047 C 132.688 201.854 136.956 199.745 143.251 195.664 C 144.771 194.678 146.331 193.731 147.738 192.596 C 147.838 192.513 147.932 192.422 148.045 192.351 C 150.732 190.608 155.08 189.892 157.767 190.431 C 161.121 191.106 164.315 192.302 171.383 192.286 C 179.232 191.847 180.732 185.642 183.026 181.568 C 186.433 175.506 196.475 174.577 200.223 173.73 C 202.03 173.322 203.57 172.235 204.897 171.047 C 204.897 171.047 210.251 165.799 202.783 162.745 Z " fill="white" stroke="none"/></mask><path d=" M 202.783 162.745 L 202.777 162.744 C 187.467 159.176 176.164 148.981 170.403 135.079 C 167.816 128.842 170.856 128.868 174.817 127.009 C 176.744 126.108 178.791 125.488 180.765 124.689 C 183.306 123.658 186.04 122.644 188.14 120.818 C 189.507 119.625 190.567 117.954 190.614 116.139 C 190.674 113.488 188.86 109.764 186.513 108.534 C 183.566 106.991 178.331 108.035 173.964 109.057 C 170.45 109.88 169.47 110.414 170.003 105.671 C 170.916 97.508 171.01 91.089 170.05 82.907 C 168.569 70.336 161.754 60.957 151.192 54.763 C 142.79 49.833 133.855 47.934 125.307 47.937 C 125.207 47.937 125.1 47.94 125 47.941 C 124.9 47.94 124.793 47.937 124.693 47.937 C 116.145 47.934 107.21 49.833 98.808 54.763 C 88.246 60.957 81.431 70.336 79.95 82.907 C 78.984 91.089 79.084 97.508 79.997 105.671 C 80.53 110.414 79.55 109.88 76.036 109.057 C 71.669 108.035 66.434 106.991 63.487 108.534 C 61.14 109.764 59.319 113.488 59.386 116.139 C 59.433 117.954 60.493 119.625 61.86 120.818 C 63.96 122.644 66.688 123.658 69.235 124.689 C 71.209 125.488 73.256 126.108 75.176 127.009 C 79.144 128.868 82.184 128.842 79.597 135.079 C 73.836 148.981 62.533 159.176 47.223 162.744 L 47.217 162.745 C 39.742 165.799 45.103 171.047 45.103 171.047 C 46.43 172.235 47.964 173.322 49.771 173.73 C 53.525 174.577 63.567 175.506 66.974 181.568 C 69.268 185.642 70.768 191.847 78.617 192.286 C 85.685 192.302 88.879 191.106 92.233 190.431 C 94.92 189.892 99.268 190.608 101.955 192.351 C 102.068 192.422 102.162 192.513 102.262 192.596 C 103.669 193.731 105.229 194.678 106.749 195.664 C 113.037 199.745 117.312 201.854 123.753 202.047 L 123.753 202.048 L 123.773 202.048 C 124.18 202.06 124.587 202.064 124.993 202.06 L 124.993 202.035 L 125 202.035 L 125.007 202.035 L 125.007 202.06 C 125.413 202.064 125.82 202.06 126.227 202.048 L 126.247 202.048 L 126.247 202.047 C 132.688 201.854 136.956 199.745 143.251 195.664 C 144.771 194.678 146.331 193.731 147.738 192.596 C 147.838 192.513 147.932 192.422 148.045 192.351 C 150.732 190.608 155.08 189.892 157.767 190.431 C 161.121 191.106 164.315 192.302 171.383 192.286 C 179.232 191.847 180.732 185.642 183.026 181.568 C 186.433 175.506 196.475 174.577 200.223 173.73 C 202.03 173.322 203.57 172.235 204.897 171.047 C 204.897 171.047 210.251 165.799 202.783 162.745 Z " fill="rgb(255,255,255)"/><path d=" M 202.783 162.745 L 202.777 162.744 C 187.467 159.176 176.164 148.981 170.403 135.079 C 167.816 128.842 170.856 128.868 174.817 127.009 C 176.744 126.108 178.791 125.488 180.765 124.689 C 183.306 123.658 186.04 122.644 188.14 120.818 C 189.507 119.625 190.567 117.954 190.614 116.139 C 190.674 113.488 188.86 109.764 186.513 108.534 C 183.566 106.991 178.331 108.035 173.964 109.057 C 170.45 109.88 169.47 110.414 170.003 105.671 C 170.916 97.508 171.01 91.089 170.05 82.907 C 168.569 70.336 161.754 60.957 151.192 54.763 C 142.79 49.833 133.855 47.934 125.307 47.937 C 125.207 47.937 125.1 47.94 125 47.941 C 124.9 47.94 124.793 47.937 124.693 47.937 C 116.145 47.934 107.21 49.833 98.808 54.763 C 88.246 60.957 81.431 70.336 79.95 82.907 C 78.984 91.089 79.084 97.508 79.997 105.671 C 80.53 110.414 79.55 109.88 76.036 109.057 C 71.669 108.035 66.434 106.991 63.487 108.534 C 61.14 109.764 59.319 113.488 59.386 116.139 C 59.433 117.954 60.493 119.625 61.86 120.818 C 63.96 122.644 66.688 123.658 69.235 124.689 C 71.209 125.488 73.256 126.108 75.176 127.009 C 79.144 128.868 82.184 128.842 79.597 135.079 C 73.836 148.981 62.533 159.176 47.223 162.744 L 47.217 162.745 C 39.742 165.799 45.103 171.047 45.103 171.047 C 46.43 172.235 47.964 173.322 49.771 173.73 C 53.525 174.577 63.567 175.506 66.974 181.568 C 69.268 185.642 70.768 191.847 78.617 192.286 C 85.685 192.302 88.879 191.106 92.233 190.431 C 94.92 189.892 99.268 190.608 101.955 192.351 C 102.068 192.422 102.162 192.513 102.262 192.596 C 103.669 193.731 105.229 194.678 106.749 195.664 C 113.037 199.745 117.312 201.854 123.753 202.047 L 123.753 202.048 L 123.773 202.048 C 124.18 202.06 124.587 202.064 124.993 202.06 L 124.993 202.035 L 125 202.035 L 125.007 202.035 L 125.007 202.06 C 125.413 202.064 125.82 202.06 126.227 202.048 L 126.247 202.048 L 126.247 202.047 C 132.688 201.854 136.956 199.745 143.251 195.664 C 144.771 194.678 146.331 193.731 147.738 192.596 C 147.838 192.513 147.932 192.422 148.045 192.351 C 150.732 190.608 155.08 189.892 157.767 190.431 C 161.121 191.106 164.315 192.302 171.383 192.286 C 179.232 191.847 180.732 185.642 183.026 181.568 C 186.433 175.506 196.475 174.577 200.223 173.73 C 202.03 173.322 203.57 172.235 204.897 171.047 C 204.897 171.047 210.251 165.799 202.783 162.745 Z " fill="rgb(255,255,255)" mask="url(#_mask_97RlgczMCazZfk50t2FjCLJvZVRz2x0d)" vector-effect="non-scaling-stroke" stroke-width="4" stroke="rgb(0,0,0)" stroke-linejoin="miter" stroke-linecap="square" stroke-miterlimit="3"/></g></svg>