<svg xmlns="http://www.w3.org/2000/svg" viewBox="0 0 300 300" width="300" height="300">
	<style>
		tspan { white-space:pre }
		.shp0 { fill: #f26a2b } 
		.shp1 { fill: #ffffff } 
	</style>
	<path id="Path 45" class="shp0" d="M298 147.51C298 228.97 231.96 295 150.5 295C69.03 295 3 228.97 3 147.51C3 66.04 69.03 0 150.5 0C231.96 0 298 66.04 298 147.51Z" />
	<path id="Path 46" class="shp1" d="M230.38 182.74L158.14 182.74C156.58 182.59 155.35 181.34 155.32 179.74L155.32 97.04C155.35 95.52 155.87 94.73 157.83 93.98C162.89 92.02 168.62 90.86 174.51 90.86C198.54 90.86 218.22 109.29 220.31 132.77C223.4 131.47 226.82 130.74 230.38 130.74C244.77 130.74 256.43 142.41 256.43 156.8C256.43 171.2 244.77 182.74 230.38 182.74ZM152.87 179.86L152.87 179.83C152.85 181.4 151.56 182.69 150 182.69C148.44 182.69 147.15 181.4 147.14 179.84L146.55 169.33L145.97 158.55L147.14 100.13L147.14 99.84C147.14 98.96 147.56 98.16 148.2 97.62C148.69 97.22 149.33 96.98 150 96.98C150.54 96.98 151.04 97.13 151.47 97.38C152.29 97.89 152.85 98.79 152.88 99.83L154.15 158.55L152.87 179.86ZM143.9 178L143.79 180.13C143.78 180.88 143.47 181.55 142.98 182.04C142.5 182.51 141.83 182.82 141.11 182.82C140.28 182.82 139.55 182.44 139.05 181.84C138.68 181.4 138.45 180.84 138.42 180.25C138.42 180.22 138.42 180.18 138.42 180.15C138.42 180.15 137.39 158.55 137.39 158.51L138.41 105.22L138.42 104.71C138.42 103.77 138.92 102.93 139.67 102.46C140.08 102.19 140.56 102.03 141.11 102.03C141.65 102.03 142.16 102.19 142.58 102.48C143.3 102.97 143.78 103.78 143.79 104.71L144.92 158.54L143.9 178ZM134.67 180.3L134.67 180.28C134.65 181.68 133.54 182.77 132.17 182.77C130.79 182.77 129.69 181.68 129.65 180.3L128.54 158.53L129.65 113.3C129.69 111.9 130.79 110.8 132.17 110.8C133.54 110.8 134.65 111.9 134.67 113.3L135.94 158.54L134.67 180.3ZM125.62 180.43L125.62 180.42C125.58 181.71 124.57 182.73 123.28 182.73C122.03 182.73 121 181.71 120.98 180.43L119.74 158.53L120.96 111.58C121 110.28 122.03 109.27 123.28 109.27C124.57 109.27 125.58 110.28 125.62 111.58L127 158.53L125.62 180.43ZM116.64 180.62C116.6 181.82 115.66 182.76 114.5 182.76C113.33 182.76 112.4 181.82 112.36 180.64L111.01 158.53L112.36 110.35C112.4 109.16 113.33 108.22 114.5 108.22C115.66 108.22 116.6 109.16 116.64 110.35L118.14 158.53L116.64 180.62ZM107.73 180.77L107.73 180.76C107.69 181.86 106.83 182.7 105.76 182.7C104.7 182.7 103.84 181.86 103.8 180.77L102.36 158.53C102.36 158.53 103.8 111.92 103.8 111.91C103.84 110.83 104.7 109.96 105.76 109.96C106.83 109.96 107.69 110.83 107.73 111.91L109.36 158.53L107.73 180.77ZM98.76 181.12L98.76 181.11C98.7 182.09 97.92 182.88 96.96 182.88C96.01 182.88 95.23 182.09 95.18 181.11L93.63 158.63L95.18 115.62C95.23 114.63 96.01 113.85 96.96 113.85C97.92 113.85 98.7 114.63 98.76 115.62L100.5 158.63L98.76 181.12ZM90.11 181.14L90.11 181.12C90.05 182.01 89.36 182.71 88.5 182.71C87.65 182.71 86.94 182.01 86.89 181.14L85.25 158.51L86.89 123.51C86.94 122.61 87.65 121.91 88.5 121.91C89.36 121.91 90.05 122.61 90.11 123.5L91.97 158.51L90.11 181.14ZM81.4 181.12C81.35 181.92 80.73 182.52 79.98 182.52C79.21 182.52 78.6 181.92 78.55 181.12L76.79 158.5L78.55 136.98C78.6 136.18 79.21 135.58 79.98 135.58C80.74 135.58 81.35 136.18 81.4 136.97L83.39 158.5L81.4 181.12ZM72.77 180.94C72.71 181.63 72.17 182.16 71.52 182.16C70.86 182.16 70.32 181.63 70.27 180.94L68.41 158.5L70.27 135.31C70.32 134.6 70.86 134.08 71.52 134.08C72.17 134.08 72.71 134.6 72.77 135.31L74.88 158.5L72.77 180.94ZM64.18 180.25C64.12 180.86 63.67 181.28 63.12 181.28C62.56 181.28 62.12 180.86 62.06 180.25L60.09 158.5L62.06 135.93C62.11 135.31 62.56 134.88 63.12 134.88C63.67 134.88 64.12 135.31 64.18 135.93L66.43 158.5L64.18 180.25ZM55.69 177.1C55.61 177.6 55.25 177.95 54.8 177.95C54.36 177.95 53.98 177.6 53.92 177.1L51.84 158.49L53.92 139.46C53.98 138.98 54.36 138.6 54.8 138.6C55.25 138.6 55.61 138.96 55.69 139.46L58.06 158.49L55.69 177.1ZM47.81 170.07C47.74 170.55 47.4 170.88 46.96 170.88C46.52 170.88 46.18 170.55 46.11 170.06L44.57 158.49L46.11 146.73C46.18 146.23 46.52 145.89 46.96 145.89C47.4 145.89 47.74 146.23 47.81 146.73L49.66 158.5" />
</svg>