<?xml version="1.0" encoding="UTF-8" standalone="no"?><!-- Generator: Gravit.io --><svg xmlns="http://www.w3.org/2000/svg" xmlns:xlink="http://www.w3.org/1999/xlink" style="isolation:isolate" viewBox="0 0 250 250" width="250pt" height="250pt"><defs><clipPath id="_clipPath_pscTIFKmP8cjYDJQgAmyiNb2thGNmrFj"><rect width="250" height="250"/></clipPath></defs><g clip-path="url(#_clipPath_pscTIFKmP8cjYDJQgAmyiNb2thGNmrFj)"><defs><filter id="ItFWIr8SvGIQNssl1qnZNkwg2NL0T7zi" x="-200%" y="-200%" width="400%" height="400%" filterUnits="objectBoundingBox" color-interpolation-filters="sRGB"><feGaussianBlur xmlns="http://www.w3.org/2000/svg" in="SourceGraphic" stdDeviation="2.146804531419514"/><feOffset xmlns="http://www.w3.org/2000/svg" dx="0" dy="0" result="pf_100_offsetBlur"/><feFlood xmlns="http://www.w3.org/2000/svg" flood-color="#000000" flood-opacity="0.65"/><feComposite xmlns="http://www.w3.org/2000/svg" in2="pf_100_offsetBlur" operator="in" result="pf_100_dropShadow"/><feBlend xmlns="http://www.w3.org/2000/svg" in="SourceGraphic" in2="pf_100_dropShadow" mode="normal"/></filter></defs><g filter="url(#ItFWIr8SvGIQNssl1qnZNkwg2NL0T7zi)"><path d=" M 246 125 C 246 58.173 191.822 4 124.997 4 C 58.172 4 4 58.173 4 125 C 4 191.827 58.172 246 124.997 246 C 191.822 246 246 191.827 246 125 Z " fill="rgb(0,0,0)"/></g><path d=" M 124.997 48.819 C 82.927 48.819 48.816 82.927 48.816 125.001 C 48.816 167.075 82.927 201.182 124.997 201.182 C 167.073 201.182 201.177 167.075 201.177 125.001 C 201.177 82.927 167.073 48.819 124.997 48.819 Z " fill="rgb(102,210,109)"/><path d=" M 171.903 116.606 C 136.793 96.158 94.353 103.151 79.811 106.45 C 76.876 107.116 73.929 105.415 73.052 102.537 L 73.013 102.412 C 72.039 99.231 73.974 95.898 77.214 95.155 C 83.699 93.67 94.996 91.575 108.76 91.08 C 134.91 90.14 158.594 95.494 177.721 106.599 C 180.59 108.268 181.492 111.992 179.649 114.757 L 179.584 114.854 C 177.896 117.386 174.533 118.137 171.903 116.606 Z " fill="rgb(0,0,0)"/><path d=" M 161.548 139.619 C 133.015 121.184 96.457 127.404 83.777 130.377 C 81.18 130.986 78.558 129.492 77.759 126.949 L 77.727 126.833 C 76.837 124.011 78.532 121.032 81.408 120.351 C 87.095 119.005 96.937 117.121 108.786 116.699 C 131.366 115.897 151.433 120.836 167.216 131.032 C 169.683 132.626 170.254 135.995 168.488 138.344 L 168.43 138.426 C 166.813 140.581 163.814 141.08 161.548 139.619 Z " fill="rgb(0,0,0)"/><path d=" M 153.452 160.522 C 128.158 144.448 97.32 150.466 86.543 153.325 C 84.297 153.921 81.972 152.701 81.193 150.51 L 81.154 150.399 C 80.284 147.953 81.674 145.287 84.18 144.605 C 96.281 141.306 129.801 134.732 158.322 152.942 C 160.484 154.325 161.022 157.264 159.503 159.336 L 159.445 159.409 C 158.055 161.304 155.439 161.784 153.452 160.522 Z " fill="rgb(0,0,0)"/></g></svg>