<svg xmlns="http://www.w3.org/2000/svg" viewBox="0 0 300 300" width="300" height="300">
	<style>
		tspan { white-space:pre }
		.shp0 { fill: #79b842 } 
		.shp1 { fill: #ffffff } 
	</style>
	<path id="Path 202" class="shp0" d="M150.5 296C230.86 296 296 230.86 296 150.5C296 70.14 230.86 5 150.5 5C70.15 5 5 70.14 5 150.5C5 230.86 70.15 296 150.5 296Z" />
	<path id="Path 203" fill-rule="evenodd" class="shp1" d="M235.81 150.51C235.81 180.82 219.94 207.36 196.1 222.49C192.53 215.05 187.66 208.44 181.6 202.86C169.6 191.8 154 185.7 137.68 185.7C127.4 185.7 117.56 188.05 108.42 192.68C100.65 196.61 93.87 202 88.23 208.65C73.99 193.42 65.19 173.01 65.19 150.51C65.19 103.41 103.39 65.23 150.5 65.23C197.62 65.23 235.81 103.41 235.81 150.51ZM201.26 148.58C182.21 136.68 160.22 130.39 137.68 130.39C125.16 130.39 112.79 132.31 100.96 136.11C97.58 137.2 95.73 140.79 96.81 144.17C97.89 147.52 101.49 149.37 104.85 148.3C115.45 144.91 126.48 143.18 137.68 143.18C157.83 143.18 177.47 148.8 194.48 159.44C195.54 160.1 196.71 160.41 197.88 160.41C200 160.41 202.09 159.34 203.3 157.4C205.17 154.4 204.26 150.46 201.26 148.58ZM189.46 175.71C174.19 165.12 156.29 159.52 137.68 159.52C126.92 159.52 116.39 161.39 106.38 165.06C103.43 166.13 101.91 169.4 102.99 172.34C104.07 175.29 107.35 176.81 110.29 175.73C119.05 172.52 128.26 170.9 137.68 170.9C153.96 170.9 169.62 175.79 182.98 185.05C183.97 185.73 185.1 186.06 186.22 186.06C188.02 186.06 189.79 185.21 190.9 183.61C192.68 181.04 192.04 177.49 189.46 175.71ZM215.7 131.14C217.69 127.76 216.56 123.41 213.18 121.41C190.36 108.03 164.25 100.95 137.68 100.95C123.32 100.95 109.11 103 95.42 107.01C91.66 108.13 89.5 112.08 90.62 115.84C91.72 119.61 95.68 121.76 99.44 120.65C111.82 117.01 124.68 115.15 137.68 115.15C161.73 115.15 185.34 121.56 205.97 133.67C207.11 134.33 208.34 134.66 209.56 134.66C212 134.66 214.37 133.39 215.7 131.14ZM161.2 224.97C164.01 227.57 166.34 230.57 168.16 233.93C162.47 235.12 156.56 235.78 150.5 235.78C136.79 235.78 123.89 232.47 112.41 226.73C115.18 223.78 118.41 221.35 122.02 219.51C126.91 217.04 132.19 215.78 137.68 215.78C146.41 215.78 154.76 219.04 161.2 224.97Z" />
</svg>