<?xml version="1.0" encoding="UTF-8" standalone="no"?><!-- Generator: Gravit.io --><svg xmlns="http://www.w3.org/2000/svg" xmlns:xlink="http://www.w3.org/1999/xlink" style="isolation:isolate" viewBox="0 0 250 250" width="250pt" height="250pt"><defs><clipPath id="_clipPath_Ntk27d8EavPSkBPNWokQEzkak3ANL2rS"><rect width="250" height="250"/></clipPath></defs><g clip-path="url(#_clipPath_Ntk27d8EavPSkBPNWokQEzkak3ANL2rS)"><defs><filter id="p0rED2u5mtQh7O2GNdIuCxLKTfdGNnQE" x="-200%" y="-200%" width="400%" height="400%" filterUnits="objectBoundingBox" color-interpolation-filters="sRGB"><feGaussianBlur xmlns="http://www.w3.org/2000/svg" in="SourceGraphic" stdDeviation="2.146804531419514"/><feOffset xmlns="http://www.w3.org/2000/svg" dx="0" dy="0" result="pf_100_offsetBlur"/><feFlood xmlns="http://www.w3.org/2000/svg" flood-color="#000000" flood-opacity="0.65"/><feComposite xmlns="http://www.w3.org/2000/svg" in2="pf_100_offsetBlur" operator="in" result="pf_100_dropShadow"/><feBlend xmlns="http://www.w3.org/2000/svg" in="SourceGraphic" in2="pf_100_dropShadow" mode="normal"/></filter></defs><g filter="url(#p0rED2u5mtQh7O2GNdIuCxLKTfdGNnQE)"><path d=" M 125.927 2 L 123.073 2 C 56.205 2 2.001 56.428 2.001 123.569 L 2.001 126.433 C 2.001 193.573 56.205 248 123.073 248 L 125.927 248 C 192.795 248 247 193.573 247 126.433 L 247 123.569 C 247 56.428 192.795 2 125.927 2 Z " fill="rgb(0,0,0)"/></g><path d=" M 172.879 78.553 C 163.852 78.553 156.54 71.209 156.54 62.15 L 156.54 62.15 L 156.54 54.664 L 129.366 54.664 L 129.366 108.159 L 129.366 148.665 L 129.366 148.666 C 129.366 157.725 122.048 165.069 113.027 165.069 C 103.999 165.069 96.688 157.725 96.688 148.666 C 96.688 139.606 103.999 132.261 113.027 132.261 C 117.366 132.261 121.311 133.963 124.237 136.737 L 124.237 106.44 C 120.66 105.484 116.899 104.975 113.027 104.975 C 88.995 104.975 69.513 124.536 69.513 148.666 C 69.513 172.796 88.995 192.357 113.027 192.357 C 137.059 192.357 156.54 172.796 156.54 148.666 L 156.54 148.664 L 156.54 102.653 C 161.583 104.707 167.1 105.841 172.879 105.841 L 179.816 105.841 L 180.02 78.553 L 172.879 78.553 Z " fill="rgb(255,255,255)"/></g></svg>