<svg xmlns="http://www.w3.org/2000/svg" viewBox="0 0 300 300" width="300" height="300">
	<style>
		tspan { white-space:pre }
		.shp0 { fill: #2eaa50 } 
		.shp1 { fill: #ffffff } 
	</style>
	<path id="Path 35" class="shp0" d="M298 150C298 231.19 232.18 297 151 297C69.81 297 4 231.19 4 150C4 68.82 69.81 3 151 3C232.18 3 298 68.82 298 150Z" />
	<path id="Path 36" fill-rule="evenodd" class="shp1" d="M246.27 135.56C249.37 142.14 251.7 149.33 251.7 155.49C251.7 183.18 232.39 202.48 204.7 202.48C188.99 202.48 173.62 193.65 164.43 182.33L151 202.48L137.56 182.33C128.37 193.65 113 202.48 97.29 202.48C69.59 202.48 50.29 183.18 50.29 155.49C50.29 149.03 52.86 141.43 56.18 134.6C58.53 129.78 61.24 125.34 63.72 121.93C50.3 118.57 50.29 108.49 50.29 108.49L83.85 108.49C103.99 88.35 124.15 81.63 151 81.63C177.85 81.63 198 88.35 218.14 108.49L251.7 108.49C251.7 108.49 251.7 118.57 238.27 121.93C240.92 125.57 243.83 130.38 246.27 135.56ZM172.43 124.23C181.81 114.62 193.24 108.49 204.7 108.49C204.7 108.49 184.56 88.35 151 88.35C117.43 88.35 97.29 108.49 97.29 108.49C108.69 108.49 120.08 114.55 129.42 124.08C142.09 137.01 151 156.31 151 175.63C151 156.39 159.84 137.16 172.43 124.23ZM130.85 155.49C130.85 142.2 123.1 130.73 111.89 125.31C107.47 123.17 102.53 121.93 97.29 121.93C88.67 121.93 80.84 125.2 74.91 130.53C68.06 136.68 63.72 145.57 63.72 155.49C63.72 174.03 78.75 189.05 97.29 189.05C115.82 189.05 130.85 174.03 130.85 155.49ZM238.27 155.49C238.27 146.01 234.32 137.47 228.01 131.36C221.97 125.53 213.76 121.93 204.7 121.93C199.23 121.93 194.09 123.26 189.53 125.59C178.62 131.12 171.15 142.42 171.15 155.49C171.15 174.03 186.16 189.05 204.7 189.05C223.25 189.05 238.27 174.03 238.27 155.49ZM211.42 155.48C211.42 159.2 208.41 162.2 204.7 162.2C201 162.2 197.99 159.19 197.99 155.48C197.99 151.78 201 148.76 204.7 148.76C208.41 148.76 211.42 151.78 211.42 155.48Z" />
	<path id="Path 37" fill-rule="evenodd" class="shp1" d="M224.85 155.5C224.85 166.62 215.82 175.63 204.7 175.63C193.59 175.63 184.56 166.62 184.56 155.5C184.56 144.37 193.59 135.34 204.7 135.34C215.82 135.34 224.85 144.37 224.85 155.5ZM218.14 155.5C218.14 148.08 212.11 142.06 204.7 142.06C197.29 142.06 191.27 148.08 191.27 155.5C191.27 162.9 197.29 168.92 204.7 168.92C212.11 168.92 218.14 162.9 218.14 155.5ZM104 155.48C104 159.2 101 162.2 97.29 162.2C93.58 162.2 90.57 159.19 90.57 155.48C90.57 151.78 93.58 148.76 97.29 148.76C101 148.76 104 151.78 104 155.48Z" />
	<path id="Path 38" fill-rule="evenodd" class="shp1" d="M117.43 155.5C117.43 166.62 108.41 175.63 97.29 175.63C86.16 175.63 77.14 166.62 77.14 155.5C77.14 144.37 86.16 135.34 97.29 135.34C108.41 135.34 117.43 144.37 117.43 155.5ZM110.72 155.5C110.72 148.08 104.7 142.06 97.29 142.06C89.87 142.06 83.85 148.08 83.85 155.5C83.85 162.9 89.87 168.92 97.29 168.92C104.7 168.92 110.72 162.9 110.72 155.5Z" />
</svg>