<?xml version="1.0" encoding="UTF-8" standalone="no"?><!-- Generator: Gravit.io --><svg xmlns="http://www.w3.org/2000/svg" xmlns:xlink="http://www.w3.org/1999/xlink" style="isolation:isolate" viewBox="0 0 250 250" width="250pt" height="250pt"><defs><clipPath id="_clipPath_zflETfm7IkciKgZCJd90koAgohffLFIv"><rect width="250" height="250"/></clipPath></defs><g clip-path="url(#_clipPath_zflETfm7IkciKgZCJd90koAgohffLFIv)"><defs><filter id="VBgxXS6uoXTvfXcpM45gIbzBltvqrOw9" x="-200%" y="-200%" width="400%" height="400%" filterUnits="objectBoundingBox" color-interpolation-filters="sRGB"><feGaussianBlur xmlns="http://www.w3.org/2000/svg" in="SourceGraphic" stdDeviation="2.146804531419514"/><feOffset xmlns="http://www.w3.org/2000/svg" dx="0" dy="0" result="pf_100_offsetBlur"/><feFlood xmlns="http://www.w3.org/2000/svg" flood-color="#000000" flood-opacity="0.65"/><feComposite xmlns="http://www.w3.org/2000/svg" in2="pf_100_offsetBlur" operator="in" result="pf_100_dropShadow"/><feBlend xmlns="http://www.w3.org/2000/svg" in="SourceGraphic" in2="pf_100_dropShadow" mode="normal"/></filter></defs><g filter="url(#VBgxXS6uoXTvfXcpM45gIbzBltvqrOw9)"><path d=" M 245.5 127.595 C 245.5 194.781 191.034 249.246 123.85 249.246 C 56.661 249.246 2.197 194.781 2.197 127.595 C 2.197 60.412 56.661 5.944 123.85 5.944 C 191.034 5.944 245.5 60.412 245.5 127.595 Z " fill="rgb(49,174,227)"/></g><path d=" M 196.947 86.786 C 191.773 89.083 186.212 90.634 180.375 91.327 C 186.331 87.758 190.905 82.109 193.064 75.371 C 187.487 78.68 181.313 81.076 174.743 82.371 C 169.485 76.764 161.984 73.263 153.682 73.263 C 137.753 73.263 124.837 86.177 124.837 102.106 C 124.837 104.368 125.093 106.571 125.588 108.68 C 101.611 107.479 80.356 95.995 66.126 78.538 C 63.643 82.798 62.224 87.758 62.224 93.041 C 62.224 103.051 67.317 111.883 75.055 117.055 C 70.327 116.903 65.877 115.609 61.99 113.445 C 61.984 113.567 61.984 113.69 61.984 113.809 C 61.984 127.784 71.934 139.443 85.126 142.09 C 82.711 142.752 80.158 143.104 77.527 143.104 C 75.668 143.104 73.86 142.924 72.1 142.591 C 75.771 154.049 86.424 162.389 99.048 162.62 C 89.173 170.359 76.737 174.972 63.219 174.972 C 60.893 174.972 58.592 174.835 56.342 174.569 C 69.102 182.756 84.268 187.529 100.556 187.529 C 153.621 187.529 182.636 143.578 182.636 105.453 C 182.636 104.202 182.608 102.956 182.55 101.721 C 188.191 97.652 193.079 92.572 196.947 86.786 Z " fill="rgb(254,254,254)"/></g></svg>