<svg xmlns="http://www.w3.org/2000/svg" viewBox="0 0 300 300" width="300" height="300">
	<style>
		tspan { white-space:pre }
		.shp0 { fill: #2c7a9f } 
		.shp1 { fill: #ffffff } 
	</style>
	<path id="Path 270 copy" class="shp0" d="M149 294.98C229.63 294.98 295 229.62 295 148.99C295 68.36 229.63 3 149 3C68.37 3 3 68.36 3 148.99C3 229.62 68.37 294.98 149 294.98Z" />
	<path id="Path 271" class="shp1" d="M212.32 201.16C209.04 201.16 205.76 200.96 202.49 201.2C196.23 201.66 191.2 199.13 186.96 194.91C183.42 191.37 180.21 187.5 176.77 183.87C175.31 182.34 173.76 180.84 172.07 179.61C168.86 177.28 165.71 177.76 164.32 181.44C162.8 185.4 161.97 189.73 161.48 193.97C160.88 198.93 159.03 200.95 154.03 201.18C141.75 201.76 129.84 200.5 118.71 194.63C107.63 188.77 99.12 180.16 91.77 170.18C78.8 152.46 68.8 133.05 59.86 113.05C57.61 108.05 59.53 105.29 65.09 105.23C73 105.15 80.92 105.18 88.79 105.22C92.96 105.24 95.51 107.43 97.03 111.26C101.8 123.1 107.76 134.29 115.54 144.45C116.89 146.18 118.55 147.76 120.34 148.99C122.52 150.51 124.51 149.9 125.43 147.38C126.33 144.88 127.15 142.19 127.19 139.57C127.29 132.55 127.09 125.52 126.72 118.52C126.49 113.52 123.75 110.26 118.75 109.27C116.23 108.77 116.27 107.24 117.72 106.16C120.04 104.43 122.72 102.22 125.37 102.08C134.83 101.57 144.37 101.44 153.83 101.99C159.72 102.34 161.91 105.76 161.88 112.61C161.84 121.85 161.51 131.1 161.38 140.33C161.38 141.95 161.58 143.61 161.97 145.18C163.2 149.99 166.05 151.08 169.22 147.39C173.66 142.23 177.83 136.73 181.24 130.88C185.04 124.44 187.99 117.48 191.07 110.65C193.15 106.09 194.15 105.21 199.08 105.21L224.8 105.21C225.59 105.21 226.35 105.19 227.11 105.23C232.91 105.54 235.22 108.48 232.97 113.79C230.85 118.8 228.17 123.66 225.09 128.17C220.3 135.25 214.93 141.97 209.8 148.84C203.58 157.22 203.81 159.04 211.16 166.42C217.25 172.57 223.18 178.89 229.07 185.23C230.29 186.55 231.18 188.21 232.08 189.79C235.65 196.12 232.97 200.87 225.62 201.12C221.19 201.28 216.75 201.15 212.32 201.15" />
</svg>