<svg xmlns="http://www.w3.org/2000/svg" viewBox="0 0 300 300" width="300" height="300">
	<style>
		tspan { white-space:pre }
		.shp0 { fill: #51bc49 } 
		.shp1 { fill: #f3f7f6 } 
	</style>
	<path id="Path 304" class="shp0" d="M293.08 150.54C293.08 229.26 229.26 293.08 150.54 293.08C71.82 293.08 8 229.26 8 150.54C8 71.81 71.82 8 150.54 8C229.26 8 293.08 71.81 293.08 150.54Z" />
	<path id="Path 305" fill-rule="evenodd" class="shp1" d="M237.39 148.37C237.39 193.72 200.63 230.47 155.28 230.47C140.89 230.47 127.36 226.76 115.6 220.27L70.15 234.81L84.97 190.77C77.49 178.39 73.19 163.89 73.19 148.37C73.19 103.03 109.94 66.27 155.28 66.27C200.63 66.27 237.39 103.03 237.39 148.37ZM223.63 148.37C223.63 110.68 192.97 80.02 155.28 80.02C117.6 80.02 86.94 110.68 86.94 148.37C86.94 163.33 91.78 177.18 99.96 188.44L91.42 213.83L117.69 205.42C128.48 212.55 141.41 216.72 155.28 216.72C192.97 216.72 223.63 186.05 223.63 148.37ZM197.7 169.62C198.2 170.52 198.04 174.71 196.11 179.54C194.18 184.36 185.44 188.77 181.59 188.97C177.74 189.18 177.63 191.98 156.63 182.79C135.65 173.6 123.02 151.24 122.03 149.8C121.03 148.37 113.89 138.13 114.28 127.81C114.67 117.5 120.27 112.64 122.27 110.61C124.27 108.59 126.55 108.15 127.96 108.2C129.35 108.26 130.74 108.48 131.97 108.53C133.19 108.57 134.96 107.94 136.55 112.2C138.14 116.46 141.94 126.93 142.42 128C142.91 129.06 143.22 130.3 142.47 131.67C141.72 133.04 141.33 133.91 140.24 135.09C139.15 136.27 137.94 137.73 136.96 138.65C135.87 139.64 134.72 140.74 135.88 142.88C137.02 145.03 140.97 152.05 146.99 157.83C154.73 165.27 161.41 167.74 163.45 168.86C165.52 169.99 166.74 169.87 168.02 168.51C169.29 167.16 173.49 162.59 174.96 160.55C176.44 158.5 177.83 158.9 179.72 159.68C181.61 160.44 191.72 165.9 193.78 167.03C195.83 168.15 197.21 168.73 197.7 169.62Z" />
</svg>