<?xml version="1.0" encoding="UTF-8" standalone="no"?><!-- Generator: Gravit.io --><svg xmlns="http://www.w3.org/2000/svg" xmlns:xlink="http://www.w3.org/1999/xlink" style="isolation:isolate" viewBox="0 0 250 250" width="250pt" height="250pt"><defs><clipPath id="_clipPath_bquqZA47DP0k5YE6LAunt1f8E3dyShxk"><rect width="250" height="250"/></clipPath></defs><g clip-path="url(#_clipPath_bquqZA47DP0k5YE6LAunt1f8E3dyShxk)"><defs><filter id="6C2gjzdKi87k9JxsEne9w2IKV8B4ulty" x="-200%" y="-200%" width="400%" height="400%" filterUnits="objectBoundingBox" color-interpolation-filters="sRGB"><feGaussianBlur xmlns="http://www.w3.org/2000/svg" in="SourceGraphic" stdDeviation="2.146804531419514"/><feOffset xmlns="http://www.w3.org/2000/svg" dx="0" dy="0" result="pf_100_offsetBlur"/><feFlood xmlns="http://www.w3.org/2000/svg" flood-color="#000000" flood-opacity="0.65"/><feComposite xmlns="http://www.w3.org/2000/svg" in2="pf_100_offsetBlur" operator="in" result="pf_100_dropShadow"/><feBlend xmlns="http://www.w3.org/2000/svg" in="SourceGraphic" in2="pf_100_dropShadow" mode="normal"/></filter></defs><g filter="url(#6C2gjzdKi87k9JxsEne9w2IKV8B4ulty)"><path d=" M 126.4 1.704 L 123.593 1.704 C 57.818 1.704 4.5 56.264 4.5 123.566 L 4.5 126.436 C 4.5 193.737 57.818 248.296 123.593 248.296 L 126.4 248.296 C 192.175 248.296 245.5 193.737 245.5 126.436 L 245.5 123.566 C 245.5 56.264 192.175 1.704 126.4 1.704 Z " fill="rgb(247,10,2)"/></g><path d=" M 207.911 123.155 L 207.911 123.155 C 207.781 109.649 207.089 80.101 196.036 71.494 C 184.88 62.813 124.997 62.813 124.997 62.813 L 124.997 64.592 L 124.997 62.813 C 124.997 62.813 65.114 62.813 53.964 71.494 C 42.911 80.101 42.219 109.649 42.089 123.155 L 42.089 123.155 L 42.089 123.334 L 42.089 123.514 L 42.089 123.514 C 42.219 137.02 42.911 166.568 53.964 175.174 C 65.114 183.855 124.997 183.855 124.997 183.855 L 124.997 182.436 L 124.997 183.855 C 124.997 183.855 184.88 183.855 196.036 175.174 C 207.089 166.568 207.781 137.02 207.911 123.514 L 207.911 123.514 L 207.911 123.334 L 207.911 123.155 Z " fill="rgb(255,255,255)"/><path d=" M 109.895 95.943 L 156.261 123.335 L 109.895 150.725 L 109.895 95.943 Z " fill="rgb(247,10,2)"/></g></svg>